<svg xmlns="http://www.w3.org/2000/svg" xmlns:xlink="http://www.w3.org/1999/xlink" width="295" height="286" viewBox="0 0 295 286">
  <defs>
    <clipPath id="clip-path">
      <rect id="Rectángulo_403002" data-name="Rectángulo 403002" width="258.147" height="222.835" fill="none"/>
    </clipPath>
    <clipPath id="clip-path-3">
      <rect id="Rectángulo_402999" data-name="Rectángulo 402999" width="9.471" height="11.375" fill="none"/>
    </clipPath>
    <clipPath id="clip-path-4">
      <rect id="Rectángulo_403000" data-name="Rectángulo 403000" width="21.878" height="21.932" fill="none"/>
    </clipPath>
  </defs>
  <g id="Grupo_1108258" data-name="Grupo 1108258" transform="translate(-1125.051 -443)">
    <rect id="Rectángulo_402998" data-name="Rectángulo 402998" width="295" height="286" rx="12" transform="translate(1125.051 443)" fill="#fff1f1"/>
    <g id="Grupo_1108257" data-name="Grupo 1108257" transform="translate(1141.203 475.165)">
      <g id="Grupo_1108256" data-name="Grupo 1108256" clip-path="url(#clip-path)">
        <g id="Grupo_1108255" data-name="Grupo 1108255" transform="translate(0 0)">
          <g id="Grupo_1108254" data-name="Grupo 1108254" clip-path="url(#clip-path)">
            <path id="Trazado_898521" data-name="Trazado 898521" d="M751.713,211.756q-6.5,1.442-13.029,2.77a107.4,107.4,0,0,0,13.029-2.77m103.937-88.023c4.789,23.684-17.2,38.81-36.818,45.709-13,4.6-24.351,7.216-30.408,20.216a19.655,19.655,0,0,1-3.126,4.752c-4.883,5.5-9.9,10.8-11.1,11.228-.14.049-73.516,16.926-107.856,2.351-12.436-5.834-23.192-16.763-27.107-30.1a19.745,19.745,0,0,1-.591-2.71c-4.69-32.149,29.629-49.68,51.048-66.913,8.924-6.684,17.663-17.218,15.96-28.644a19.645,19.645,0,0,0-2.337-6.73c-5.531-9.826-15.533-16.865-19.3-27.81-5.576-13.454,1.818-28.771,14.011-35.658q.44-.249.866-.521C732.1-12.405,771.051,8.051,795.6,33.3c24.959,25.718,53.749,53.7,60.051,90.429" transform="translate(-598.167 0.001)" fill="#fee3e4"/>
            <path id="Trazado_898522" data-name="Trazado 898522" d="M1231.619,1495.033c.292-2.792-.966-3.753-2.66-5.08-2.086-2.032-4.723-3.795-5.978-6.991a18.762,18.762,0,0,1-.344-5.377c.436-6.349-1.317-12.734-1-19.739.041-3.054.238-6.228.207-9.415.08-2.212-1.845-1.973-2.906-2.146-2.081.009-4.252-.67-6.293-.125-1.776,1.433-.4,14.338-.675,17.457-1.371,7.573-2.393,12.609-1.447,19.866,1.9.643-6.21,7.437-6.646,8.87-.883,1.615-.356,3.656,0,5.433.448,1.08,1.015,1.145.845,2.576.327,9.439,1.346,19.6,2.153,28.136.161,2,.5,3.984.482,5.905-.684,1.484-.378,1.931.016,3.465.376,1.308.58,2.467,2.254,2.371a114.216,114.216,0,0,0,16.411-.41c.772-.138,1.812.173,2.371-.524a7.061,7.061,0,0,0,.64-3.962c-1.036-.189-.267-2.665-.318-3.495.338-4.534.627-9.282,1.1-14.257.507-6.143,1.028-12.94,1.1-19.4.053-1.086.566-2.068.695-3.156m.463-3.145c1.167,2.881-.511,5.019-.38,7.808-.306,12.984-1.924,24.59-2.46,34.994,1.014.376.433,2.023.408,2.862-.153,1.046-.427,2.419-1.623,2.745a142.254,142.254,0,0,1-15.4.7c-4.229-.249-5.159.671-6.193-4.046-.476-1.983-.109-1.366.237-2.9-.968-10.309-2.093-21-2.765-32.11a13.065,13.065,0,0,0-.136-2.719c-1.882-3.035-1.687-7.191.868-9.414a79.742,79.742,0,0,0,5.385-6.059c-1.977-5.9-.08-13.634.955-19.949.1-4-.216-8.182-.219-12.454-.333-8.85,2.8-6.68,7.355-6.561,1.888.109,4.937.028,4.745,3.823.012,2.562-.142,5.078-.2,7.548a73.94,73.94,0,0,0,.717,13.858c.6,4.2-.263,8.451.379,12.342.808,2.456,2.717,3.819,4.232,5.385,1.311,1.477,3.209,2.244,4.1,4.139" transform="translate(-1127.07 -1353.85)" fill="#592b44"/>
            <path id="Trazado_898523" data-name="Trazado 898523" d="M1327.906,1642.516c1.27,16.4,4.37,12.514-7.069,12.964-1.625.069-3.206.626-4.824.616-1.946-.176-1.039-3.335-.867-4.928.262-1.793.555-3.6.7-5.4.538-2.992-.929-9.161,2.146-9.81a15.841,15.841,0,0,1,8.459.868c1.527.991,1.153,3.8,1.456,5.689" transform="translate(-1232.298 -1533.114)" fill="#592b44"/>
            <path id="Trazado_898524" data-name="Trazado 898524" d="M1253.242,2309.582c.918,6.942-.827,13.915-.737,20.7-.183,2.9-.021,11.746-1.531,13.412a12.327,12.327,0,0,1-3.829.339c-4.057-.11-8.115.149-12.174-.014-1.3-.045-2.6-.053-3.893-.035-1.1.031-2.837.223-2.921-1.354-1.016-7.409-1.346-15.224-1.89-22.957-.014-2.407-1.168-10.207.157-11.662a.6.6,0,0,1,.917.257c7.12-.111,14.268-.706,21.4-.364,1.52.266,4.011-.564,4.5,1.68" transform="translate(-1148.886 -2163.012)" fill="#592b44"/>
            <path id="Trazado_898525" data-name="Trazado 898525" d="M1275.445,2136.673a.457.457,0,0,0-.083-.155.562.562,0,0,1,.083.155m2.2-3.244c.5.778-.806,1.621-1.086,2.239-.482.408-1.136,2.106-1.788,1.537-.5-.792.633-1.349.91-1.941.533-.433,1.259-2.461,1.965-1.835" transform="translate(-1194.675 -1999.471)" fill="#915074"/>
            <path id="Trazado_898526" data-name="Trazado 898526" d="M1255.946,2233.111c.036.63-.8.636-.842.007-.078-.649-.173-2.436.742-1.57.2.469,0,1.049.1,1.564" transform="translate(-1176.318 -2091.328)" fill="#915074"/>
            <path id="Trazado_898527" data-name="Trazado 898527" d="M1266.95,2410.916c.025.479-.711.494-.739,0-.492-6.03-.591-12.548-1.81-19.279-.414-.359.022-1.078.457-.778.471.437.43,1.274.584,1.884.852,6.082,1.1,12.22,1.508,18.169" transform="translate(-1184.92 -2240.799)" fill="#915074"/>
            <path id="Trazado_898528" data-name="Trazado 898528" d="M1299.849,2733.465c-.071.5.452,1.6-.223,1.708a.388.388,0,0,1-.382-.356c.06-.574-.66-3.268.247-3.055.529.208.21,1.222.358,1.7" transform="translate(-1217.532 -2560.366)" fill="#915074"/>
            <path id="Trazado_898529" data-name="Trazado 898529" d="M1305.154,2905.282c-.014.309.152.652.01.924a.361.361,0,0,1-.622-.152,5.288,5.288,0,0,1-.054-1.785c.733-.528.627.584.666,1.013" transform="translate(-1222.582 -2721.933)" fill="#915074"/>
            <path id="Trazado_898530" data-name="Trazado 898530" d="M101.426,2769.846c.22-1,1.269-2.116.516-3.131a12.343,12.343,0,0,0-5.566-2.616c-.837,1.143-3.99-.884-5.192-1.191-6.079-2.339-12.191-4.606-18.214-7.057-7.05-2.756-14.112-5.532-21.352-7.8-1.093-.391-1.864-1.2-2.907-1.654-2.649-1.113-4.146-.176-6.174,1.063-4.726,2.522-8.451,4.994-13.923,2.266-5.131-2.2-10.912-2.407-16.077-4.512-2.205-.806-4.387-1.75-6.614-2.49-1.479-.587-2.031,1.035-2.541,1.856-.765,1.695-2.021,3.287-2.415,5.084.294,1.825,9.876,4.271,12.089,5.427,5.317,3.545,8.983,6.12,15.562,7.753,1.019-.872,1.5,1.642,1.873,2.15,2.4,4.77,1.868,9.2,8.448,9.827,1.264.017,1.585-.522,2.932.264,13.564,5.362,27.693,9.369,41.45,14.219.5.246.752.7,1.126,1.053a13.765,13.765,0,0,0,3.785.983c2.1.34,3.92.8,4.708-1.3a126.71,126.71,0,0,0,8.486-20.194m-1.45-5.459c1.494.671,3.436,1.651,3.274,3.264a156.747,156.747,0,0,1-7.507,19.178c-2.826,6.537-3.89,6.7-11.656,4.395-.679-.323-.865-1.073-1.615-1.316-13.151-4.367-26.379-8.545-39.38-13.31-.952-.271-1.8-.993-2.784-1.053-3.708.581-7.67-1.379-8.563-4.751a75.832,75.832,0,0,0-3.1-7.39c-5.409-.087-11.4-4.479-15.837-7.4-2.932-1.271-6.059-2.212-9.04-3.406-6.011-2.1-3.449-4.059-1.689-7.716,2.3-5.617,5.359-2.222,9.623-.96a52.519,52.519,0,0,0,10.917,2.995c3.7.627,6.958,2.632,10.646,3.194,4.832-.2,8.052-3.985,12.525-5.1,16.8,5.044,33.076,12.656,49.74,18.556,1.095-1.032,3.208.4,4.447.818" transform="translate(0 -2569.736)" fill="#592b44"/>
            <path id="Trazado_898531" data-name="Trazado 898531" d="M697.3,2860.509c.023,1.655-.993,3.159-1.575,4.686-2.347,4.75-4.167,9.689-6.593,14.409-.763,1.513-1.476,3.046-2.149,4.591-.548,1.318-1.223,3.49-3.45,2.663-12.413-3.735-24.57-8.283-36.7-12.8-1.53-.722-3.763-1.113-4.471-2.609a.675.675,0,0,1,.671-.806c3.138-7.17,5.795-14.546,9.38-21.519.965-1.431,1.241-4.181,3.807-3.967,8.293,1.427,15.61,5.7,23.639,8.006a137.187,137.187,0,0,1,14.49,5.364c1.047.52,2.6.886,2.947,1.981" transform="translate(-602.045 -2666.649)" fill="#592b44"/>
            <path id="Trazado_898532" data-name="Trazado 898532" d="M139.686,2794.752c13.9,3.351,11.842-.446,7.527,10-.617,1.5-.808,3.12-1.489,4.593-.955,1.713-3.166-.166-4.378-.842-1.317-.811-2.619-1.642-3.948-2.328-2.06-1.379-7.156-1.95-6.437-4.733a17.93,17.93,0,0,1,3.891-6.921c1.321-1.042,3.278,0,4.835.228" transform="translate(-122.68 -2618.776)" fill="#592b44"/>
            <path id="Trazado_898533" data-name="Trazado 898533" d="M512.345,3113.148a.337.337,0,0,0-.076.015.7.7,0,0,1,.076-.015m.077,0a.286.286,0,0,0-.071,0,.627.627,0,0,1,.071,0m-.415-1.456c.165.618,1.461,1.908.638,2.318-.957.174-.972-1.135-1.4-1.628-.164-.677-1.692-2.127-.82-2.568.929-.192,1.131,1.375,1.579,1.878" transform="translate(-478.155 -2914.693)" fill="#915074"/>
            <path id="Trazado_898534" data-name="Trazado 898534" d="M578.246,3201.979c.624.221.253,1.052-.374.832-.657-.189-2.4-.823-1.17-1.367.535,0,1,.426,1.543.536" transform="translate(-540.121 -3000.593)" fill="#915074"/>
            <path id="Trazado_898535" data-name="Trazado 898535" d="M762.793,3266.431c.617.219.257,1.055-.373.832-7.589-2.5-15.109-5.511-22.937-7.291-.568.266-1.111-.5-.6-.81.673-.29,1.531.118,2.245.229,7.35,1.958,14.469,4.6,21.661,7.039" transform="translate(-692.338 -3054.595)" fill="#915074"/>
            <path id="Trazado_898536" data-name="Trazado 898536" d="M1149.158,3386.693c.615.347,2.325.335,2.112,1.166a.545.545,0,0,1-.668.246c-.719-.377-4.551-.991-3.814-1.9.537-.489,1.671.4,2.37.49" transform="translate(-1074.754 -3173.625)" fill="#915074"/>
            <path id="Trazado_898537" data-name="Trazado 898537" d="M1384.421,3476.312c.238.318-.125.777-.561.661a9.654,9.654,0,0,1-2.587-.987c-.349-1.179,1.174-.409,1.809-.2.437.2,1.023.2,1.339.53" transform="translate(-1294.567 -3257.312)" fill="#915074"/>
            <path id="Trazado_898538" data-name="Trazado 898538" d="M1645.405,203.914a19.47,19.47,0,0,0-.116-2.51c.569,8.732-4.816,15.2-8.412,22.6-5.019,9.9.515,21.442,11.562,23.329-8.5-1.944-12.856-11.285-11.119-19.447,1.392-8.46,7.642-15.326,8.086-23.972m-2.633-41.241a16.431,16.431,0,0,1,2.085-2.808c-10.225,7.707-5.307,21.349-1.571,31.226-1.918-9.176-4.864-19.555-.514-28.419m41.011-.059c-4.024-10.663-15.911-16.059-25.125-7.923,9.687-6.31,19.953-1.741,25.125,7.923m.749,3.252c-.041-.119-.082-.238-.125-.356.042.118.084.238.125.356m25.459,49.7c2.97,7.477,2.746,15.954-2.026,22.626-5.273,5.964-13.638,7.923-21.13,9.382-13.245,2.057-27.029,2.609-40.227-.05a16.582,16.582,0,0,1-12.281-14.289c-.737-9.7,7.786-16.734,9.722-25.71,3.626-14.11-9.559-26.745-5.041-40.776,2.488-6.949,10.69-12.27,18.213-11.21,4.305-6.085,14.088-6.877,19.978-2.681,7.617,5.5,9.507,15.376,9.555,24.145.807,19.616,16.048,17.562,23.237,38.563" transform="translate(-1531.752 -140.811)" fill="#915074"/>
            <path id="Trazado_898539" data-name="Trazado 898539" d="M1953.5,580.524c4.344,2.932,1.715,5.1-1.6,7.414-9.646,6.112-22.422,8.01-33.806,8.781-3.21.4-5.78-.2-5.2-3.945,2.2-8.881,1.216-17.887-.049-26.8-1.258-5.312,1.878-8.753,6.85-10.657a41.711,41.711,0,0,1,9.51-2.684c3.872-.7,9.591-2.212,12.019,1.7.105-.61.211-4.3.817-4.21.462-.041.478.267.4.559-.069.415-.134.831-.191,1.246-.653,3.341.106,6.572.248,9.913.743,7.387,5.094,14.113,11,18.679" transform="translate(-1792.577 -515.611)" fill="#592b44"/>
            <path id="Trazado_898540" data-name="Trazado 898540" d="M2462.386,427.113c-.246-.2-.047-.659-.052-.913.677-6.284-.9-12.648-3.585-18.32-4.6-12.978-19.259-16.195-20.844-30.73-.722-5.119-.3-10.4-1.787-15.4-.052-.174-.106-.348-.167-.52-.133-.345.463-.629.609-.242,1.792,5.426,1.2,11.244,2.1,16.822,2.363,14.6,18.2,17.648,22.54,34.285a33.206,33.206,0,0,1,1.73,14.54c-.025.143.023.289-.084.41a.341.341,0,0,1-.463.057l.007.006" transform="translate(-2283.107 -338.17)" fill="#592b44"/>
            <path id="Trazado_898541" data-name="Trazado 898541" d="M2494.7,2784.452a5.172,5.172,0,0,1-5.366,6.443c-6.784-.687-9.717-3.469-12.872-9.247-2.55-4.419-1.487-6.191,2.947-8.2,1.011-.428,8.484-4.032,8.684-2.618-.076.4-.546.191-.823.277,1.258,5.013,6.01,8.372,7.431,13.343" transform="translate(-2319.821 -2596.692)" fill="#2d1818"/>
            <path id="Trazado_898542" data-name="Trazado 898542" d="M2095.7,2714.082c1.481-1.929.148-2.2-2.281-2a17.1,17.1,0,0,1-.042,1.71,5.273,5.273,0,0,1,2.323.287m.646-1.519,0,0s0,0,0,0m6.8.64c1.193.6-3.107,1.788-3.516,2.095q-1.792.72-3.554,1.505a22.7,22.7,0,0,1-11.252,2.475c-6.5.406-10.47-.736-14.261-5.783a5.2,5.2,0,0,1,.143-5.725c5.256-6.294,14.389-1.677,21.158-4.228-.052-.291-.5-.573-.13-.876,1.5-.721,1.6,7.708,1.667,8.8,2.471-.3,4.743.392,2.863,2.9a1.367,1.367,0,0,1,.521,1.447c1.9-.853,3.868-1.527,5.743-2.426.2-.079.393-.254.617-.188" transform="translate(-1939.921 -2533.067)" fill="#2d1818"/>
            <path id="Trazado_898543" data-name="Trazado 898543" d="M2017.256,1883.428c1.011,6.958-7.538,33.554-14.4,19.858a65.6,65.6,0,0,1-7.915,5.756c.768,1.612,1.987,4.339-.2,4.89a31.179,31.179,0,0,1-12.266-.048c-7.917,1.075-16.293-1.106-20.609-8.139-3.039-4.513-2.815-10.509-.75-15.375.379-1.9,4.592-13.007,7.481-17.222h0q.263-.955.523-1.911c.312-1.122.626-2.243.933-3.367l-.051.18c.56-2.032,1.351-3.991,1.95-6.013a15.12,15.12,0,0,1,15.343-1.758,77.385,77.385,0,0,1,19.214,9.655c.478-2.3,2.831-2.345,4.472-1.056,1.452,3.933,3.116,7.784,4.874,11.589l-.038-.081q.709,1.527,1.437,3.044" transform="translate(-1836.636 -1742.343)" fill="#1d1c1c"/>
            <path id="Trazado_898544" data-name="Trazado 898544" d="M2419.711,2001.475c.194,16.433-19.278,24.174-31.508,30.95q-13.055,6.5-26.053,13.113c-2.71,1.4-5.9,3.267-8.959,1.785-3.2-1.827-6.427-7.859-7.44-11.426v.014c-.083-.779.706-1.274,1.2-1.755,1.333-1.131,2.8-2.085,4.186-3.146,13.485-14,26.4-29.479,43.759-38.808,10.341-5.841,24.686-5.764,24.816,9.273" transform="translate(-2198.579 -1863.843)" fill="#404040"/>
            <path id="Trazado_898545" data-name="Trazado 898545" d="M1840.875,1115.372c-9.95-.994-18.211-7.522-25.522-13.842-5.052-3.927-9.875-8.47-12.29-14.532-2.583-.568-4.563-7.482-5.509-9.871-2.14-6.942-4.385-15.319-.4-21.976,2.934-3.583,6.925-3.784,11.187-3.277,5.5.332,10.762,2.059,15.881,3.988h0c.047.016.1.03.143.045l-.126-.039a1.434,1.434,0,0,0,1.357-2.5,1.573,1.573,0,0,0,2-1.875c9.222.489,16.372-5.137,25.606-.493,7.841,3.342,9.584,12.694,10.037,20.333a66.165,66.165,0,0,1-1.026,12.429c-.283,2.342-.524,4.584-3.595,3.657a62.8,62.8,0,0,0,1.1,20.088q-2.156,3.085-4.266,6.2a55.27,55.27,0,0,1-14.575,1.661" transform="translate(-1682.347 -983.332)" fill="#f68c8a"/>
            <path id="Trazado_898546" data-name="Trazado 898546" d="M2318.877,1053.96c-6.338-12.314-22-7.032-33.011-7.893a1.475,1.475,0,0,0-.007-.624c11.267-.1,27.919-4.282,33.863,8.371a.436.436,0,0,1-.846.146" transform="translate(-2142.45 -979.16)" fill="#f68c8a"/>
            <path id="Trazado_898547" data-name="Trazado 898547" d="M2400,1055.613c-.043-.349.288-.513.588-.517.7-.112,1.4-.249,2.095-.4a.451.451,0,0,1,.037-.161.463.463,0,0,1,.121-.83,6.186,6.186,0,0,1,.794,0c.665.1,3.123-.25,2.386,1.023a1.183,1.183,0,0,1-.82.321c-.652.1-1.285.316-1.933.445-.925.21-1.856.395-2.794.535a.453.453,0,0,1-.475-.416" transform="translate(-2249.424 -987.583)" fill="#f68c8a"/>
            <path id="Trazado_898548" data-name="Trazado 898548" d="M1769.8,1701.68c.145.295.665.6.378.944-.413.387-.711-.307-.935-.576a71.679,71.679,0,0,0-11.778,8.126,2.346,2.346,0,0,1-1.358.639c-1.259-.039-2.059-1.136-2.9-1.934-5.253-5.305-10.669-10.445-15.7-15.963-14.071-13.549-37.069-30.819-29.326-52.9,3.611-8.789,12.409-8.3,19.768-4.65,9.181,4.253,12.823,14.454,17.493,22.755a209.437,209.437,0,0,0,24.016,43.07.32.32,0,0,1,.342.493" transform="translate(-1599.56 -1530.446)" fill="#404040"/>
            <g id="Grupo_1108250" data-name="Grupo 1108250" transform="translate(136.662 155.909)" opacity="0.676">
              <g id="Grupo_1108249" data-name="Grupo 1108249">
                <g id="Grupo_1108248" data-name="Grupo 1108248" clip-path="url(#clip-path-3)">
                  <path id="Trazado_898549" data-name="Trazado 898549" d="M2187.327,2485.114c2.327.235-4.886,8.1-5.628,8.908-.463.393-3.391,3.716-3.383,1.955-.037-1.457,2.348-3.769,3.21-5,1.635-1.779,3.6-4.969,5.8-5.863" transform="translate(-2178.316 -2485.114)" fill="#f7eff7"/>
                </g>
              </g>
            </g>
            <g id="Grupo_1108253" data-name="Grupo 1108253" transform="translate(136.681 155.882)" opacity="0.676">
              <g id="Grupo_1108252" data-name="Grupo 1108252">
                <g id="Grupo_1108251" data-name="Grupo 1108251" clip-path="url(#clip-path-4)">
                  <path id="Trazado_898550" data-name="Trazado 898550" d="M2189.519,2506.493c-4.9-1.023-8.243-6.607-10.889-10.529a32.665,32.665,0,0,0,9.274-11.294,9.645,9.645,0,0,1,2.271.931c3.827,2.229,9.483,3.833,10.12,8.991a5.669,5.669,0,0,1-1.234,5.452c-2.574,3.444-4.539,7.255-9.543,6.449" transform="translate(-2178.63 -2484.67)" fill="#f7eff7"/>
                </g>
              </g>
            </g>
            <path id="Trazado_898551" data-name="Trazado 898551" d="M2189.725,2671.481a.424.424,0,0,1,.05-.166c-.053-.006-.107-.009-.16-.01.033.06.072.118.11.176m14.14,1.091c7.87.375.824,8.542-3.542,8.211-3.1-.244-5.7-2.612-7.558-5.021-1.447-1.562-2.606-3.352-3.946-5,.276-.407,1.178-.362,2.315.033a19.15,19.15,0,0,1,5.654.977,41.074,41.074,0,0,0,7.078.8" transform="translate(-2051.498 -2502.937)" fill="#592b44"/>
            <path id="Trazado_898552" data-name="Trazado 898552" d="M2283.2,1636.377a15.539,15.539,0,0,1-4.306-2.448c0-.014-.008-.029-.012-.044h0c-.041-.118,0-.3-.147-.352a1.685,1.685,0,0,1-.458-.286l0,0-.006,0h0l0,0h0a1.864,1.864,0,0,1-.184-.159l.007.006a1.152,1.152,0,0,1-.1-.119h0l-.005-.006,0,0a.046.046,0,0,1-.005-.008h0a2.09,2.09,0,0,1-.137-.213h0a3.072,3.072,0,0,1-.151-.325v0a2.113,2.113,0,0,1-.084-.258h0v-.005h0c-.376-2.172,7.69-3.912,8.379-8.034-1.245.188-2.429.9-3.754.719-1.29-.067-2.315-1.432-1.367-2.459,8.417-7.06,10.658-18.593,12.916-28.752,2.264-12.253-.853-24.731,1-37.042a.379.379,0,0,1,.048-.487c.009-.071.017-.141.025-.212l.429-.144-.177.06.671-.222a.766.766,0,0,0,0,.151c4.535-1.326,12.587-1.141,15.911,2.408,1.143,1.58-.112,5.82-.17,7.838-.982,17.676-5.53,34.643-11.872,51.156-2.4,6.186-4.324,13.221-10.2,17.366-1.75,1.249-4.027,2.643-6.258,1.868" transform="translate(-2134.716 -1457.427)" fill="#ffbd9d"/>
            <path id="Trazado_898553" data-name="Trazado 898553" d="M2556.92,1957.3c-.166-.573-1.9-4.779-1.126-4.807a.3.3,0,0,1,.369.216,27.794,27.794,0,0,0,1.339,4.358.314.314,0,0,1-.582.234" transform="translate(-2395.264 -1829.989)" fill="#c88666"/>
            <path id="Trazado_898554" data-name="Trazado 898554" d="M2576.874,2053.963a.934.934,0,0,1-.328-.727.318.318,0,0,1,.582-.12,2.886,2.886,0,0,0,.165.447.323.323,0,0,1-.419.4" transform="translate(-2414.901 -1924.168)" fill="#c88666"/>
            <path id="Trazado_898555" data-name="Trazado 898555" d="M2278.751,2662.6a1.755,1.755,0,0,1-.251-.071c-.163-.127-.38-.2-.541-.355h0l-.008-.006v0l0,0h0s0,0-.008-.006l0,0a1.792,1.792,0,0,1-.179-.156l.006.006a1.141,1.141,0,0,1-.1-.118h0l-.005-.006h0a.053.053,0,0,1-.005-.008h0a2.174,2.174,0,0,1-.134-.208v0l0,0h0a.018.018,0,0,1,0-.005h0a3.153,3.153,0,0,1-.152-.327l0,.005a2.14,2.14,0,0,1-.085-.263h0a1.566,1.566,0,0,1-.033-.177h0c-.047-1.334,1.661-1.735,2.57-2.363a16.017,16.017,0,0,0,2.945-2.149,11.046,11.046,0,0,0,2.475-3.359.316.316,0,1,1,.6.176,13.736,13.736,0,0,1-6.332,6.219c-.631.413-1.727.687-1.647,1.61.394,1.391,2.174,1.114,3.225.718,2.541-.977,4.623-2.814,6.716-4.5.3-.24.716.211.407.474-2.325,1.793-6.161,5.479-9.474,4.865" transform="translate(-2134.392 -2486.352)" fill="#c88666"/>
            <path id="Trazado_898556" data-name="Trazado 898556" d="M2298.549,2777.708a3.348,3.348,0,0,1-2.19-1.63h0c-.037-.108-.01-.252-.1-.33a.31.31,0,1,1,.6-.137c1.179,3.1,5.329.529,7.05-.792.494-.365.968-.756,1.448-1.139a.314.314,0,0,1,.366.51c-1.991,1.575-4.493,3.629-7.174,3.515" transform="translate(-2152.187 -2599.619)" fill="#c88666"/>
            <path id="Trazado_898557" data-name="Trazado 898557" d="M2336.308,2821.478a5.546,5.546,0,0,1-2.374-.668.3.3,0,0,1,.406-.439,5.627,5.627,0,0,0,2.479.491,5.886,5.886,0,0,0,2.356-.951c.372-.127.925-.843,1.282-.508.371.512-.672.783-.935,1.031a5.439,5.439,0,0,1-3.215,1.044" transform="translate(-2187.428 -2642.438)" fill="#c88666"/>
            <path id="Trazado_898558" data-name="Trazado 898558" d="M2571.006,1557.089c-.679-.015-1.765-.113-1.507-1.066.2-.964.491-1.92.669-2.881a22.866,22.866,0,0,0-14.163-2.173,6.1,6.1,0,0,1-2.029.232c.031-.195.054-.391.078-.587a3.682,3.682,0,0,0,1.211-.12,23.791,23.791,0,0,1,11.779.7c1.5.446,6.815,2.528,6.218,4.474-.155.2-.448.6-.571.769a2,2,0,0,1-1.685.655" transform="translate(-2393.746 -1452.795)" fill="#c16664"/>
            <path id="Trazado_898559" data-name="Trazado 898559" d="M2548.261,1555.019c.018-.267.033-.534.049-.8a.554.554,0,0,0,.061.109c-.027.234-.052.468-.091.7l-.019-.008" transform="translate(-2388.39 -1456.711)" fill="#c16664"/>
            <path id="Trazado_898560" data-name="Trazado 898560" d="M2522.4,1404.465v0" transform="translate(-2364.149 -1316.353)" fill="#c16664"/>
            <path id="Trazado_898561" data-name="Trazado 898561" d="M2522.45,1404.346h0" transform="translate(-2364.198 -1316.241)" fill="#c16664"/>
            <path id="Trazado_898562" data-name="Trazado 898562" d="M2522.459,1404.316h0" transform="translate(-2364.207 -1316.213)" fill="#c16664"/>
            <path id="Trazado_898563" data-name="Trazado 898563" d="M2517.014,1393.259a.309.309,0,0,1,.2-.29c-.051.167-.105.334-.158.5-.014-.07-.028-.141-.042-.211" transform="translate(-2359.104 -1305.578)" fill="#c16664"/>
            <path id="Trazado_898564" data-name="Trazado 898564" d="M2294.232,1205.583q.293.006.586.005-.4.253-.794.508a.3.3,0,0,1,.208-.513" transform="translate(-2150.029 -1129.948)" fill="#c16664"/>
            <path id="Trazado_898565" data-name="Trazado 898565" d="M2546.686,1415.391c-1.511-.017-.184-2.541-.086-3.364.609-2.251,1.351-4.463,1.986-6.706.108-.368.708-.229.606.159-.81,3.1-2.078,6.144-2.581,9.306.561-.07.657.663.074.6" transform="translate(-2386.241 -1316.954)" fill="#c16664"/>
            <path id="Trazado_898566" data-name="Trazado 898566" d="M1953.722,1422.869c.457,1.215,4.657,6.115,1.76,6.045-4,.372-8.481-1.656-9.843-5.628-1.232-3.394-1.3-9.589,1.4-12.254a.312.312,0,0,1,.372.423c1.042-.418,1.317,1.467,1.639,2.115a52.718,52.718,0,0,0,4.669,9.3" transform="translate(-1822.809 -1322.495)" fill="#c16664"/>
            <path id="Trazado_898567" data-name="Trazado 898567" d="M2085.5,811.7c1.554.711-.069,3.517-.716,4.51-2.2,3.41-6.376,5.1-10.426,5.441a13.424,13.424,0,0,1-6.368-.822c-1.522-.722-4.8-1.22-4.969-3.129.064-.544.587-.83.87-1.261,2.329-3.851-.066-8.484-1.628-12.167-2.043-3.99,4.705-3.8,6.986-4.935a31.172,31.172,0,0,0,5.513-2.56,10.758,10.758,0,0,1,2.62-1.323c.385-.228.93.094.8.524-.743,5.632.173,15.137,7.32,15.722" transform="translate(-1932.527 -745.479)" fill="#ffbd9d"/>
            <path id="Trazado_898568" data-name="Trazado 898568" d="M2081.8,829.825c.76.136.241,1.183.249,1.7a11.366,11.366,0,0,1-10,10.526c-3.4-.005-4-3.034-5.083-5.193-1.637-2.931,3.551-2.8,5.307-3.626a32.368,32.368,0,0,0,4.931-1.778c1.255-.485,2.491-1.812,3.9-1.278a.665.665,0,0,1,.7-.346" transform="translate(-1936.995 -777.757)" fill="#c88666"/>
            <path id="Trazado_898569" data-name="Trazado 898569" d="M1886.927,379.106c1.159,1.958,1.279,10.288-2.332,9.658-.813.261-.784,1.758-.986,2.44a15.167,15.167,0,0,1-2.476,5.389c-1.979,2.677-4.135,5.99-7.563,6.833a16.006,16.006,0,0,1-12.488-4.886,11.347,11.347,0,0,1-1.3-1.826c-.29-.4-.6-1.52-1.245-1.247-2.5,1.037-6.162-6.464-5.815-8.56.1-2.38,1.619-2.611,2.937-.752a25.364,25.364,0,0,1,.067-10.955c2.1-6.918,12-10.957,18.293-7.095h0c4.381,2.054,6.84,7.2,8.545,11.912a.316.316,0,0,1,.061,0c.367-2.186,3.187-3.146,4.3-.918" transform="translate(-1736.463 -343.608)" fill="#ffbd9d"/>
            <path id="Trazado_898570" data-name="Trazado 898570" d="M2084.412,840.663c.144,1.037-5.869,1.35-6.835,1.516-.344-.023-.862.333-1.062-.082-.138-.471.5-.446.8-.507.8-.1,1.627-.158,2.425-.253a18.394,18.394,0,0,0,4.272-.868.323.323,0,0,1,.4.193" transform="translate(-1946.223 -787.726)" fill="#c88666"/>
            <path id="Trazado_898571" data-name="Trazado 898571" d="M2134.949,870.5c.363-.13.6.443.224.582a2.653,2.653,0,0,1-.967.285.318.318,0,0,1-.165-.522c.283-.149.618-.194.908-.345" transform="translate(-2000.077 -815.873)" fill="#c88666"/>
            <path id="Trazado_898572" data-name="Trazado 898572" d="M2081.16,693.914a2.445,2.445,0,0,0,1.1.555c-1.271,1.5-3.977.18-3.31-1.716a5.785,5.785,0,0,0,.26-3.579c.473,1,.645,2.117,1.019,3.144.3.538.621,1.078.927,1.6" transform="translate(-1948.428 -645.936)" fill="#c88666"/>
            <path id="Trazado_898573" data-name="Trazado 898573" d="M2157.743,756.742a.6.6,0,0,1,.64.1,1.653,1.653,0,0,1-1.516.539c-.014-.009.031-.008.039-.015h0c.337-.141.463-.526.838-.629" transform="translate(-2021.549 -709.224)" fill="#c88666"/>
            <path id="Trazado_898574" data-name="Trazado 898574" d="M2357.734,585.944c.19.473-.061.95-.06,1.407-.077.411.447,2.714-.285,2.43-.143-.242.008-.537-.017-.8-.007-.587-.15-1.181-.1-1.774.03-.466.409-1.333-.335-1.452-.1.272-.538.087-.367-.163.326-.438,1.038-.062,1.166.349" transform="translate(-2208.687 -548.673)" fill="#c88666"/>
            <path id="Trazado_898575" data-name="Trazado 898575" d="M1874.625,689.646c.173.249-.154.509-.32.27-.086-.119-.179-.268-.318-.292-.336.77.3,1.583.491,2.289.149.494-.15.671-.374.179a16.119,16.119,0,0,1-.585-1.644c-.26-1,.443-1.847,1.106-.8" transform="translate(-1755.928 -645.93)" fill="#c88666"/>
            <path id="Trazado_898576" data-name="Trazado 898576" d="M2177.041,595.891c.435.361-.052.907-.5,1.327.545-.366,1.206.406.556.745a5.641,5.641,0,0,1-1.981.355,4.62,4.62,0,0,1-2,.632c-.553.007-2.477.209-2.339-.668.079-.339.467-.362.733-.262,4.038.711,4.687-2.832,5.525-2.128" transform="translate(-2034.588 -558.419)" fill="#100c1f"/>
            <path id="Trazado_898577" data-name="Trazado 898577" d="M1941.73,674.044c-.219.521.464.781,1.051.948-.653-.073-.883.917-.15.918a5.64,5.64,0,0,0,1.921-.6,4.624,4.624,0,0,0,2.064-.361c.494-.249,2.294-.957,1.767-1.672-.227-.264-.581-.106-.771.105-3.254,2.493-5.465-.35-5.883.661" transform="translate(-1819.872 -630.908)" fill="#100c1f"/>
            <path id="Trazado_898578" data-name="Trazado 898578" d="M2146.7,533.093c.042,2.1-2.694,1.669-4.1,1.844-.852.166-1.65.519-2.5.612-1.67,0-1.64-1.827-.459-2.635,1.206-.969,6.548-1.768,7.052.18" transform="translate(-2004.623 -498.527)" fill="#592b44"/>
            <path id="Trazado_898579" data-name="Trazado 898579" d="M1929.214,582.7c1.424.183,2.3,1.8.815,2.549-.792.3-1.663.35-2.495.586-1.126.359-2.182,1.3-3.423,1.055a1.279,1.279,0,0,1-1.08-.833c-.28-1.37,1.518-2.07,2.518-2.564a6.96,6.96,0,0,1,3.664-.793" transform="translate(-1802.359 -546.096)" fill="#592b44"/>
            <path id="Trazado_898580" data-name="Trazado 898580" d="M1814.273,729.551c1.329,4.278,1.346,9.259-1.976,12.6-3.867,4.91-8.787,4.565-12.271-.617-5.807-4.244-7.214-12.352-6.082-19.09,3.46-29.633-9.26-25.571-12.656-41.412-.74-3.571.953-7.083,4.514-3.64a86.432,86.432,0,0,1,5.3,6.9c1.186,1.657,1.966,3.588,3.125,5.244,1.623,2.244,3.458,1.829,4.4,4.99.745,2.57.962,5.272,1.816,7.791,3.326,9.7,10.988,17.318,13.834,27.232" transform="translate(-1669.375 -633.575)" fill="#ffbd9d"/>
            <path id="Trazado_898581" data-name="Trazado 898581" d="M1877.14,747.831a12.993,12.993,0,0,0-2.478-3.143,31.794,31.794,0,0,1-2.32-3.1c-1.751-2.454-2.918-5.419-4.882-7.7-.685-.419-.288.766-.109,1.022.23.3-.145.718-.426.469a2.448,2.448,0,0,1-.458-1.434.8.8,0,0,1,1.207-.691,5.017,5.017,0,0,1,1.244,1.479c2.122,3.4,3.963,7.159,6.716,10.087a9.748,9.748,0,0,1,2.043,2.71c.173.348-.338.7-.537.3" transform="translate(-1749.368 -687.129)" fill="#c88666"/>
            <path id="Trazado_898582" data-name="Trazado 898582" d="M1790.879,686.7a18.206,18.206,0,0,1-2.8-9.944c.086-1.338,1.3-2.826,2.626-2.246,1.291.842,2.263,3.324,2.914,4.757.308.531-.478.758-.609.152-.118-.265-.228-.534-.346-.8-.491-.9-1.633-4.012-2.858-3.548-1.235.587-1.217,2.137-1.079,3.4a19.3,19.3,0,0,0,1.073,4.619,17.036,17.036,0,0,0,1.6,3.265.31.31,0,1,1-.516.344" transform="translate(-1675.889 -632.074)" fill="#c88666"/>
            <path id="Trazado_898583" data-name="Trazado 898583" d="M1810.626,685.16c-1.727-2.833-3.141-6.281-2.807-9.662a.308.308,0,0,1,.55.086,15.738,15.738,0,0,0,1.486,6.9c.4.808.83,1.572,1.287,2.336a.31.31,0,1,1-.516.344" transform="translate(-1694.355 -632.992)" fill="#c88666"/>
            <path id="Trazado_898584" data-name="Trazado 898584" d="M1849.735,274.809a13.93,13.93,0,0,1,3.117,12.523c-.113.379-.272,1.115-.825.982-.4-.211-.356-.8-.49-1.172-1.7-6.978-10.4-9.8-17.248-8.845-7.659,1.2-10.815,9.794-10.355,16.585.2.131.394.391.121.572a.32.32,0,0,1-.619.088c-.034-.123-.063-.248-.088-.374-9.419-9.387,1.489-24.246,13.3-23.226,4.922-1,9.379-.955,13.089,2.867" transform="translate(-1705.613 -254.365)" fill="#592b44"/>
            <path id="Trazado_898585" data-name="Trazado 898585" d="M1871.343,284.629c2.45,3.327,4.189,8.487,3.192,12.59-1.43,4.77-4.029-2.262-5.014-3.739-2.409-4.115-8.951-1.833-10.7-6.714-1.223,7.951-3.328,6.509-8.442,11.341a8.67,8.67,0,0,0-2.376,4.812c-.086.606-.322,1.8-1.174,1.3-3.324-3.119-3.914-8.282-3.029-12.562,2.151-12.064,20.149-17.533,27.537-7.032" transform="translate(-1727.784 -261.549)" fill="#915074"/>
            <path id="Trazado_898586" data-name="Trazado 898586" d="M1913.914,353.07c-.62-.116.246-1.514.353-1.876,4.178-7.306,10.276-6.187,10.352-17.631-.224-.353.106-.748.47-.472.636,3.045-.759,7.461-2.477,10.026-1.7,2.273-4.266,3.769-6.139,5.861a10.819,10.819,0,0,0-2.166,3.819.324.324,0,0,1-.393.274" transform="translate(-1793.633 -312.107)" fill="#592b44"/>
            <path id="Trazado_898587" data-name="Trazado 898587" d="M1987.109,395.256c-.391-.369.31-.812.445-1.16a19.586,19.586,0,0,0,2.738-5.982.31.31,0,0,1,.375-.218c1.093.045-2.858,8.091-3.558,7.36" transform="translate(-1862.334 -363.552)" fill="#592b44"/>
            <path id="Trazado_898588" data-name="Trazado 898588" d="M1928.9,2233.962c.408.387-.21,1.05-.62.663-.351-.582-2.064-1.537-1.431-2.22.634-.478,1.516,1.213,2.051,1.557" transform="translate(-1805.831 -2092.271)" fill="#aea9a9"/>
            <path id="Trazado_898589" data-name="Trazado 898589" d="M1769.3,1715.414a.485.485,0,0,1-.223.031.427.427,0,0,0,.223-.031m3.745,27.565c6.022,10.117-14.809-13.524-4.525-27.92.213-.5,1.122-.762,1.068.013-6.156,8.623-2,20.019,3.456,27.907" transform="translate(-1654.846 -1607.015)" fill="#aea9a9"/>
            <path id="Trazado_898590" data-name="Trazado 898590" d="M2698.481,2130.118c.844-.515,1.222.571.187.954-8.293,5.375-16.278,11.346-22.964,18.659-.555.4-.953,1.73-1.721,1.474-1.108-.517,3.235-4.187,3.723-4.85a122.646,122.646,0,0,1,20.774-16.237" transform="translate(-2506.056 -1996.353)" fill="#aea9a9"/>
            <path id="Trazado_898591" data-name="Trazado 898591" d="M2740,1134.511a6.515,6.515,0,0,0-2.438-3.4c-.95-.233-.189-1.261.54-.712a7.424,7.424,0,0,1,2.735,3.778c.224.53-.623.849-.837.337" transform="translate(-2565.402 -1059.329)" fill="#c16664"/>
            <path id="Trazado_898592" data-name="Trazado 898592" d="M2414.263,1109.39c-.428-.761,1.063-1.128,1.427-1.67a13.626,13.626,0,0,0,2.284-2.751c.431-.478.51-1.452,1.184-1.615a.467.467,0,0,1,.3.832c-.487,1.173-3.888,5.985-5.194,5.2" transform="translate(-2262.727 -1034.132)" fill="#c16664"/>
          </g>
        </g>
      </g>
    </g>
  </g>
</svg>
