<svg xmlns="http://www.w3.org/2000/svg" xmlns:xlink="http://www.w3.org/1999/xlink" width="74" height="74" viewBox="0 0 74 74">
  <defs>
    <clipPath id="clip-path">
      <rect id="Rectángulo_402768" data-name="Rectángulo 402768" width="54.949" height="41.143" fill="#4a6b7a"/>
    </clipPath>
  </defs>
  <g id="Grupo_1107999" data-name="Grupo 1107999" transform="translate(-1078.051 -3678)">
    <circle id="Elipse_14866" data-name="Elipse 14866" cx="37" cy="37" r="37" transform="translate(1078.051 3678)" fill="#fefae9"/>
    <g id="Grupo_1107998" data-name="Grupo 1107998" transform="translate(1090.576 3695.913)">
      <g id="Grupo_1107997" data-name="Grupo 1107997" clip-path="url(#clip-path)">
        <path id="Trazado_898171" data-name="Trazado 898171" d="M41.933,18.713a.183.183,0,1,0-.181-.182.183.183,0,0,0,.181.182m0,1.557a1.74,1.74,0,1,1,1.74-1.739,1.744,1.744,0,0,1-1.74,1.739M41.751,7.392v7.191a.182.182,0,1,0,.365,0V7.392a.182.182,0,0,0-.365,0m-1.557,0a1.739,1.739,0,1,1,3.478,0v7.191a1.739,1.739,0,1,1-3.478,0Zm2.64-5.314a1.04,1.04,0,0,0-1.8,0h0L30.627,20.1a1.042,1.042,0,0,0,.9,1.564H52.341a1.012,1.012,0,0,0,.9-.52h0a1.02,1.02,0,0,0,0-1.041h0L42.835,2.078ZM44.184,1.3h0L54.589,19.322a2.6,2.6,0,0,1-2.249,3.9H31.527a2.6,2.6,0,0,1-2.251-3.9h0L39.682,1.3a2.6,2.6,0,0,1,4.5,0M16.422,17.513a4.15,4.15,0,1,0,4.15-4.149,4.15,4.15,0,0,0-4.15,4.149m-1.557,0a5.707,5.707,0,1,1,5.707,5.708,5.706,5.706,0,0,1-5.707-5.708M11.109,37.064a19.015,19.015,0,0,0,18.9.017,1.727,1.727,0,0,0,.453-1.133,9.886,9.886,0,1,0-19.772,0,1.742,1.742,0,0,0,.422,1.116m20.9-1.308a19.053,19.053,0,0,0,6.81-9.84.779.779,0,0,1,1.495.438A20.58,20.58,0,1,1,32.666,3.933l-.778-2.566A.778.778,0,1,1,33.375.914l1.535,5.05a.779.779,0,0,1-.772,1l-4.975-.183a.779.779,0,1,1,.057-1.556l2.715.1A19.013,19.013,0,0,0,9.13,35.756a11.443,11.443,0,0,1,22.883,0" fill="#4a6b7a" fill-rule="evenodd"/>
      </g>
    </g>
  </g>
</svg>
