<svg xmlns="http://www.w3.org/2000/svg" width="120" height="120" viewBox="0 0 120 120">
  <g id="Grupo_1107890" data-name="Grupo 1107890" transform="translate(-845.051 -812)">
    <circle id="Elipse_14837" data-name="Elipse 14837" cx="60" cy="60" r="60" transform="translate(845.051 812)" fill="#d2e1f1"/>
    <g id="manzana" transform="translate(867.05 831.177)">
      <path id="Trazado_898117" data-name="Trazado 898117" d="M427.912,10.264v27.23H415.2V10.264A2.764,2.764,0,0,1,417.959,7.5h7.188A2.764,2.764,0,0,1,427.912,10.264Z" transform="translate(-356.073 -6.432)" fill="#eacc8f"/>
      <path id="Trazado_898118" data-name="Trazado 898118" d="M422.106,10.264v27.23H415.2V10.264A2.764,2.764,0,0,1,417.959,7.5h6.911A2.764,2.764,0,0,0,422.106,10.264Z" transform="translate(-356.073 -6.432)" fill="#d8b77c"/>
      <path id="Trazado_898119" data-name="Trazado 898119" d="M247.29,7.5a2.764,2.764,0,0,0-2.764,2.764V66.71a1.608,1.608,0,0,1-1.608,1.608h0a1.608,1.608,0,0,1-1.354-.741l-.173-.27a2.534,2.534,0,0,0-4.269,0l-.173.27a1.608,1.608,0,0,1-1.354.741h-.452a1.608,1.608,0,0,1-1.354-.741h0a2.534,2.534,0,0,0-4.269,0h0a1.608,1.608,0,0,1-1.354.741h-.452a1.608,1.608,0,0,1-1.354-.741h0a2.534,2.534,0,0,0-4.269,0h0a1.608,1.608,0,0,1-1.354.741h-.452a1.608,1.608,0,0,1-1.354-.741l-.173-.27a2.534,2.534,0,0,0-4.269,0l-.173.27a1.608,1.608,0,0,1-1.354.741h0a1.608,1.608,0,0,1-1.608-1.608V10.264A2.764,2.764,0,0,1,214.118,7.5H247.29Z" transform="translate(-181.258 -6.432)" fill="#f9e1a2"/>
      <path id="Trazado_898120" data-name="Trazado 898120" d="M52.544,300.084,50.5,313.347a9.443,9.443,0,0,1-9.333,8.007h0a9.408,9.408,0,0,1-6.4-2.5,9.408,9.408,0,0,1-6.4,2.5h0a9.443,9.443,0,0,1-9.333-8.007l-2.041-13.263a7.933,7.933,0,0,1,7.841-9.139h1.076a11.869,11.869,0,0,1,8.859,3.956,11.869,11.869,0,0,1,8.859-3.956H44.7A7.933,7.933,0,0,1,52.544,300.084Z" transform="translate(-14.492 -249.516)" fill="#f24f43"/>
      <path id="Trazado_898121" data-name="Trazado 898121" d="M192.772,301.881l-2.041,13.263a9.443,9.443,0,0,1-9.333,8.007h0a9.539,9.539,0,0,1-.989-.053,10.9,10.9,0,0,0,5.889-8.087l2.356-15.315a9.105,9.105,0,0,0-1.558-6.656A7.937,7.937,0,0,1,192.772,301.881Z" transform="translate(-154.721 -251.313)" fill="#ed322e"/>
      <path id="Trazado_898122" data-name="Trazado 898122" d="M23.672,155.37h0a8.086,8.086,0,0,1-8.086,8.086h0A8.086,8.086,0,0,1,7.5,155.37v-8.086h8.086A8.086,8.086,0,0,1,23.672,155.37Z" transform="translate(-6.432 -126.311)" fill="#8eb55e"/>
      <path id="Trazado_898123" data-name="Trazado 898123" d="M51.834,29.4A1.068,1.068,0,0,1,52.9,28.336h1.005V27.33a1.068,1.068,0,0,1,2.136,0v1.005h1.005a1.068,1.068,0,1,1,0,2.136H56.043v1.005a1.068,1.068,0,0,1-2.136,0V30.472H52.9A1.068,1.068,0,0,1,51.834,29.4Zm-7.917,2.388H35.624a1.068,1.068,0,0,0,0,2.136h8.293a1.068,1.068,0,0,0,0-2.136Zm4.461,21.041v.138a1.068,1.068,0,0,0,2.136,0v-.138a1.068,1.068,0,0,0-2.136,0ZM30.095,38.419a1.068,1.068,0,0,0,1.068-1.068V3.832a1.7,1.7,0,0,1,1.7-1.7H53.823a1.068,1.068,0,0,0,0-2.136H32.859a3.837,3.837,0,0,0-3.832,3.832V37.351A1.068,1.068,0,0,0,30.095,38.419Zm27.645,15.62a1.068,1.068,0,0,0,1.068-1.068v-.138a1.068,1.068,0,1,0-2.136,0v.138A1.068,1.068,0,0,0,57.739,54.039ZM54.975,16.587a1.068,1.068,0,0,0-1.068,1.068V18.66H52.9a1.068,1.068,0,1,0,0,2.136h1.005V21.8a1.068,1.068,0,0,0,2.136,0V20.8h1.005a1.068,1.068,0,1,0,0-2.136H56.043V17.655A1.068,1.068,0,0,0,54.975,16.587Zm1.068,24.566V40.147h1.005a1.068,1.068,0,1,0,0-2.136H56.043V37.006a1.068,1.068,0,1,0-2.136,0v1.005H52.9a1.068,1.068,0,0,0,0,2.136h1.005v1.005a1.068,1.068,0,1,0,2.136,0ZM53.907,7.979V8.985H52.9a1.068,1.068,0,0,0,0,2.136h1.005v1.005a1.068,1.068,0,0,0,2.136,0V11.12h1.005a1.068,1.068,0,0,0,0-2.136H56.043V7.979a1.068,1.068,0,0,0-2.136,0ZM52.525,52.833v.138a1.068,1.068,0,0,0,2.136,0v-.138a1.068,1.068,0,0,0-2.136,0ZM69.074,0H57.647a1.068,1.068,0,1,0,0,2.136H62.6a3.81,3.81,0,0,0-.4,1.7V60.278a.54.54,0,0,1-.995.291l-.173-.27a3.6,3.6,0,0,0-6.069,0l-.172.27a.538.538,0,0,1-.455.249h-.452a.537.537,0,0,1-.455-.249,3.6,3.6,0,0,0-6.068,0,.538.538,0,0,1-.455.249h-.452A.537.537,0,0,1,46,60.569a3.6,3.6,0,0,0-6.068,0,.538.538,0,0,1-.455.249,1.068,1.068,0,0,0,0,2.136,2.665,2.665,0,0,0,2.254-1.233,1.466,1.466,0,0,1,2.47,0,2.664,2.664,0,0,0,2.254,1.234h.452a2.664,2.664,0,0,0,2.254-1.233,1.466,1.466,0,0,1,2.47,0,2.664,2.664,0,0,0,2.254,1.234h.452a2.665,2.665,0,0,0,2.254-1.234l.173-.27a1.466,1.466,0,0,1,2.47,0l.173.27a2.676,2.676,0,0,0,4.93-1.442V3.832a1.7,1.7,0,0,1,1.7-1.7h3.041a1.7,1.7,0,0,1,1.7,1.7V29.995H66.724a1.068,1.068,0,1,0,0,2.136h5.114a1.068,1.068,0,0,0,1.068-1.068V3.832A3.837,3.837,0,0,0,69.074,0ZM46.682,8.985H35.624a1.068,1.068,0,0,0,0,2.136H46.682a1.068,1.068,0,1,0,0-2.136ZM35.624,14.576h5.529a1.068,1.068,0,0,0,0-2.136H35.624a1.068,1.068,0,0,0,0,2.136Zm3.484,36.155L37.067,63.994A10.517,10.517,0,0,1,23.3,72.35a1.068,1.068,0,1,1,.687-2.022,8.381,8.381,0,0,0,10.97-6.659L37,50.406A6.865,6.865,0,0,0,30.211,42.5H29.135a10.849,10.849,0,0,0-8.064,3.6,1.068,1.068,0,0,1-1.59,0,10.849,10.849,0,0,0-8.064-3.6H10.341a6.865,6.865,0,0,0-6.785,7.909L5.6,63.669a8.373,8.373,0,0,0,13.956,4.88A1.068,1.068,0,0,1,21,70.119,10.51,10.51,0,0,1,3.485,63.994L1.445,50.731a9,9,0,0,1,8.9-10.369h1.076a12.985,12.985,0,0,1,7.824,2.629l.022-2.312-4.439-4.439A9.149,9.149,0,0,1,0,29.058V20.972A1.068,1.068,0,0,1,1.068,19.9H9.154a9.149,9.149,0,0,1,7.181,14.825l2.957,2.957.06-6.219a3.832,3.832,0,0,1,7.665.01,1.068,1.068,0,1,1-2.136,0,1.7,1.7,0,1,0-3.393,0l-.11,11.463a12.986,12.986,0,0,1,7.758-2.578h1.076a9,9,0,0,1,8.9,10.369ZM16.172,29.058A7.026,7.026,0,0,0,9.154,22.04H2.136v7.018A7.015,7.015,0,0,0,13.3,34.716L5.289,26.7a1.068,1.068,0,1,1,1.51-1.51l8.013,8.013A6.981,6.981,0,0,0,16.172,29.058ZM5.666,49.724a1.068,1.068,0,1,0,2.136,0,3.082,3.082,0,0,1,3.079-3.079,1.068,1.068,0,1,0,0-2.136A5.221,5.221,0,0,0,5.666,49.724ZM35.624,24.252h5.529a1.068,1.068,0,1,0,0-2.136H35.624a1.068,1.068,0,1,0,0,2.136ZM47.75,29.4a1.068,1.068,0,0,0-1.068-1.068H35.624a1.068,1.068,0,0,0,0,2.136H46.682A1.068,1.068,0,0,0,47.75,29.4ZM46.682,18.66H35.624a1.068,1.068,0,0,0,0,2.136H46.682a1.068,1.068,0,1,0,0-2.136ZM43.917,38.011H35.624a1.068,1.068,0,0,0,0,2.136h8.293a1.068,1.068,0,0,0,0-2.136Z"/>
    </g>
  </g>
</svg>
