<svg xmlns="http://www.w3.org/2000/svg" width="120" height="120" viewBox="0 0 120 120">
  <g id="Grupo_1108164" data-name="Grupo 1108164" transform="translate(-268.051 -7512)">
    <circle id="Elipse_14835" data-name="Elipse 14835" cx="60" cy="60" r="60" transform="translate(268.051 7512)" fill="#d2e1f1"/>
    <path id="Trazado_898384" data-name="Trazado 898384" d="M36.89,73.266a3.74,3.74,0,0,0,3.74,3.74H50.6a3.74,3.74,0,0,0,3.74-3.74V34.326H36.89Z" transform="translate(282.69 7515.903)" fill="#dff6fd"/>
    <rect id="Rectángulo_402889" data-name="Rectángulo 402889" width="6.538" height="10.886" transform="translate(325.038 7534.035)" fill="#dff6fd"/>
    <path id="Trazado_898385" data-name="Trazado 898385" d="M51.544,91.386l-1.067,9.71H43.6l-1.067-9.71Z" transform="translate(281.268 7501.523)" fill="#99e6fc"/>
    <path id="Trazado_898386" data-name="Trazado 898386" d="M53.885,11.071H37.811V8.177a1.87,1.87,0,0,1,1.87-1.87H52.015a1.87,1.87,0,0,1,1.87,1.87Z" transform="translate(282.458 7522.964)" fill="#99e6fc"/>
    <path id="Trazado_898387" data-name="Trazado 898387" d="M52.922,32.538H35.468L31.247,27.23H57.142Z" transform="translate(284.113 7517.691)" fill="#99e6fc"/>
    <g id="Grupo_1108156" data-name="Grupo 1108156" transform="translate(314.051 7527.962)">
      <path id="Trazado_898388" data-name="Trazado 898388" d="M36.449,56.854a1.31,1.31,0,0,0,1.309-1.309V52.179a1.309,1.309,0,0,0-2.618,0v3.366A1.309,1.309,0,0,0,36.449,56.854Z" transform="translate(-30.919 -16.228)"/>
      <path id="Trazado_898389" data-name="Trazado 898389" d="M45.971,80.842h3.207a1.309,1.309,0,1,0,0-2.618H45.971a1.309,1.309,0,1,0,0,2.618Z" transform="translate(-33.319 -23.122)"/>
      <path id="Trazado_898390" data-name="Trazado 898390" d="M45.971,69.43h3.207a1.309,1.309,0,1,0,0-2.618H45.971a1.309,1.309,0,1,0,0,2.618Z" transform="translate(-33.319 -20.246)"/>
      <path id="Trazado_898391" data-name="Trazado 898391" d="M45.971,58.018h3.207a1.309,1.309,0,1,0,0-2.618H45.971a1.309,1.309,0,1,0,0,2.618Z" transform="translate(-33.319 -17.37)"/>
      <path id="Trazado_898392" data-name="Trazado 898392" d="M45.971,46.606h3.207a1.309,1.309,0,0,0,0-2.618H45.971a1.309,1.309,0,0,0,0,2.618Z" transform="translate(-33.319 -14.494)"/>
      <path id="Trazado_898393" data-name="Trazado 898393" d="M57.725,22.331A1.309,1.309,0,0,0,56.7,20.207H48.331V11.939h3.458A1.309,1.309,0,0,0,53.1,10.63V7.736a3.183,3.183,0,0,0-3.179-3.179H37.586a3.183,3.183,0,0,0-3.179,3.179V10.63a1.31,1.31,0,0,0,1.309,1.309h3.459v8.268H30.806a1.309,1.309,0,0,0-1.025,2.124l3.937,4.951v6a1.309,1.309,0,1,0,2.618,0V28.133H51.172V65.764A2.434,2.434,0,0,1,48.741,68.2H38.767a2.434,2.434,0,0,1-2.431-2.431V50.783a1.309,1.309,0,0,0-2.618,0V65.764a5.053,5.053,0,0,0,4.352,5l.945,8.6a1.308,1.308,0,0,0,1.3,1.166h2.129v11.65a1.309,1.309,0,0,0,2.618,0V80.524h2.128a1.31,1.31,0,0,0,1.3-1.166l.945-8.6a5.053,5.053,0,0,0,4.353-5V27.282ZM41.489,77.907l-.779-7.092H46.8l-.779,7.092ZM37.025,7.736a.562.562,0,0,1,.561-.561H49.919a.562.562,0,0,1,.561.561V9.321H37.025Zm4.768,4.2h3.92v8.268h-3.92ZM53.985,22.825l-2.139,2.693H35.658l-2.139-2.693Z" transform="translate(-29.497 -4.557)"/>
    </g>
  </g>
</svg>
