<svg xmlns="http://www.w3.org/2000/svg" width="120" height="120" viewBox="0 0 120 120">
  <g id="Grupo_1108023" data-name="Grupo 1108023" transform="translate(-1213.051 -4927)">
    <g id="Grupo_1108014" data-name="Grupo 1108014" transform="translate(158 4115)">
      <circle id="Elipse_14838" data-name="Elipse 14838" cx="60" cy="60" r="60" transform="translate(1055.051 812)" fill="#d2e1f1"/>
    </g>
    <g id="brain" transform="translate(1227.879 4952)">
      <path id="Trazado_898218" data-name="Trazado 898218" d="M84.044,49.132a9.186,9.186,0,0,1-7.353,9,8.544,8.544,0,0,1-8.3,10.585c-.285,0-.564-.015-.842-.042a7.818,7.818,0,0,1-15.523-1.323A7.818,7.818,0,0,1,36.5,68.675c-.278.027-.557.042-.842.042A8.542,8.542,0,0,1,27.282,58.5c.023-.123.052-.244.081-.364A9.184,9.184,0,0,1,24.084,41.5a9.183,9.183,0,0,1,3.279-16.629,8.545,8.545,0,0,1,8.3-10.587c.285,0,.564.015.842.042a7.818,7.818,0,0,1,15.523,1.323A7.818,7.818,0,0,1,67.55,14.328c.278-.027.557-.042.842-.042a8.545,8.545,0,0,1,8.3,10.587A9.183,9.183,0,0,1,79.97,41.5,9.176,9.176,0,0,1,84.044,49.132Z" transform="translate(-6.775 -6.77)" fill="#f90"/>
      <g id="Grupo_1108022" data-name="Grupo 1108022" transform="translate(14.405 20.278)">
        <path id="Trazado_898219" data-name="Trazado 898219" d="M36.645,258.107s-.963,2.912-8.012,1.592a9.187,9.187,0,0,1,2.781-3.057l.261.005A9.155,9.155,0,0,0,36.645,258.107Z" transform="translate(-28.633 -242.101)" fill="#f80"/>
        <path id="Trazado_898220" data-name="Trazado 898220" d="M73.718,360.607c-.384.039-.734.066-1.052.081a8.537,8.537,0,0,1-.114-3.852c.264-.187.436-.3.436-.3a9.461,9.461,0,0,0,1.473.116A9.167,9.167,0,0,0,81.792,353S82.051,359.765,73.718,360.607Z" transform="translate(-66.449 -325.388)" fill="#f80"/>
        <path id="Trazado_898221" data-name="Trazado 898221" d="M256,372.972a6.457,6.457,0,0,0,9.231-5.523s1.319,10.664-9.231,10.664Z" transform="translate(-225.153 -337.874)" fill="#f80"/>
        <path id="Trazado_898222" data-name="Trazado 898222" d="M257.692,439.159a7.818,7.818,0,0,0,15.293-.559h-.018a8.527,8.527,0,0,1-5.483-2.776s-.562,2.639.7,4.238C268.184,440.061,263.871,443.833,257.692,439.159Z" transform="translate(-226.615 -396.972)" fill="#f80"/>
        <path id="Trazado_898223" data-name="Trazado 898223" d="M432.41,259.4a9.229,9.229,0,0,0-2.966-3.286l-.112.043a9.139,9.139,0,0,1-5.019,1.492s1.859,2.758,7.414,1.874C431.965,259.488,432.19,259.447,432.41,259.4Z" transform="translate(-370.631 -241.647)" fill="#f80"/>
        <path id="Trazado_898224" data-name="Trazado 898224" d="M364.553,321.445l-.278-.157a9.19,9.19,0,0,1-10.775-9.044s-4,12.026,10.775,13.541l.106.011a8.49,8.49,0,0,0,.172-4.35Z" transform="translate(-308.999 -290.159)" fill="#f80"/>
        <path id="Trazado_898225" data-name="Trazado 898225" d="M172.38,154.841h-7.55a5.38,5.38,0,0,1-5.38-5.38v4.664a4.167,4.167,0,0,0,4.167,4.167h8.764Z" transform="translate(-141.701 -149.461)" fill="#f80"/>
        <path id="Trazado_898226" data-name="Trazado 898226" d="M183.107,296.693A8.37,8.37,0,0,1,171.86,293s.273,7.917,11.247,7.917v-4.226Z" transform="translate(-152.428 -273.528)" fill="#f80"/>
        <path id="Trazado_898227" data-name="Trazado 898227" d="M257.242,226.932a6.487,6.487,0,0,0,8.717,2.86,6.119,6.119,0,0,1-8.717,2.635Z" transform="translate(-226.226 -216.421)" fill="#f80"/>
      </g>
      <path id="Trazado_898228" data-name="Trazado 898228" d="M349.862,304.407a1.063,1.063,0,0,0-1.063,1.063,10.214,10.214,0,0,0,2.721,6.954,1.063,1.063,0,0,0,1.561-1.444,8.093,8.093,0,0,1-2.156-5.51A1.063,1.063,0,0,0,349.862,304.407Z" transform="translate(-290.956 -263.108)"/>
      <path id="Trazado_898229" data-name="Trazado 898229" d="M97.522,34.732a10.247,10.247,0,0,0-3.78-17.411,9.63,9.63,0,0,0-.539-4.664,1.063,1.063,0,1,0-1.988.754,7.452,7.452,0,0,1,.483,2.652,7.53,7.53,0,0,1-.216,1.787,1.063,1.063,0,0,0,.822,1.3,8.12,8.12,0,0,1,2.9,14.7l-.078.052a8.068,8.068,0,0,1-3.5,1.264,12.6,12.6,0,0,0,.487-1.317A12.319,12.319,0,0,0,91.2,24.4a1.063,1.063,0,1,0-1.877,1A10.272,10.272,0,0,1,85.079,39.3a1.063,1.063,0,1,0,1,1.877,12.341,12.341,0,0,0,4.352-3.859,1.066,1.066,0,0,0,.256.032,10.209,10.209,0,0,0,5.054-1.333A8.116,8.116,0,0,1,92.3,50.32l-.208.04a8.208,8.208,0,0,1-1.41.122,8.106,8.106,0,0,1-2.572-.416,1.063,1.063,0,0,0-.673,2.017,10.233,10.233,0,0,0,3.246.525c.322,0,.644-.016.964-.046a7.468,7.468,0,0,1-7.434,8.323c-.241,0-.754-.037-.755-.038a7.458,7.458,0,0,1-4.8-2.431,1.063,1.063,0,0,0-1.578,1.426,9.587,9.587,0,0,0,4.978,2.925,6.755,6.755,0,0,1-13.147-2.184V56.868a7.548,7.548,0,0,0,1.373.192c.119.006.236.008.353.008a7.526,7.526,0,0,0,7.5-7.167,1.063,1.063,0,0,0-2.124-.1,5.39,5.39,0,0,1-7.106,4.857V33.614a7.538,7.538,0,0,0,8.3.983,1.063,1.063,0,0,0-.96-1.9,5.424,5.424,0,0,1-7.288-2.392.945.945,0,0,1-.054-.12V8.881A6.755,6.755,0,0,1,82.062,6.7a9.656,9.656,0,0,0-7.43,8.7,7.516,7.516,0,0,0-4.35,2.988,1.063,1.063,0,1,0,1.742,1.22,5.43,5.43,0,0,1,7.554-1.332,1.063,1.063,0,0,0,1.22-1.742,7.5,7.5,0,0,0-4.009-1.354,7.513,7.513,0,0,1,6.381-6.527c.052-.007.806-.073,1.047-.073a7.5,7.5,0,0,1,4.755,1.7,1.063,1.063,0,1,0,1.352-1.641,9.627,9.627,0,0,0-6.107-2.19h0A8.881,8.881,0,0,0,67.851,4.671,8.889,8.889,0,0,0,57.583.342a1.063,1.063,0,1,0,.585,2.044,6.761,6.761,0,0,1,8.619,6.495V24.595H60.132a4.322,4.322,0,0,1-4.317-4.317V18.3a1.063,1.063,0,0,0-2.127,0v1.974a6.451,6.451,0,0,0,6.444,6.444h6.655V42.686a7.3,7.3,0,0,1-9.4-3.414,1.063,1.063,0,1,0-1.9.96,9.4,9.4,0,0,0,11.3,4.722V60.582A6.755,6.755,0,0,1,53.64,62.766a9.514,9.514,0,0,0,2.276-.836,1.063,1.063,0,1,0-.982-1.886,7.393,7.393,0,0,1-2.819.811c-.212.018-.424.029-.63.029a7.468,7.468,0,0,1-7.434-8.324c.32.03.642.047.963.047a10.17,10.17,0,0,0,8.179-4.074,1.063,1.063,0,0,0-1.7-1.282,8.061,8.061,0,0,1-6.482,3.229,8.219,8.219,0,0,1-1.3-.1c-.054-.009-.261-.047-.314-.058a8.131,8.131,0,0,1-3.363-1.546,1.063,1.063,0,1,0-1.306,1.678,10.284,10.284,0,0,0,3.231,1.69,9.608,9.608,0,0,0,9.527,10.868h0A8.881,8.881,0,0,0,67.85,64.793a8.881,8.881,0,0,0,16.362-1.782h0a9.608,9.608,0,0,0,9.527-10.868,10.248,10.248,0,0,0,3.781-17.411Z" transform="translate(-22.598)"/>
      <path id="Trazado_898230" data-name="Trazado 898230" d="M14.3,58.655a8.107,8.107,0,0,1,3.065-6.349,10.2,10.2,0,0,0,4.552,1.32,7.5,7.5,0,0,0,2.236,3.593,1.063,1.063,0,1,0,1.416-1.586,5.43,5.43,0,0,1-.433-7.658,1.063,1.063,0,0,0-1.586-1.416,7.516,7.516,0,0,0-1.913,4.917,8.072,8.072,0,0,1-3.614-1.252l-.122-.081a8.12,8.12,0,0,1,2.9-14.7c.053-.011.261-.049.315-.058a8.212,8.212,0,0,1,1.3-.1,1.063,1.063,0,1,0,0-2.127c-.322,0-.644.017-.963.047a7.468,7.468,0,0,1,7.434-8.324c.241,0,.813.044.825.045a7.509,7.509,0,0,1,5.657,3.7,1.063,1.063,0,1,0,1.84-1.065,9.656,9.656,0,0,0-6.167-4.558,6.74,6.74,0,0,1,1.4-2.361A1.063,1.063,0,0,0,30.865,19.2a8.857,8.857,0,0,0-1.975,3.548h0a9.608,9.608,0,0,0-9.527,10.868,10.247,10.247,0,0,0-3.78,17.411,10.253,10.253,0,0,0-2.407,12.054,1.063,1.063,0,0,0,1.918-.919A8.049,8.049,0,0,1,14.3,58.655Z" transform="translate(0 -16.293)"/>
    </g>
  </g>
</svg>
