<svg xmlns="http://www.w3.org/2000/svg" width="120" height="120" viewBox="0 0 120 120">
  <g id="Grupo_1108167" data-name="Grupo 1108167" transform="translate(-1213.051 -7512)">
    <g id="Grupo_1108155" data-name="Grupo 1108155" transform="translate(158 6700)">
      <circle id="Elipse_14838" data-name="Elipse 14838" cx="60" cy="60" r="60" transform="translate(1055.051 812)" fill="#d2e1f1"/>
    </g>
    <g id="Layer_25" transform="translate(1191.908 7508.407)">
      <path id="Trazado_898403" data-name="Trazado 898403" d="M105.552,16.762a3.819,3.819,0,1,0-5.056,5.725l.074.074A36.2,36.2,0,0,1,110.942,38.62c2.974,1.6,5.65,3.16,7.026,3.978a10.522,10.522,0,0,1,5.093,6.505C122.057,33.193,110.719,21.372,105.552,16.762Z" transform="translate(-25.228 -1.518)" fill="#f9d0b4"/>
      <path id="Trazado_898404" data-name="Trazado 898404" d="M87.395,36.128a3.817,3.817,0,0,0-3.606,6.728,32.73,32.73,0,0,1,5.093,3.383,5.942,5.942,0,0,1,2.676.52C93.9,47.8,97.06,49.473,100,51.071a40.422,40.422,0,0,0-4.833-9.851A71.617,71.617,0,0,0,87.395,36.128Z" transform="translate(-14.282 -14.007)" fill="#f9d0b4"/>
      <path id="Trazado_898405" data-name="Trazado 898405" d="M94.4,72.956c-2.714-1.561-10.743-6.134-15.464-8.253a6.04,6.04,0,0,0-6.617,1.115l-6.171,5.836a3.816,3.816,0,0,0,4.944,5.8l4.238-3.717a1.866,1.866,0,0,1,2.453.149,44.432,44.432,0,0,0,6.394,5.576h0s3.643,2.6.855,7.286l-.409.632c-.186.26-.26.372-.632.967a5.471,5.471,0,0,1-7.546,1.71c-.037-.037-.112-.074-.149-.112l-3.346-2.268c-1.413-1-2.6-1.9-3.085-3.346-1.041-3.011-3.271-7.732-6.654-6.245a2.646,2.646,0,0,0-1.487,2.9l1.71,9.256a4.4,4.4,0,0,0,1.97,2.937c2.714,1.784,7.955,5.688,7.955,9.442H89.119a11.071,11.071,0,0,1,8.587-13.085,29.316,29.316,0,0,1,1.338-3.569A10.345,10.345,0,0,0,94.4,72.956Z" transform="translate(-1.657 -31.913)" fill="#f9d0b4"/>
      <path id="Trazado_898406" data-name="Trazado 898406" d="M105.469,167.8H88.592a.9.9,0,0,0-.892.892v4.2h20.371A11.118,11.118,0,0,1,105.469,167.8Z" transform="translate(-18.008 -97.019)" fill="#e9e9ea"/>
      <path id="Trazado_898407" data-name="Trazado 898407" d="M105.018,181.5H83.792a.9.9,0,0,0-.892.892v24.944a.9.9,0,0,0,.892.892h27.657a.9.9,0,0,0,.892-.892V185.143A11.038,11.038,0,0,1,105.018,181.5Z" transform="translate(-14.992 -105.626)" fill="#55acd5"/>
      <circle id="Elipse_14879" data-name="Elipse 14879" cx="11.041" cy="11.041" r="11.041" transform="translate(87.238 57.473)" fill="#6dcc6d"/>
      <path id="Trazado_898408" data-name="Trazado 898408" d="M158.754,149.258a1.84,1.84,0,0,0-2.639,0l-5.279,5.279-1.636-1.784a1.875,1.875,0,0,0-2.639-.112,1.842,1.842,0,0,0-.112,2.639l2.937,3.2a1.875,1.875,0,0,0,2.639.112l.074-.074,6.654-6.654A1.863,1.863,0,0,0,158.754,149.258Z" transform="translate(-54.602 -85.019)" fill="#e9e9ea"/>
      <path id="Trazado_898412" data-name="Trazado 898412" d="M181.237,203.559a1.32,1.32,0,0,0-.149-.335c-.037-.037-.074-.112-.112-.149a.969.969,0,0,0-1.3,0,.513.513,0,0,0-.112.149.282.282,0,0,0-.074.149.335.335,0,0,0-.037.186.633.633,0,0,0,0,.372c0,.074.037.112.037.186.037.037.037.112.074.149s.074.112.112.149a.9.9,0,0,0,1.3,0h0a.513.513,0,0,0,.112-.149.282.282,0,0,0,.074-.149.279.279,0,0,0,.037-.186A.45.45,0,0,0,181.237,203.559Z" transform="translate(-75.635 -119.024)" fill="#231f20"/>
      <path id="Trazado_898415" data-name="Trazado 898415" d="M104.681,14.574A4.74,4.74,0,0,0,96.8,18.069a4.91,4.91,0,0,0,1.673,3.717,35.039,35.039,0,0,1,10.111,15.65.879.879,0,0,0,.446.52c2.714,1.487,5.427,3.011,7.026,3.94a9.574,9.574,0,0,1,4.647,5.948.976.976,0,0,0,1.152.669.961.961,0,0,0,.706-.967C121.446,31.191,109.662,19.035,104.681,14.574Zm12.23,25.687c-1.561-.892-4.089-2.342-6.728-3.792a36.583,36.583,0,0,0-10.52-16.1,2.971,2.971,0,0,1-1.041-2.268,2.928,2.928,0,0,1,2.937-2.862,2.613,2.613,0,0,1,1.859.743c4.312,3.866,13.829,13.606,16.542,26.728a11.357,11.357,0,0,0-3.048-2.453Z" transform="translate(-23.725 0)" fill="#231f20"/>
      <path id="Trazado_898416" data-name="Trazado 898416" d="M99.067,49.15a40.2,40.2,0,0,0-4.944-9.963.986.986,0,0,0-.186-.223A61.172,61.172,0,0,0,86.056,33.8a4.768,4.768,0,0,0-6.468,1.859,4.571,4.571,0,0,0-.483,3.271,4.814,4.814,0,0,0,2.453,3.234A31.638,31.638,0,0,1,86.5,45.433a1.009,1.009,0,0,0,.632.223A4.767,4.767,0,0,1,89.4,46.1c2.007.892,4.833,2.342,8.364,4.275A.929.929,0,0,0,99.029,50a.793.793,0,0,0,.037-.855Zm-8.885-4.758a6.9,6.9,0,0,0-2.751-.595,33.83,33.83,0,0,0-4.981-3.271,2.988,2.988,0,0,1-1.524-2.007,2.884,2.884,0,0,1,2.23-3.42,2.8,2.8,0,0,1,1.97.3,59.486,59.486,0,0,1,7.509,4.944,38.313,38.313,0,0,1,3.829,7.212c-2.528-1.375-4.647-2.416-6.282-3.16Z" transform="translate(-12.535 -12.457)" fill="#231f20"/>
      <path id="Trazado_898417" data-name="Trazado 898417" d="M144.37,129.5a11.97,11.97,0,1,0,11.97,11.97h0A11.938,11.938,0,0,0,144.37,129.5Zm0,22.118a10.111,10.111,0,1,1,10.111-10.111h0A10.074,10.074,0,0,1,144.37,151.618Z" transform="translate(-46.091 -72.956)" fill="#231f20"/>
      <path id="Trazado_898418" data-name="Trazado 898418" d="M107.17,170.727a9.824,9.824,0,0,1-2.342-4.684.912.912,0,0,0-.892-.743H87.022a1.824,1.824,0,0,0-1.822,1.822v4.2a.92.92,0,0,0,.929.929H106.5a.92.92,0,0,0,.929-.929,1.089,1.089,0,0,0-.26-.595Zm-20.148-.335v-3.234h16.171a12.666,12.666,0,0,0,1.45,3.234Z" transform="translate(-16.437 -95.448)" fill="#231f20"/>
      <path id="Trazado_898419" data-name="Trazado 898419" d="M110.882,182.743a10.2,10.2,0,0,1-6.728-3.346,1.016,1.016,0,0,0-.706-.3H82.222a1.824,1.824,0,0,0-1.822,1.822v24.944a1.824,1.824,0,0,0,1.822,1.822h27.657a1.824,1.824,0,0,0,1.822-1.822V183.672A.874.874,0,0,0,110.882,182.743ZM82.259,205.865l-.037-24.906h20.817a12.028,12.028,0,0,0,6.8,3.569l.037,21.338Z" transform="translate(-13.421 -104.118)" fill="#231f20"/>
      <path id="Trazado_898420" data-name="Trazado 898420" d="M98.725,77.765a11.415,11.415,0,0,0-5.539-7.1c-.409-.223-10.037-5.836-15.539-8.29a7.026,7.026,0,0,0-7.658,1.3l-6.134,5.8a4.744,4.744,0,0,0-.781,5.948,3.912,3.912,0,0,0-1.933.372,3.572,3.572,0,0,0-2.045,3.94l1.71,9.256a5.394,5.394,0,0,0,2.379,3.569c6.8,4.424,7.546,7.546,7.546,8.661a.92.92,0,0,0,.929.929H87.424a.92.92,0,0,0,.929-.929.335.335,0,0,0-.037-.186A10.162,10.162,0,0,1,96.16,89.029a.938.938,0,0,0,.706-.632,27.538,27.538,0,0,1,1.3-3.457A10.855,10.855,0,0,0,98.725,77.765Zm-2.193,6.357c-.446,1.041-.855,2.082-1.227,3.16a12.013,12.013,0,0,0-8.959,12.936H72.555c-.706-3.829-5.427-7.435-8.327-9.293a3.56,3.56,0,0,1-1.561-2.342l-1.71-9.256a1.746,1.746,0,0,1,.967-1.9,1.891,1.891,0,0,1,1.673-.037c1.3.558,2.677,2.676,3.717,5.725.595,1.71,1.9,2.714,3.457,3.792l3.346,2.268a6.369,6.369,0,0,0,4.833,1,6.644,6.644,0,0,0,4.163-2.862c.372-.595.409-.669.595-.929l.037-.037h0l.409-.632a.036.036,0,0,1,.037-.037c3.085-5.241-.855-8.327-1.115-8.513l-.037-.037a49.756,49.756,0,0,1-6.282-5.465,2.786,2.786,0,0,0-3.68-.26l-.037.037-4.2,3.68a2.867,2.867,0,0,1-3.68-4.387l6.134-5.762a5.194,5.194,0,0,1,5.613-.967c5.39,2.416,14.981,7.992,15.353,8.215a9.5,9.5,0,0,1,4.275,11.9ZM66.607,77.616a4.785,4.785,0,0,0,3.383-.967l.037-.037,4.2-3.68a.961.961,0,0,1,1.227.112,48.719,48.719,0,0,0,6.505,5.688c.3.223,2.862,2.268.632,6.059-.112.186-.223.335-.3.483l-.074.074a11.274,11.274,0,0,0-.669,1A4.706,4.706,0,0,1,78.577,88.4a4.467,4.467,0,0,1-3.42-.706l-3.346-2.268c-1.3-.929-2.342-1.71-2.751-2.9A17.855,17.855,0,0,0,66.607,77.616Z" transform="translate(0 -30.403)" fill="#231f20"/>
      <path id="Trazado_898421" data-name="Trazado 898421" d="M157.9,147.134a2.8,2.8,0,0,0-3.94,0l-4.61,4.61-.967-1.041a2.789,2.789,0,0,0-4.126,3.755h0l2.937,3.2h0a2.73,2.73,0,0,0,2.007.892h.074a2.785,2.785,0,0,0,1.97-.818l6.654-6.654a2.8,2.8,0,0,0,0-3.94Zm-1.338,2.6-6.654,6.654a.776.776,0,0,1-.669.26.931.931,0,0,1-.669-.3h0l-2.937-3.2a.922.922,0,0,1,1.375-1.227l1.636,1.784a.933.933,0,0,0,1.3.074l.037-.037,5.279-5.279a.969.969,0,0,1,1.3,0,.856.856,0,0,1,0,1.264Z" transform="translate(-53.083 -83.527)" fill="#231f20"/>
    </g>
  </g>
</svg>
