<svg xmlns="http://www.w3.org/2000/svg" xmlns:xlink="http://www.w3.org/1999/xlink" width="120" height="120" viewBox="0 0 120 120">
  <defs>
    <clipPath id="clip-path">
      <rect id="Rectángulo_402778" data-name="Rectángulo 402778" width="48.484" height="78.6" fill="none"/>
    </clipPath>
  </defs>
  <g id="Grupo_1108012" data-name="Grupo 1108012" transform="translate(-635.051 -812)">
    <circle id="Elipse_14836" data-name="Elipse 14836" cx="60" cy="60" r="60" transform="translate(635.051 812)" fill="#d2e1f1"/>
    <g id="Grupo_1108017" data-name="Grupo 1108017" transform="translate(670.809 832.7)">
      <path id="Trazado_898179" data-name="Trazado 898179" d="M28.469,104.835,20.7,93.233l4.743-3.286,7.766,11.6Z" transform="translate(-16.342 -71)" fill="#7babf1"/>
      <g id="Grupo_1108016" data-name="Grupo 1108016">
        <g id="Grupo_1108015" data-name="Grupo 1108015" clip-path="url(#clip-path)">
          <path id="Trazado_898180" data-name="Trazado 898180" d="M23.732,101.362a1.264,1.264,0,0,1-1.05-.561L14.915,89.2a1.264,1.264,0,0,1,.331-1.742l4.743-3.286a1.264,1.264,0,0,1,1.77.336l7.766,11.6a1.264,1.264,0,0,1-.331,1.742l-4.743,3.286a1.262,1.262,0,0,1-.72.225M17.708,88.827l6.36,9.5,2.664-1.846-6.36-9.5Z" transform="translate(-11.605 -66.263)"/>
          <path id="Trazado_898181" data-name="Trazado 898181" d="M43.141,36.346V33.614a4.408,4.408,0,0,1,4.4-4.4h.57V23.449h-.57A10.177,10.177,0,0,0,37.378,33.614v.2c-.627-.218-1.243-.417-1.84-.6a25.3,25.3,0,0,0-3.452-.786c.1-.662.232-1.335.388-2.008,2.142-9.228,7.582-10,9.369-10.251l-1.292-9.129A19.382,19.382,0,0,0,33.378,13.5a7.071,7.071,0,0,1,.775-4.883L29.02,6a12.367,12.367,0,0,0-.313,11.432,20.875,20.875,0,0,0-1.76,2.381c-.177-.135-.353-.276-.526-.427a6.208,6.208,0,0,1-2.057-7.113L18.849,10.6a11.992,11.992,0,0,0,3.788,13.127,17.268,17.268,0,0,0,1.791,1.361,31.984,31.984,0,0,0-.992,3.5,39.557,39.557,0,0,0-.695,4.171,23.476,23.476,0,0,0-6.582,2.617C11.23,38.272,6.589,43.371,6.09,52.348,4.726,63.81,19.2,75.488,26.7,80.717a7.465,7.465,0,0,0,8.857-.228c6.151-4.787,16.4-15.232,16.4-31.661,0-5.886-4.067-9.855-8.817-12.483" transform="translate(-4.736 -4.736)" fill="#fd919e"/>
          <path id="Trazado_898182" data-name="Trazado 898182" d="M117.3,78.856c.549-3.477.844-6.248,1.131-8.515-.137-.024-.273-.05-.41-.071.1-.662.232-1.335.388-2.008a20.636,20.636,0,0,1,1.273-3.851,8.343,8.343,0,0,1,.736-1.424,9.473,9.473,0,0,1,7.36-4.976l-.577-4.074s-18.907,4.016-9.9,24.919" transform="translate(-90.675 -42.575)" fill="#e8677d"/>
          <path id="Trazado_898183" data-name="Trazado 898183" d="M126.059,105.783l0,0a17.189,17.189,0,0,0-1.3-1.253l-.015-.013q-.209-.182-.425-.358l-.064-.052c-.123-.1-.246-.2-.372-.295l-.1-.076q-.471-.36-.963-.7l-.053-.036q-.209-.142-.421-.28l-.139-.089q-.173-.111-.349-.22l-.16-.1q-.176-.107-.353-.211l-.146-.086q-.248-.144-.5-.283V99a4.4,4.4,0,0,1,4.4-4.4h.57V88.837h-.57A10.165,10.165,0,0,0,114.94,99v.2c-.627-.218-1.243-.418-1.84-.6q-.406-.123-.816-.231c-.214-.057-.429-.108-.644-.16l-.157-.039q-.914-.212-1.836-.356l.218.079-.716,3.949a16.25,16.25,0,0,1,12.485,10.358,20.333,20.333,0,0,1-1.646,17.883,45.787,45.787,0,0,1-15.728,16.017l1.614.854a7.461,7.461,0,0,0,7.243-1.081c6.15-4.787,16.4-15.232,16.4-31.661a12.092,12.092,0,0,0-3.46-8.434" transform="translate(-82.298 -70.124)" fill="#e8677d"/>
          <path id="Trazado_898184" data-name="Trazado 898184" d="M134.461,111.969l0,.02.008-.023Z" transform="translate(-106.134 -88.381)" fill="#e8677d"/>
          <path id="Trazado_898185" data-name="Trazado 898185" d="M26.24,78.6a8.726,8.726,0,0,1-5-1.581A79.134,79.134,0,0,1,7.383,64.967C1.924,58.736-.527,52.86.095,47.5c.45-7.9,4.145-14.109,10.687-17.95a24.664,24.664,0,0,1,6.074-2.542c.159-1.187.364-2.338.609-3.433.209-.93.453-1.843.731-2.726-.392-.29-.769-.592-1.126-.9A13.2,13.2,0,0,1,12.9,5.5a1.264,1.264,0,0,1,1.575-.844l5.516,1.668A1.264,1.264,0,0,1,20.838,7.9a4.843,4.843,0,0,0,1.136,5.281q.255-.349.521-.684A13.574,13.574,0,0,1,23.158.69a1.264,1.264,0,0,1,1.7-.552l5.134,2.617a1.264,1.264,0,0,1,.552,1.7A7.056,7.056,0,0,0,29.8,6.741a21.146,21.146,0,0,1,5.841-1.685A1.264,1.264,0,0,1,37.067,6.13l1.292,9.129a1.264,1.264,0,0,1-1.074,1.428c-1.742.247-6.37.9-8.316,9.285q-.08.345-.153.7c.8.163,1.583.363,2.352.6l.309.095a11.446,11.446,0,0,1,11.33-9.917h.57a1.264,1.264,0,0,1,1.264,1.264v5.762a1.264,1.264,0,0,1-1.264,1.264h-.57a3.142,3.142,0,0,0-3.139,3.139v2c5.851,3.429,8.817,7.873,8.817,13.218,0,16.976-10.582,27.748-16.89,32.658A8.7,8.7,0,0,1,26.24,78.6M15.013,7.462a10.711,10.711,0,0,0,3.717,10.581A16.022,16.022,0,0,0,20.39,19.3a1.264,1.264,0,0,1,.495,1.468,30.86,30.86,0,0,0-.952,3.36,38.4,38.4,0,0,0-.672,4.038,1.264,1.264,0,0,1-.97,1.088,22.2,22.2,0,0,0-6.228,2.476C6.191,35.18,3.013,40.546,2.617,47.682c0,.027,0,.053-.007.079C1.3,58.752,16.213,70.433,22.685,74.945a6.172,6.172,0,0,0,7.357-.188c5.944-4.627,15.915-14.762,15.915-30.664,0-4.551-2.747-8.379-8.165-11.377a1.265,1.265,0,0,1-.652-1.106V28.878a5.675,5.675,0,0,1,4.972-5.624V20a8.914,8.914,0,0,0-8.207,8.875v.2a1.264,1.264,0,0,1-1.679,1.194c-.585-.2-1.188-.4-1.792-.583a24.167,24.167,0,0,0-3.28-.747A1.264,1.264,0,0,1,26.1,27.5c.114-.72.25-1.425.406-2.1.983-4.235,2.764-7.337,5.294-9.22A10.2,10.2,0,0,1,35.686,14.4l-.938-6.629a17.842,17.842,0,0,0-5.464,2.079,1.263,1.263,0,0,1-1.872-.8,7.852,7.852,0,0,1,.369-4.585l-2.9-1.477a10.9,10.9,0,0,0,.222,9.151,1.264,1.264,0,0,1-.175,1.379,19.664,19.664,0,0,0-1.653,2.237,1.263,1.263,0,0,1-1.835.325c-.229-.175-.416-.327-.589-.478a7.332,7.332,0,0,1-2.732-7.2Z" transform="translate(0 0)"/>
          <path id="Trazado_898186" data-name="Trazado 898186" d="M129.248,156.8a1.275,1.275,0,0,1-.791-.274c-.235-.185-2.395-2.016-5.952-9.236-3.674-7.457-1.465-20.234-1.369-20.774a1.264,1.264,0,0,1,2.489.441c-.022.124-2.16,12.5,1.148,19.216,3.287,6.671,5.246,8.365,5.266,8.381a1.26,1.26,0,0,1-.79,2.246" transform="translate(-95.03 -99.045)"/>
          <path id="Trazado_898187" data-name="Trazado 898187" d="M83.432,184.414a1.265,1.265,0,0,1-1.222-.945c-2.134-8.181,7.842-16.585,8.268-16.938a1.263,1.263,0,0,1,1.856.267,32.171,32.171,0,0,0,7.235,7.5,1.264,1.264,0,0,1-1.408,2.1,32.258,32.258,0,0,1-7.072-7.006c-2.331,2.232-7.811,8.163-6.434,13.442a1.264,1.264,0,0,1-1.224,1.583" transform="translate(-64.657 -131.222)" fill="#1f1f1f"/>
          <path id="Trazado_898188" data-name="Trazado 898188" d="M59.792,207.3a1.264,1.264,0,0,1-1.091-1.9c2.147-3.681,7.68-2.575,7.915-2.526a1.264,1.264,0,0,1-.513,2.475c-.055-.011-4.011-.747-5.219,1.325a1.264,1.264,0,0,1-1.093.627" transform="translate(-46.201 -159.984)" fill="#1f1f1f"/>
          <path id="Trazado_898189" data-name="Trazado 898189" d="M134.139,247.783a1.264,1.264,0,0,1-1.226-.96c-1.089-4.387.92-9.117,1.006-9.316a1.264,1.264,0,0,1,2.321,1c-.027.063-1.752,4.169-.874,7.706a1.265,1.265,0,0,1-1.228,1.569" transform="translate(-104.662 -186.875)" fill="#1f1f1f"/>
        </g>
      </g>
    </g>
  </g>
</svg>
