<svg xmlns="http://www.w3.org/2000/svg" xmlns:xlink="http://www.w3.org/1999/xlink" width="104" height="104" viewBox="0 0 104 104">
  <defs>
    <clipPath id="clip-path">
      <rect id="Rectángulo_402684" data-name="Rectángulo 402684" width="63.43" height="63.43" fill="#4a6b7a" stroke="#4a6b7a" stroke-width="1"/>
    </clipPath>
  </defs>
  <g id="Grupo_1108273" data-name="Grupo 1108273" transform="translate(0 0.449)">
    <circle id="Elipse_14837" data-name="Elipse 14837" cx="52" cy="52" r="52" transform="translate(0 -0.449)" fill="#fbeeab"/>
    <g id="Grupo_1107901" data-name="Grupo 1107901" transform="translate(17.912 18.199)">
      <g id="Grupo_1107900" data-name="Grupo 1107900" clip-path="url(#clip-path)">
        <path id="Trazado_898132" data-name="Trazado 898132" d="M0,53.981l1.106-1.106L2.5,54.269,12.713,44.057,8.542,39.885l1.106-1.106,1.394,1.394L38.813,12.4,41.59,15.18l5.554-5.554L49.921,12.4,62.324,0,63.43,1.106l-12.4,12.4L53.8,16.287,48.25,21.841l2.777,2.777L44.34,31.3l1.958.528a12.565,12.565,0,1,1-15.4,15.4l-.528-1.958-7.113,7.113,1.394,1.394-1.106,1.106-4.171-4.171L9.161,60.93l1.394,1.394L9.449,63.43Zm3.607,1.395,4.448,4.448L18.267,49.611l-4.448-4.448ZM43.03,32.965a11,11,0,1,0,11,11,11.012,11.012,0,0,0-11-11M12.148,41.28l10,10L30.5,42.93l.047-.407a12.59,12.59,0,0,1,11.04-11.04L42,31.437l6.819-6.819-10-10-4.448,4.448,2.783,2.783-1.106,1.106L33.259,20.17l-4.448,4.448L31.593,27.4l-1.106,1.106L27.7,25.724l-4.448,4.448,2.783,2.783-1.106,1.106L22.15,31.278,17.7,35.726l2.783,2.783-1.106,1.106L16.6,36.832ZM42.7,16.286l4.448,4.448,4.448-4.448-4.448-4.448Z" fill="#4a6b7a" stroke="#4a6b7a" stroke-width="1"/>
        <path id="Trazado_898133" data-name="Trazado 898133" d="M225.826,230.36l1.783-1.676-1.9-1.784a4.436,4.436,0,1,1,6.077,0l-1.9,1.783,1.783,1.677L230.6,231.5l-1.853-1.743L226.9,231.5Zm2.925-9.563a2.871,2.871,0,0,0-1.967,4.963l1.967,1.85,1.967-1.85a2.871,2.871,0,0,0-1.967-4.963" transform="translate(-185.721 -181.517)" fill="#4a6b7a" stroke="#4a6b7a" stroke-width="1"/>
      </g>
    </g>
  </g>
</svg>
