<svg xmlns="http://www.w3.org/2000/svg" xmlns:xlink="http://www.w3.org/1999/xlink" width="90" height="90" viewBox="0 0 90 90">
  <defs>
    <clipPath id="clip-path">
      <rect id="Rectángulo_403009" data-name="Rectángulo 403009" width="61.082" height="60.191" fill="#12263f"/>
    </clipPath>
  </defs>
  <g id="Grupo_1108296" data-name="Grupo 1108296" transform="translate(-285 -14379)">
    <g id="Grupo_1108284" data-name="Grupo 1108284" transform="translate(3.243 12722.663)">
      <g id="Grupo_1107788" data-name="Grupo 1107788" transform="translate(-53.024 -2176.663)">
        <g id="Grupo_1098742" data-name="Grupo 1098742" transform="translate(-868.539 3444.258)">
          <g id="Rectángulo_400898" data-name="Rectángulo 400898" transform="translate(1203.32 388.742)" fill="#fdbabb" stroke="#fff" stroke-width="3" opacity="0.859">
            <rect width="90" height="90" rx="45" stroke="none"/>
            <rect x="1.5" y="1.5" width="87" height="87" rx="43.5" fill="none"/>
          </g>
          <g id="Rectángulo_400907" data-name="Rectángulo 400907" transform="translate(1203.32 388.742)" fill="none" stroke="#fff" stroke-width="3">
            <rect width="90" height="90" rx="45" stroke="none"/>
            <rect x="1.5" y="1.5" width="87" height="87" rx="43.5" fill="none"/>
          </g>
        </g>
      </g>
    </g>
    <g id="Grupo_1108286" data-name="Grupo 1108286" transform="translate(299.516 14390.81)">
      <g id="Grupo_1108285" data-name="Grupo 1108285" clip-path="url(#clip-path)">
        <path id="Trazado_898669" data-name="Trazado 898669" d="M7.285,88.644A7.317,7.317,0,0,1,.039,80.593l.085-.843A58.14,58.14,0,0,1,4.233,63.462L9.342,51.111a8.765,8.765,0,0,1,13.745-4,.881.881,0,1,1-1.1,1.378A7,7,0,0,0,11,51.706c-.006.018-.013.035-.02.052L5.861,64.135A56.375,56.375,0,0,0,1.877,79.93l-.085.842a5.539,5.539,0,0,0,7.675,5.661,7.3,7.3,0,0,1,4.254-.449A11.646,11.646,0,0,0,24.75,75.209l.442-6.014-.237-6.555a.881.881,0,0,1,.848-.912.871.871,0,0,1,.912.848l.239,6.6a.882.882,0,0,1,0,.1l-.445,6.063A13.407,13.407,0,0,1,13.688,87.748a.9.9,0,0,1-.22-.018,5.537,5.537,0,0,0-3.313.324,7.324,7.324,0,0,1-2.87.59" transform="translate(0 -33.827)" fill="#12263f"/>
        <path id="Trazado_898670" data-name="Trazado 898670" d="M132.073,135.363a.877.877,0,0,1-.4-.1,13.42,13.42,0,0,1-7.224-10.931L124,118.271a.888.888,0,0,1,0-.1l.242-6.651a.881.881,0,0,1,1.761.064l-.24,6.6.444,6.014a11.66,11.66,0,0,0,6.276,9.5.881.881,0,0,1-.4,1.663" transform="translate(-92.79 -82.821)" fill="#12263f"/>
        <path id="Trazado_898671" data-name="Trazado 898671" d="M145.977,56.26a.881.881,0,0,1-.814-.545l-1.637-3.957c-.007-.017-.014-.035-.02-.053a7,7,0,0,0-13.071-.487.881.881,0,1,1-1.62-.691,8.766,8.766,0,0,1,16.349.583l1.626,3.932a.881.881,0,0,1-.814,1.218" transform="translate(-96.345 -33.827)" fill="#12263f"/>
        <path id="Trazado_898672" data-name="Trazado 898672" d="M73.406,26.576a.881.881,0,0,1-.648-1.477l1.679-1.828a18.529,18.529,0,0,0,4.9-12.569V.881a.881.881,0,1,1,1.762,0V10.7a20.285,20.285,0,0,1-5.363,13.761l-1.679,1.828a.879.879,0,0,1-.649.285" transform="translate(-54.273 0)" fill="#12263f"/>
        <path id="Trazado_898673" data-name="Trazado 898673" d="M132.216,26.576a.879.879,0,0,1-.649-.285l-1.679-1.828A20.285,20.285,0,0,1,124.525,10.7V.881a.881.881,0,1,1,1.762,0V10.7a18.529,18.529,0,0,0,4.9,12.569l1.679,1.828a.881.881,0,0,1-.648,1.477" transform="translate(-93.187 0)" fill="#12263f"/>
        <path id="Trazado_898674" data-name="Trazado 898674" d="M100.174,109.2a.877.877,0,0,1-.6-.24l-4.865-4.587a1.531,1.531,0,0,0-2.1,0l-4.864,4.587a.881.881,0,1,1-1.209-1.281l4.864-4.587a3.293,3.293,0,0,1,4.515,0l4.865,4.587a.881.881,0,0,1-.6,1.522" transform="translate(-64.551 -76.475)" fill="#12263f"/>
        <path id="Trazado_898675" data-name="Trazado 898675" d="M179.494,140.419a.879.879,0,0,1-.729-.386l-11.474-16.9a16.911,16.911,0,0,1-1.83-3.482,7.119,7.119,0,0,1-.306-1.141,8.4,8.4,0,0,1,.228-4.62,14.2,14.2,0,0,1,2.584-4c.568-.695,1.155-1.413,1.789-2.307a.881.881,0,1,1,1.437,1.019c-.67.944-1.3,1.719-1.863,2.4a12.686,12.686,0,0,0-2.3,3.52,6.694,6.694,0,0,0-.143,3.654,5.382,5.382,0,0,0,.223.851,15.143,15.143,0,0,0,1.64,3.117l11.474,16.9a.881.881,0,0,1-.728,1.376" transform="translate(-123.434 -80.229)" fill="#12263f"/>
        <path id="Trazado_898676" data-name="Trazado 898676" d="M169.959,195.716l-.068,0a.88.88,0,0,1-.728-.5l-4.141-8.72a.881.881,0,0,1,.231-1.054l4.943-4.133a.881.881,0,0,1,1.13,1.352l-4.42,3.695,3.189,6.714,1.8-2.65a.881.881,0,0,1,1.457.99l-2.663,3.923a.881.881,0,0,1-.729.386" transform="translate(-123.429 -135.526)" fill="#12263f"/>
        <path id="Trazado_898677" data-name="Trazado 898677" d="M218.074,125.951a.881.881,0,0,1-.728-1.375l2.162-3.186a14.914,14.914,0,0,0,1.64-3.115,5.327,5.327,0,0,0,.224-.852,6.707,6.707,0,0,0-.143-3.656,14.647,14.647,0,0,0-2.482-3.83c-.544-.683-1.161-1.458-1.792-2.347a.881.881,0,1,1,1.436-1.019c.6.85,1.177,1.571,1.733,2.269a16.14,16.14,0,0,1,2.75,4.3,8.294,8.294,0,0,1,.227,4.619,6.877,6.877,0,0,1-.308,1.144,16.65,16.65,0,0,1-1.83,3.48l-2.16,3.184a.879.879,0,0,1-.73.386" transform="translate(-162.234 -79.474)" fill="#12263f"/>
        <path id="Trazado_898678" data-name="Trazado 898678" d="M193.487,124.1a.879.879,0,0,1-.356-.076,8.9,8.9,0,0,0-7.078-.008.881.881,0,0,1-.71-1.612,10.688,10.688,0,0,1,8.5.01.881.881,0,0,1-.357,1.686" transform="translate(-138.306 -90.94)" fill="#12263f"/>
        <path id="Trazado_898679" data-name="Trazado 898679" d="M206,177.251a.881.881,0,0,1-.8-1.259l3.892-8.2-7.3-8.356a19.8,19.8,0,0,1-1.274-1.623.881.881,0,0,1,1.442-1.013,17.816,17.816,0,0,0,1.159,1.477l7.677,8.791a.881.881,0,0,1,.132.957l-4.14,8.721a.881.881,0,0,1-.8.5" transform="translate(-149.945 -117.061)" fill="#12263f"/>
        <path id="Trazado_898680" data-name="Trazado 898680" d="M188.141,110.99a.88.88,0,0,1-.717-.368c-.162-.226-.327-.471-.505-.748l-1.211-1.892a17.3,17.3,0,0,1-2.457-6.229l-.3-1.605a6.009,6.009,0,0,1,.589-3.944,5.27,5.27,0,0,1,4.569-2.847,5.328,5.328,0,0,1,4.809,3.345,5.915,5.915,0,0,1,.361,3.4l-.28,1.582a17.332,17.332,0,0,1-2.473,6.332l-.039.058a.881.881,0,0,1-1.464-.979l.029-.043a15.564,15.564,0,0,0,2.213-5.675l.28-1.583A4.161,4.161,0,0,0,191.3,97.4a3.528,3.528,0,0,0-3.192-2.282,3.467,3.467,0,0,0-3.022,1.927,4.243,4.243,0,0,0-.4,2.784l.3,1.6a15.547,15.547,0,0,0,2.209,5.6l1.209,1.889c.162.251.311.472.456.675a.881.881,0,0,1-.716,1.393" transform="translate(-136.834 -69.862)" fill="#12263f"/>
      </g>
    </g>
  </g>
</svg>
