<svg xmlns="http://www.w3.org/2000/svg" xmlns:xlink="http://www.w3.org/1999/xlink" width="74" height="74" viewBox="0 0 74 74">
  <defs>
    <clipPath id="clip-path">
      <rect id="Rectángulo_402760" data-name="Rectángulo 402760" width="50.04" height="47.151" fill="#4a6b7a"/>
    </clipPath>
  </defs>
  <g id="Grupo_1108003" data-name="Grupo 1108003" transform="translate(-241.051 -3506)">
    <circle id="Elipse_14857" data-name="Elipse 14857" cx="37" cy="37" r="37" transform="translate(241.051 3506)" fill="#fefae9"/>
    <g id="Grupo_1107981" data-name="Grupo 1107981" transform="translate(253.051 3519)">
      <g id="Grupo_1107980" data-name="Grupo 1107980" clip-path="url(#clip-path)">
        <path id="Trazado_898163" data-name="Trazado 898163" d="M44.063,7.279a.709.709,0,1,1,1.174.795,1.943,1.943,0,0,0-.173,1.946c.123.339.276.679.417,1.032a5.024,5.024,0,0,1,.425,2.293A5.43,5.43,0,0,1,44.6,16.3a.709.709,0,1,1-1.114-.878,4.174,4.174,0,0,0,1-2.116,4.907,4.907,0,0,0-.612-2.432,3.4,3.4,0,0,1,.189-3.594m4.555,5.692a.709.709,0,1,1,1.418-.04c.129,4.583-2.465,6.464-4.97,7.809-.759.408-1.506.762-2.145,1.14a3.77,3.77,0,0,0-1.283,1.066.709.709,0,1,1-1.184-.781A4.581,4.581,0,0,1,41.8,20.909c.735-.482,1.657-.912,2.6-1.418,2.1-1.129,4.33-2.674,4.223-6.52M12.139,25.894l-4.174.028.014,2.033,4.174-.027Zm3.83,2.008c.594-.672,1.2-1.357,1.8-2.045l-4.215.028.012,2.033Zm3.065-3.471,9.289-10.519A15.232,15.232,0,0,0,8.442,36.425c1.037-1.173,3.45-3.905,6.267-7.1l-7.431.049a.709.709,0,0,1-.713-.7l-.022-3.451a.709.709,0,0,1,.7-.714ZM7.906,37.981A16.649,16.649,0,0,1,29.8,13.187a.711.711,0,0,1,.127,1.051L8.965,37.976a.71.71,0,0,1-1.059,0M24.179,25.815,22.373,27.86l9.668-.064a.713.713,0,0,1-.022-.528l.1-.293-.4-.374a.707.707,0,0,1-.151-.834Zm11.156-1.383a15.17,15.17,0,0,0-3.4-7.4l-6.494,7.355,7.763-.051a.709.709,0,0,1,.516,1.2l-.5.518.213.2a.709.709,0,0,1,.183.755l-.064.186.153.093a.712.712,0,0,1,.332.73l-.107.6a.711.711,0,0,1-.695.586l-12.119.08-9.13,10.339A15.233,15.233,0,0,0,35.526,26.857q0-.491-.03-.974a.709.709,0,0,1-.409-1.107q.127-.173.248-.344m2.561-4.4a18.818,18.818,0,1,0,.634,1.943,29.229,29.229,0,0,1-1.714,2.806A16.656,16.656,0,0,1,20.292,43.509a16.577,16.577,0,0,1-9.787-3.182.711.711,0,0,1-.113-1.043L31.4,15.495a.709.709,0,0,1,1.049-.015,16.627,16.627,0,0,1,3.991,7.289A23.467,23.467,0,0,0,37.9,20.036m1.532.055a20.3,20.3,0,1,1-.805-1.948,15.761,15.761,0,0,0,.121-8.979c-.7-2.917-1.663-5.581-1.444-8.508a.709.709,0,1,1,1.414.106c-.207,2.779.749,5.3,1.41,8.073a16.824,16.824,0,0,1-.695,11.256" transform="translate(0 0)" fill="#4a6b7a" fill-rule="evenodd"/>
      </g>
    </g>
  </g>
</svg>
