<svg xmlns="http://www.w3.org/2000/svg" xmlns:xlink="http://www.w3.org/1999/xlink" width="74" height="74" viewBox="0 0 74 74">
  <defs>
    <clipPath id="clip-path">
      <rect id="Rectángulo_402767" data-name="Rectángulo 402767" width="49.963" height="51.826" fill="#4a6b7a"/>
    </clipPath>
  </defs>
  <g id="Grupo_1108000" data-name="Grupo 1108000" transform="translate(-866.051 -3678)">
    <circle id="Elipse_14865" data-name="Elipse 14865" cx="37" cy="37" r="37" transform="translate(866.051 3678)" fill="#fefae9"/>
    <g id="Grupo_1107996" data-name="Grupo 1107996" transform="translate(878.051 3688.664)">
      <g id="Grupo_1107995" data-name="Grupo 1107995" clip-path="url(#clip-path)">
        <path id="Trazado_898170" data-name="Trazado 898170" d="M24.982,1.469A5.333,5.333,0,1,0,30.315,6.8a5.336,5.336,0,0,0-5.333-5.333M19.705,33.755a.709.709,0,0,1,.094.288l1.1,9.836a.845.845,0,0,0,.841.751h.017a.826.826,0,0,0,.822-.734l.886-7.923a.735.735,0,0,1,.788-.65c.242.019.484.029.728.029a9.037,9.037,0,0,0,1.026-.058h0a.734.734,0,0,1,.811.648l.888,7.937a.845.845,0,0,0,.841.751h.019a.825.825,0,0,0,.82-.734l1.132-10.123a.758.758,0,0,1,.088-.275.723.723,0,0,1,.188-.22,12.449,12.449,0,0,0,4.449-8.063.734.734,0,1,1,1.454.206,14.6,14.6,0,0,1-2.119,5.807A2,2,0,0,0,36.117,32c1.266,0,1.94-1.015,2.242-2.732a17.818,17.818,0,0,0,.186-2.582c0-6.8-3.806-12.6-9.141-14.717a6.8,6.8,0,0,1-8.843,0c-5.335,2.114-9.141,7.918-9.141,14.717A18.123,18.123,0,0,0,11.6,29.27a.017.017,0,0,1,0,.01c.271,1.669.976,2.722,2.24,2.722a2,2,0,0,0,1.537-.775,14.629,14.629,0,0,1-2.119-5.807.734.734,0,1,1,1.454-.206A12.355,12.355,0,0,0,19.5,33.53a.734.734,0,0,1,.2.225m-.657,6.791c-7.139.427-13,1.6-15.92,3.161a4.875,4.875,0,0,0-1.318.954,1.084,1.084,0,0,0-.342.7,1.238,1.238,0,0,0,.48.845,6.566,6.566,0,0,0,1.8,1.118c3.979,1.812,12,3.03,21.234,3.03s17.254-1.218,21.234-3.03a6.566,6.566,0,0,0,1.8-1.118,1.238,1.238,0,0,0,.48-.845,1.081,1.081,0,0,0-.334-.7,4.777,4.777,0,0,0-1.289-.943c-2.864-1.551-8.609-2.715-15.634-3.16l-.39,3.493a2.294,2.294,0,0,1-2.282,2.04H28.55a2.315,2.315,0,0,1-2.3-2.057l-.809-7.232c-.152.007-.546.01-.592.009l-.809,7.24a2.3,2.3,0,0,1-2.282,2.04h-.017a2.315,2.315,0,0,1-2.3-2.057ZM31.4,39.1c7.268.468,13.2,1.723,16.168,3.33,1.606.871,2.392,1.92,2.392,2.929a2.445,2.445,0,0,1-.626,1.578,7.079,7.079,0,0,1-2.513,1.721c-4.094,1.865-12.341,3.162-21.843,3.162s-17.749-1.3-21.843-3.162A7.078,7.078,0,0,1,.626,46.943,2.445,2.445,0,0,1,0,45.364c0-1.018.8-2.077,2.434-2.952,3.022-1.62,9.07-2.878,16.451-3.328l-.511-4.562a12.583,12.583,0,0,1-2.117-2.077,3.409,3.409,0,0,1-2.411,1.025c-1.942,0-3.279-1.4-3.692-3.967a.059.059,0,0,0,0-.01,19.377,19.377,0,0,1-.2-2.805c0-7.222,3.975-13.384,9.546-15.863a6.8,6.8,0,1,1,10.97,0c5.571,2.479,9.546,8.641,9.546,15.863a19.376,19.376,0,0,1-.2,2.8h0c0,.007,0,.014,0,.02-.461,2.631-1.752,3.957-3.689,3.957a3.413,3.413,0,0,1-2.411-1.025,12.568,12.568,0,0,1-1.758,1.79Z" transform="translate(0)" fill="#4a6b7a" fill-rule="evenodd"/>
      </g>
    </g>
  </g>
</svg>
