<svg xmlns="http://www.w3.org/2000/svg" xmlns:xlink="http://www.w3.org/1999/xlink" width="90" height="90" viewBox="0 0 90 90">
  <defs>
    <clipPath id="clip-path">
      <rect id="Rectángulo_403005" data-name="Rectángulo 403005" width="47.33" height="58.56" fill="none"/>
    </clipPath>
  </defs>
  <g id="Grupo_1108268" data-name="Grupo 1108268" transform="translate(-912.051 -1656)">
    <g id="Grupo_1107896" data-name="Grupo 1107896" transform="translate(577.27 -2177)">
      <g id="Grupo_1098742" data-name="Grupo 1098742" transform="translate(-868.539 3444.258)">
        <g id="Rectángulo_400898" data-name="Rectángulo 400898" transform="translate(1203.32 388.742)" fill="#fdbabb" stroke="#fff" stroke-width="3" opacity="0.859">
          <rect width="90" height="90" rx="45" stroke="none"/>
          <rect x="1.5" y="1.5" width="87" height="87" rx="43.5" fill="none"/>
        </g>
        <g id="Rectángulo_400907" data-name="Rectángulo 400907" transform="translate(1203.32 388.742)" fill="none" stroke="#fff" stroke-width="3">
          <rect width="90" height="90" rx="45" stroke="none"/>
          <rect x="1.5" y="1.5" width="87" height="87" rx="43.5" fill="none"/>
        </g>
      </g>
    </g>
    <g id="Grupo_1108264" data-name="Grupo 1108264" transform="translate(933.051 1672)">
      <g id="Grupo_1108263" data-name="Grupo 1108263" clip-path="url(#clip-path)">
        <path id="Trazado_898615" data-name="Trazado 898615" d="M50.329,202.283a.806.806,0,0,1-.668-1.257,16.3,16.3,0,0,0,2.607-6.813,19.081,19.081,0,0,0-12.239-5.789l-.867-.069a.806.806,0,0,1,.128-1.608l.868.069a20.7,20.7,0,0,1,13.553,6.574.806.806,0,0,1,.208.657l-.044.322A17.914,17.914,0,0,1,51,201.927a.805.805,0,0,1-.669.356" transform="translate(-29.569 -143.723)"/>
        <path id="Trazado_898616" data-name="Trazado 898616" d="M40.108,182.3a.806.806,0,0,1-.788-.642,55.805,55.805,0,0,1-.561-19.711l.072-.48a.806.806,0,0,1,1.595.24l-.072.48a54.206,54.206,0,0,0,.545,19.142.807.807,0,0,1-.79.972" transform="translate(-29.352 -123.743)"/>
        <path id="Trazado_898617" data-name="Trazado 898617" d="M102.323,202.282a.805.805,0,0,1-.669-.356,17.915,17.915,0,0,1-2.877-7.558l-.044-.321a.807.807,0,0,1,.208-.657,20.7,20.7,0,0,1,13.553-6.574l.867-.069a.806.806,0,0,1,.129,1.608l-.868.069a19.082,19.082,0,0,0-12.239,5.789,16.3,16.3,0,0,0,2.607,6.813.806.806,0,0,1-.668,1.257" transform="translate(-75.982 -143.722)"/>
        <path id="Trazado_898618" data-name="Trazado 898618" d="M155.071,182.3a.807.807,0,0,1-.79-.972,54.221,54.221,0,0,0,1.083-13.721c-.088-1.808-.269-3.631-.537-5.421l-.072-.479a.806.806,0,1,1,1.594-.24l.072.48a55.794,55.794,0,0,1-.561,19.711.806.806,0,0,1-.788.642" transform="translate(-118.725 -123.743)"/>
        <path id="Trazado_898619" data-name="Trazado 898619" d="M47.754,63.691a6.336,6.336,0,0,1-1.677-.208,4.158,4.158,0,0,1-2.868-2.875,8.351,8.351,0,0,1,.864-6.836.806.806,0,1,1,1.278.983,6.86,6.86,0,0,0-.613,5.339A2.583,2.583,0,0,0,46.5,61.928c3.135.86,8.395-2.09,8.448-2.12a.806.806,0,0,1,.8,1.4c-.205.117-4.416,2.48-7.993,2.48" transform="translate(-32.972 -41.142)"/>
        <path id="Trazado_898620" data-name="Trazado 898620" d="M112.225,63.691c-3.578,0-7.788-2.364-7.993-2.48a.806.806,0,0,1,.8-1.4c.053.03,5.313,2.979,8.448,2.12a2.584,2.584,0,0,0,1.766-1.833,6.861,6.861,0,0,0-.613-5.34.806.806,0,0,1,1.278-.983,8.35,8.35,0,0,1,.864,6.836,4.158,4.158,0,0,1-2.868,2.875,6.352,6.352,0,0,1-1.677.208" transform="translate(-79.905 -41.142)"/>
        <path id="Trazado_898621" data-name="Trazado 898621" d="M47.8,109.878a34.1,34.1,0,0,1-10.142-1.526,8.054,8.054,0,0,1-2.491-1.265,6.461,6.461,0,0,1-1.765-2,14.7,14.7,0,0,1,2-17.157.806.806,0,1,1,1.216,1.059A13.122,13.122,0,0,0,34.812,104.3a4.863,4.863,0,0,0,1.331,1.5,6.439,6.439,0,0,0,2,1.01,32.859,32.859,0,0,0,19.326,0,5.693,5.693,0,0,0,3.327-2.51,13.124,13.124,0,0,0-1.807-15.314A.806.806,0,0,1,60.2,87.929a14.7,14.7,0,0,1,2,17.157,7.211,7.211,0,0,1-4.257,3.266A34.1,34.1,0,0,1,47.8,109.878" transform="translate(-24.251 -67.459)"/>
        <path id="Trazado_898622" data-name="Trazado 898622" d="M75.131,10.819c-4.384,0-7.951-4.491-7.951-10.012a.806.806,0,1,1,1.613,0c0,4.632,2.844,8.4,6.339,8.4S81.47,5.438,81.47.806a.806.806,0,1,1,1.613,0c0,5.521-3.567,10.012-7.951,10.012" transform="translate(-51.703 0)"/>
        <path id="Trazado_898623" data-name="Trazado 898623" d="M147.476,54.7a.806.806,0,0,1-.575-1.372,17.166,17.166,0,0,0,4.228-17.32,18.157,18.157,0,0,0-2.151-4.469l-.135-.2a5.169,5.169,0,0,1-.863-2.864,8.247,8.247,0,0,0-5.375-7.709l-4.063-1.534a.806.806,0,0,1,.569-1.509l4.057,1.532a9.863,9.863,0,0,1,6.424,9.22,3.563,3.563,0,0,0,.594,1.973l.135.2a19.756,19.756,0,0,1,2.342,4.866,18.774,18.774,0,0,1-4.614,18.945.8.8,0,0,1-.575.241" transform="translate(-106.224 -13.599)"/>
        <path id="Trazado_898624" data-name="Trazado 898624" d="M6.009,54.632a.8.8,0,0,1-.578-.244A18.785,18.785,0,0,1,.888,35.516,19.779,19.779,0,0,1,3.23,30.65l.135-.2a3.563,3.563,0,0,0,.595-1.973,9.865,9.865,0,0,1,6.43-9.223l4.051-1.529a.806.806,0,1,1,.57,1.509l-4.057,1.532a8.249,8.249,0,0,0-5.381,7.711,5.171,5.171,0,0,1-.863,2.864l-.135.2A18.168,18.168,0,0,0,2.423,36.01,17.177,17.177,0,0,0,6.586,53.264a.806.806,0,0,1-.578,1.369" transform="translate(0 -13.598)"/>
      </g>
    </g>
  </g>
</svg>
