<svg xmlns="http://www.w3.org/2000/svg" xmlns:xlink="http://www.w3.org/1999/xlink" width="90" height="90" viewBox="0 0 90 90">
  <defs>
    <clipPath id="clip-path">
      <rect id="Rectángulo_403004" data-name="Rectángulo 403004" width="44.899" height="59.607" fill="#12263f"/>
    </clipPath>
  </defs>
  <g id="Grupo_1108269" data-name="Grupo 1108269" transform="translate(-596.757 -1656.337)">
    <g id="Grupo_1107895" data-name="Grupo 1107895" transform="translate(261.976 -2176.663)">
      <g id="Grupo_1098742" data-name="Grupo 1098742" transform="translate(-868.539 3444.258)">
        <g id="Rectángulo_400898" data-name="Rectángulo 400898" transform="translate(1203.32 388.742)" fill="#fdbabb" stroke="#fff" stroke-width="3" opacity="0.859">
          <rect width="90" height="90" rx="45" stroke="none"/>
          <rect x="1.5" y="1.5" width="87" height="87" rx="43.5" fill="none"/>
        </g>
        <g id="Rectángulo_400907" data-name="Rectángulo 400907" transform="translate(1203.32 388.742)" fill="none" stroke="#fff" stroke-width="3">
          <rect width="90" height="90" rx="45" stroke="none"/>
          <rect x="1.5" y="1.5" width="87" height="87" rx="43.5" fill="none"/>
        </g>
      </g>
    </g>
    <g id="Grupo_1108262" data-name="Grupo 1108262" transform="translate(619.307 1671.66)">
      <g id="Grupo_1108261" data-name="Grupo 1108261" clip-path="url(#clip-path)">
        <path id="Trazado_898604" data-name="Trazado 898604" d="M41.771,81.569a.826.826,0,0,1-.826-.826V62.271a2.029,2.029,0,1,0-4.057,0V75.809a.826.826,0,1,1-1.653,0V62.271a3.681,3.681,0,0,1,7.363,0V80.743a.826.826,0,0,1-.826.826" transform="translate(-26.916 -44.757)" fill="#12263f"/>
        <path id="Trazado_898605" data-name="Trazado 898605" d="M86.339,114.57a.826.826,0,0,1-.826-.826v-9.479a.826.826,0,1,1,1.653,0v9.479a.826.826,0,0,1-.826.826" transform="translate(-65.323 -79.016)" fill="#12263f"/>
        <path id="Trazado_898606" data-name="Trazado 898606" d="M73,55.837a.826.826,0,0,1-.826-.826V52.752a2.785,2.785,0,0,0-.692-1.871,2.094,2.094,0,0,0-1.563-.728,1.97,1.97,0,0,0-.735.142.826.826,0,1,1-.613-1.535,3.618,3.618,0,0,1,1.348-.26,3.725,3.725,0,0,1,2.792,1.277,4.433,4.433,0,0,1,1.115,2.976v2.259a.826.826,0,0,1-.826.826" transform="translate(-51.986 -37.049)" fill="#12263f"/>
        <path id="Trazado_898607" data-name="Trazado 898607" d="M102.158,121.488a.826.826,0,0,1-.826-.826v-5.869a2.2,2.2,0,0,0-2.2-2.2.826.826,0,0,1,0-1.653,3.852,3.852,0,0,1,3.848,3.848v5.869a.826.826,0,0,1-.826.826" transform="translate(-75.098 -84.75)" fill="#12263f"/>
        <path id="Trazado_898608" data-name="Trazado 898608" d="M110.957,160.1a.826.826,0,0,1-.826-.826v-1.764a16.061,16.061,0,0,1,2.516-8.637l.127-.2a14.4,14.4,0,0,0,2.257-7.749v-5.869a2.192,2.192,0,0,0-1.172-1.943.826.826,0,0,1,.772-1.462,3.841,3.841,0,0,1,2.054,3.4v5.869a16.056,16.056,0,0,1-2.516,8.637l-.127.2a14.41,14.41,0,0,0-2.257,7.749v1.764a.826.826,0,0,1-.826.826" transform="translate(-84.129 -100.497)" fill="#12263f"/>
        <path id="Trazado_898609" data-name="Trazado 898609" d="M11.851,156.941a.826.826,0,0,1-.826-.81L11,155.1a5.5,5.5,0,0,0-.5-2.29,4.316,4.316,0,0,0-.247-.421,43.143,43.143,0,0,1-5.244-12.143l-2.1-7.99-.34-1.372a2.21,2.21,0,0,1-.064-.522A1.989,1.989,0,0,1,3.963,128.4a5.459,5.459,0,0,1,4.217.637,6.554,6.554,0,0,1,2.912,4.127l.779,3.321a.826.826,0,1,1-1.609.377l-.779-3.321a4.894,4.894,0,0,0-2.158-3.09A3.821,3.821,0,0,0,4.374,130a.367.367,0,0,0-.206.363.538.538,0,0,0,.016.128l.336,1.358,2.094,7.979A41.494,41.494,0,0,0,11.656,151.5a5.72,5.72,0,0,1,.351.612,7.145,7.145,0,0,1,.649,2.964l.021,1.019a.826.826,0,0,1-.809.843h-.017" transform="translate(-1.921 -97.949)" fill="#12263f"/>
        <path id="Trazado_898610" data-name="Trazado 898610" d="M5.675,83.306H2.6A2.6,2.6,0,0,1,0,80.7V78.13a2.6,2.6,0,0,1,2.6-2.6H8.576a.826.826,0,0,1,0,1.653H2.6a.949.949,0,0,0-.948.948V80.7a.949.949,0,0,0,.948.948H5.675a.826.826,0,1,1,0,1.653" transform="translate(0 -57.696)" fill="#12263f"/>
        <path id="Trazado_898611" data-name="Trazado 898611" d="M90.322,83.306H62.667a.826.826,0,1,1,0-1.653H89.5V77.182H62.667a.826.826,0,0,1,0-1.653H90.322a.826.826,0,0,1,.826.827v6.124a.826.826,0,0,1-.826.826" transform="translate(-47.24 -57.696)" fill="#12263f"/>
        <path id="Trazado_898612" data-name="Trazado 898612" d="M158.512,85.479a.826.826,0,0,1-.826-.826V80.471a.826.826,0,0,1,1.653,0v4.181a.826.826,0,0,1-.826.826" transform="translate(-120.456 -60.84)" fill="#12263f"/>
        <path id="Trazado_898613" data-name="Trazado 898613" d="M179.993,25.569a.826.826,0,0,1-.826-.826,2.609,2.609,0,0,1,.641-1.74,1.051,1.051,0,0,0,0-1.477,2.682,2.682,0,0,1,0-3.481,1.053,1.053,0,0,0,0-1.478,2.61,2.61,0,0,1-.641-1.741.826.826,0,0,1,1.653,0,1.014,1.014,0,0,0,.3.739,2.683,2.683,0,0,1,0,3.481,1.051,1.051,0,0,0,0,1.477,2.682,2.682,0,0,1,0,3.48,1.013,1.013,0,0,0-.3.739.826.826,0,0,1-.826.826" transform="translate(-136.865 -10.695)" fill="#12263f"/>
        <path id="Trazado_898614" data-name="Trazado 898614" d="M158.993,11.569a.826.826,0,0,1-.826-.826A2.609,2.609,0,0,1,158.808,9a1.051,1.051,0,0,0,0-1.477,2.682,2.682,0,0,1,0-3.481,1.053,1.053,0,0,0,0-1.478,2.61,2.61,0,0,1-.641-1.741.826.826,0,0,1,1.653,0,1.014,1.014,0,0,0,.3.739,2.611,2.611,0,0,1,.641,1.741,2.611,2.611,0,0,1-.641,1.741,1.051,1.051,0,0,0,0,1.477,2.682,2.682,0,0,1,0,3.48,1.013,1.013,0,0,0-.3.739.826.826,0,0,1-.826.826" transform="translate(-120.823 0)" fill="#12263f"/>
      </g>
    </g>
  </g>
</svg>
