<svg xmlns="http://www.w3.org/2000/svg" xmlns:xlink="http://www.w3.org/1999/xlink" width="74" height="74" viewBox="0 0 74 74">
  <defs>
    <clipPath id="clip-path">
      <rect id="Rectángulo_402766" data-name="Rectángulo 402766" width="46.648" height="45.252" fill="#4a6b7a"/>
    </clipPath>
  </defs>
  <g id="Grupo_1108001" data-name="Grupo 1108001" transform="translate(-658.051 -3678)">
    <circle id="Elipse_14864" data-name="Elipse 14864" cx="37" cy="37" r="37" transform="translate(658.051 3678)" fill="#fefae9"/>
    <g id="Grupo_1107994" data-name="Grupo 1107994" transform="translate(671.727 3691.804)">
      <g id="Grupo_1107993" data-name="Grupo 1107993" clip-path="url(#clip-path)">
        <path id="Trazado_898169" data-name="Trazado 898169" d="M36.974,11.493l2.608-2.608a.7.7,0,1,1,.988.988l-2.608,2.608,2.608,2.61a.7.7,0,1,1-.988.988l-2.608-2.61-2.608,2.61a.7.7,0,0,1-.988-.988l2.608-2.61L33.378,9.873a.7.7,0,0,1,.988-.988Zm0-7.29a8.279,8.279,0,1,0,8.278,8.278A8.282,8.282,0,0,0,36.974,4.2m0-1.4A9.675,9.675,0,1,1,27.3,12.481a9.679,9.679,0,0,1,9.676-9.674M22.881,24.334a.7.7,0,0,1,.4-1.337l.524.159a.7.7,0,1,1-.4,1.337Zm3.239,4.19a.7.7,0,1,1,.4-1.337l.524.159a.7.7,0,1,1-.4,1.337Zm10.638,8.06a.7.7,0,0,1,1.4,0v.547a.7.7,0,0,1-1.4,0Zm-2.318-.849a.7.7,0,1,1-.115-1.392l.545-.046a.7.7,0,1,1,.115,1.392ZM31.48,34.127a.7.7,0,1,1,1.4,0v.547a.7.7,0,1,1-1.4,0ZM21.628,22.91a.7.7,0,0,1-.728-1.192l.466-.284a.7.7,0,0,1,.728,1.192Zm8.323,8.843a.7.7,0,0,1,1.247.631l-.248.488a.7.7,0,1,1-1.245-.631Zm-2.937-1.119a.7.7,0,1,1,1.4,0v.547a.7.7,0,1,1-1.4,0ZM22.191,20.05A.7.7,0,1,1,20.8,20.2l-.058-.543a.7.7,0,1,1,1.388-.145ZM23.4,26.759a.7.7,0,0,1,.4-1.339l.522.159a.7.7,0,0,1-.4,1.337ZM43.181,39.648a.7.7,0,0,1-.5,1.3l-.51-.2a.7.7,0,1,1,.5-1.3Zm-3.248-1.91a.7.7,0,1,1,.567,1.275l-.5.222a.7.7,0,1,1-.567-1.275ZM1.627,7.7a1.192,1.192,0,0,0,.526.571,1.451,1.451,0,0,0,1.241-.05A5.006,5.006,0,0,0,5.687,5.851a5.013,5.013,0,0,0,.585-3.243A1.456,1.456,0,0,0,5.59,1.571a1.459,1.459,0,0,0-1.241.052A5,5,0,0,0,2.056,3.989,7,7,0,0,0,1.74,4.7,4.913,4.913,0,0,0,1.627,7.7m43.5,30.041A3.846,3.846,0,0,0,42.866,35.5l-.02-.01C30.725,29.264,27.193,23.116,24.624,17.823c0-.008-.01-.016-.014-.024a1.671,1.671,0,0,0-.7-.72,1.5,1.5,0,0,0-.722-.159c4.133,9.731,10.265,15.1,21.934,20.817m-1.729,5.2a6.242,6.242,0,0,0,1.164-1.908l.018-.038a6.226,6.226,0,0,0,.6-1.676C32.638,33.262,26.189,27.65,21.848,17.335a6.73,6.73,0,0,0-2.57,2.812c-.089.173-.173.347-.252.522,6.134,10.5,9.256,14.584,24.367,22.271M18.536,24.82c3.08,5.644,7.951,11.951,20.377,18.329l.006,0a4.425,4.425,0,0,0,3.05.629C27.674,36.426,24.22,32.229,18.437,22.424a5.828,5.828,0,0,0-.131.944,2.939,2.939,0,0,0,.23,1.452M3.609,9.627c.21.1.44.19.686.278,8.561,2.5,10.15,6.63,12.51,11.506.1.206.2.413.3.621a10.7,10.7,0,0,1,.928-2.521,7.846,7.846,0,0,1,3.629-3.639,3.808,3.808,0,0,1,1.862-.329c-.234-.484-.472-.958-.718-1.424C20.128,9.052,16.783,4.76,7.513,1.876a3.91,3.91,0,0,1,.121.424,6.426,6.426,0,0,1-.706,4.188A6.438,6.438,0,0,1,3.938,9.506c-.109.046-.22.087-.329.121M.33,8.215A3.537,3.537,0,0,1,.108,7.54a6,6,0,0,1,.3-3.252c.888-3.034,3.558-5.075,6.687-4C17.511,3.328,21.138,7.975,24.041,13.466c3.084,5.833,4.8,13.258,19.431,20.772a5.046,5.046,0,0,1,3.05,3.328,5.933,5.933,0,0,1-.694,4.046,6.137,6.137,0,0,1-2.886,3.314,5.271,5.271,0,0,1-4.67-.535C22.853,36.475,18.758,28.653,15.547,22.02c-1.5-3.1-2.648-5.886-5.743-8.087,1,6.221-.593,7.475-1.218,9.969l0,.01c-.008.03-.014.058-.022.087a11.311,11.311,0,0,1,.809,1.477l.341.746a7.793,7.793,0,0,0,4.157,3.984.7.7,0,1,1-.526,1.293,9.186,9.186,0,0,1-4.9-4.7l-.2-.44a10.2,10.2,0,0,0,.056,1.232c0,.008,0,.018,0,.026a10.025,10.025,0,0,0,1.14,3.669l.389.722a9.179,9.179,0,0,1,.781,6.743l-.46,1.711A.7.7,0,0,1,8.8,40.1l.46-1.71A7.791,7.791,0,0,0,8.6,32.671l-.389-.722c-.034-.063-.067-.127-.1-.192A9.184,9.184,0,0,1,5.79,37.076L4.606,38.393a.7.7,0,1,1-1.039-.932l1.184-1.317a7.787,7.787,0,0,0,2-5.4l-.02-.821A11.534,11.534,0,0,1,6.9,27.654a11.463,11.463,0,0,1,.335-4.1c.631-2.507,2.332-3.689.976-10.61a22.36,22.36,0,0,0-4.319-1.708.168.168,0,0,1-.034-.01A5.3,5.3,0,0,1,.386,8.356C.366,8.31.346,8.262.33,8.215" transform="translate(0 0)" fill="#4a6b7a" fill-rule="evenodd"/>
      </g>
    </g>
  </g>
</svg>
