<svg xmlns="http://www.w3.org/2000/svg" xmlns:xlink="http://www.w3.org/1999/xlink" width="90" height="90" viewBox="0 0 90 90">
  <defs>
    <clipPath id="clip-path">
      <rect id="Rectángulo_403006" data-name="Rectángulo 403006" width="55.5" height="47.889" fill="none"/>
    </clipPath>
  </defs>
  <g id="Grupo_1108267" data-name="Grupo 1108267" transform="translate(-1227.051 -1656)">
    <g id="Grupo_1107897" data-name="Grupo 1107897" transform="translate(892.27 -2177)">
      <g id="Grupo_1098742" data-name="Grupo 1098742" transform="translate(-868.539 3444.258)">
        <g id="Rectángulo_400898" data-name="Rectángulo 400898" transform="translate(1203.32 388.742)" fill="#fdbabb" stroke="#fff" stroke-width="3" opacity="0.859">
          <rect width="90" height="90" rx="45" stroke="none"/>
          <rect x="1.5" y="1.5" width="87" height="87" rx="43.5" fill="none"/>
        </g>
        <g id="Rectángulo_400907" data-name="Rectángulo 400907" transform="translate(1203.32 388.742)" fill="none" stroke="#fff" stroke-width="3">
          <rect width="90" height="90" rx="45" stroke="none"/>
          <rect x="1.5" y="1.5" width="87" height="87" rx="43.5" fill="none"/>
        </g>
      </g>
    </g>
    <g id="Grupo_1108266" data-name="Grupo 1108266" transform="translate(1244.051 1677)">
      <g id="Grupo_1108265" data-name="Grupo 1108265" clip-path="url(#clip-path)">
        <path id="Trazado_898625" data-name="Trazado 898625" d="M12.448,25a.783.783,0,0,1-.555-.23L2.545,15.419a8.689,8.689,0,0,1,0-12.289l.571-.571a8.7,8.7,0,0,1,12.289,0l9.347,9.347a.785.785,0,0,1,0,1.111L13,24.766a.784.784,0,0,1-.556.23M9.261,1.589A7.1,7.1,0,0,0,4.228,3.67l-.571.571a7.118,7.118,0,0,0,0,10.067L12.448,23.1,23.086,12.461,14.295,3.67A7.1,7.1,0,0,0,9.261,1.589" transform="translate(0 -0.014)"/>
        <path id="Trazado_898626" data-name="Trazado 898626" d="M33.223,45.557a.786.786,0,0,1-.556-1.341l11.55-11.55a.786.786,0,0,1,1.111,1.111l-11.55,11.55a.783.783,0,0,1-.555.23" transform="translate(-25.157 -25.155)"/>
        <path id="Trazado_898627" data-name="Trazado 898627" d="M148.518,24.982a.785.785,0,0,1-.555-.23L136.213,13a.786.786,0,0,1,0-1.111l9.347-9.347a8.689,8.689,0,0,1,12.289,0l.571.571a8.7,8.7,0,0,1,0,12.289l-9.347,9.347a.785.785,0,0,1-.556.23M137.879,12.447l10.638,10.638,8.791-8.791a7.118,7.118,0,0,0,0-10.067l-.571-.571a7.119,7.119,0,0,0-10.067,0Z" transform="translate(-105.461 0)"/>
        <path id="Trazado_898628" data-name="Trazado 898628" d="M168.725,45.557a.784.784,0,0,1-.556-.23l-11.55-11.55a.786.786,0,1,1,1.111-1.111l11.55,11.55a.786.786,0,0,1-.556,1.341" transform="translate(-121.287 -25.155)"/>
        <path id="Trazado_898629" data-name="Trazado 898629" d="M84.136,102.3a.785.785,0,1,1,.155-1.555.837.837,0,0,1,.146.043.781.781,0,0,1,.137.074.67.67,0,0,1,.119.1.68.68,0,0,1,.1.119.8.8,0,0,1,.074.137,1.065,1.065,0,0,1,.045.146.9.9,0,0,1,.016.155.791.791,0,0,1-.231.555.843.843,0,0,1-.119.1.952.952,0,0,1-.137.072,1.1,1.1,0,0,1-.146.045.906.906,0,0,1-.155.015" transform="translate(-64.642 -78.122)"/>
        <path id="Trazado_898630" data-name="Trazado 898630" d="M121.456,139.611a.738.738,0,0,1-.155-.016.682.682,0,0,1-.146-.045.728.728,0,0,1-.137-.072.8.8,0,0,1-.119-.1.811.811,0,0,1-.1-.121.64.64,0,0,1-.072-.134.654.654,0,0,1-.045-.148.75.75,0,0,1,0-.305.655.655,0,0,1,.045-.148.647.647,0,0,1,.072-.135.8.8,0,0,1,.1-.119.693.693,0,0,1,.119-.1.869.869,0,0,1,.137-.072.682.682,0,0,1,.146-.045.787.787,0,0,1,.307,0,.666.666,0,0,1,.148.045.76.76,0,0,1,.135.072.7.7,0,0,1,.119.1.781.781,0,0,1,.231.554.693.693,0,0,1-.016.153.809.809,0,0,1-.045.148.951.951,0,0,1-.072.134.838.838,0,0,1-.1.121.8.8,0,0,1-.119.1.648.648,0,0,1-.135.072.666.666,0,0,1-.148.045.7.7,0,0,1-.153.016" transform="translate(-93.585 -107.057)"/>
        <path id="Trazado_898631" data-name="Trazado 898631" d="M101.486,129.135a.8.8,0,0,1-.557-.231.789.789,0,0,1-.229-.554.694.694,0,0,1,.016-.153.657.657,0,0,1,.045-.148.591.591,0,0,1,.072-.134.776.776,0,0,1,1.208-.121.836.836,0,0,1,.1.121.822.822,0,0,1,.072.134.8.8,0,0,1,.045.148.708.708,0,0,1,.016.153.789.789,0,0,1-.786.786" transform="translate(-78.097 -98.939)"/>
        <path id="Trazado_898632" data-name="Trazado 898632" d="M64.7,187.961a.794.794,0,0,1-.557-.229.729.729,0,0,1-.1-.121.6.6,0,0,1-.072-.135.684.684,0,0,1-.045-.146.726.726,0,0,1-.016-.155.785.785,0,0,1,.938-.77.873.873,0,0,1,.148.045.927.927,0,0,1,.134.072.829.829,0,0,1,.218.218.927.927,0,0,1,.072.134.737.737,0,0,1,.045.148.721.721,0,0,1,.016.153.741.741,0,0,1-.016.155.673.673,0,0,1-.045.146.836.836,0,0,1-.072.135.741.741,0,0,1-.1.121.789.789,0,0,1-.554.229" transform="translate(-49.565 -144.555)"/>
        <path id="Trazado_898633" data-name="Trazado 898633" d="M110.946,181.655a.792.792,0,0,1-.557-.231.828.828,0,0,1-.1-.119.612.612,0,0,1-.072-.137.688.688,0,0,1-.045-.146.76.76,0,0,1,0-.307.68.68,0,0,1,.045-.146.664.664,0,0,1,.072-.137.826.826,0,0,1,.1-.119.794.794,0,0,1,.709-.215,1.254,1.254,0,0,1,.148.045.76.76,0,0,1,.134.074.692.692,0,0,1,.119.1.841.841,0,0,1,.1.119.966.966,0,0,1,.072.137.818.818,0,0,1,.045.146.76.76,0,0,1,0,.307.83.83,0,0,1-.045.146.859.859,0,0,1-.072.137.843.843,0,0,1-.1.119.791.791,0,0,1-.554.231" transform="translate(-85.434 -139.662)"/>
        <path id="Trazado_898634" data-name="Trazado 898634" d="M137.216,162.731a.784.784,0,0,1-.554-1.34.845.845,0,0,1,.119-.1.952.952,0,0,1,.137-.072,1.108,1.108,0,0,1,.146-.045.788.788,0,0,1,.307,0,1.11,1.11,0,0,1,.146.045.744.744,0,0,1,.256.17.785.785,0,0,1-.557,1.34" transform="translate(-105.808 -124.987)"/>
        <path id="Trazado_898635" data-name="Trazado 898635" d="M137.216,207.967a.784.784,0,0,1-.554-1.34.81.81,0,0,1,1.111,0,.784.784,0,0,1-.557,1.34" transform="translate(-105.808 -160.077)"/>
        <path id="Trazado_898636" data-name="Trazado 898636" d="M174.007,194.272a.743.743,0,0,1-.155-.016.69.69,0,0,1-.146-.045.948.948,0,0,1-.136-.072.685.685,0,0,1-.119-.1.835.835,0,0,1-.1-.119,1.024,1.024,0,0,1-.072-.134.8.8,0,0,1-.045-.148.883.883,0,0,1-.016-.153.791.791,0,0,1,.232-.555.685.685,0,0,1,.119-.1.767.767,0,0,1,.136-.072.69.69,0,0,1,.146-.045.788.788,0,0,1,.94.77.84.84,0,0,1-.016.153.816.816,0,0,1-.045.148.931.931,0,0,1-.072.134.814.814,0,0,1-.1.119.783.783,0,0,1-.555.231" transform="translate(-134.339 -149.449)"/>
        <path id="Trazado_898637" data-name="Trazado 898637" d="M158.246,175.351a.79.79,0,0,1-.556-.231.806.806,0,0,1-.1-.119.63.63,0,0,1-.072-.134.659.659,0,0,1-.045-.148.751.751,0,0,1,0-.305.659.659,0,0,1,.045-.148.636.636,0,0,1,.072-.134.784.784,0,0,1,.215-.218.665.665,0,0,1,.137-.072.683.683,0,0,1,.146-.045.787.787,0,0,1,.307,0,.666.666,0,0,1,.148.045.649.649,0,0,1,.135.072.7.7,0,0,1,.119.1.782.782,0,0,1,.231.555.692.692,0,0,1-.016.153.669.669,0,0,1-.045.148.951.951,0,0,1-.072.134.831.831,0,0,1-.1.119.781.781,0,0,1-.554.231" transform="translate(-122.117 -134.775)"/>
        <path id="Trazado_898638" data-name="Trazado 898638" d="M114.1,89.195a.791.791,0,0,1-.554-.231.782.782,0,0,1-.231-.554.742.742,0,0,1,.016-.155.683.683,0,0,1,.045-.146.765.765,0,0,1,.072-.137.723.723,0,0,1,.1-.119.815.815,0,0,1,1.111,0,.827.827,0,0,1,.1.119.654.654,0,0,1,.072.137.683.683,0,0,1,.045.146.742.742,0,0,1,.015.155.785.785,0,0,1-.786.786" transform="translate(-87.877 -67.964)"/>
        <path id="Trazado_898639" data-name="Trazado 898639" d="M138.276,104.922a.79.79,0,0,1-.557-.229.682.682,0,0,1-.1-.119.808.808,0,0,1-.074-.137,1.066,1.066,0,0,1-.045-.146.9.9,0,0,1-.013-.155.859.859,0,0,1,.013-.153,1.215,1.215,0,0,1,.045-.148.778.778,0,0,1,.074-.134.683.683,0,0,1,.1-.119.8.8,0,0,1,.709-.215.94.94,0,0,1,.148.045.95.95,0,0,1,.134.072.845.845,0,0,1,.119.1.83.83,0,0,1,.1.119.926.926,0,0,1,.072.134.938.938,0,0,1,.045.148.706.706,0,0,1,.016.153.74.74,0,0,1-.016.155.842.842,0,0,1-.045.146.965.965,0,0,1-.072.137.829.829,0,0,1-.1.119.8.8,0,0,1-.119.1.642.642,0,0,1-.134.072.753.753,0,0,1-.148.045.734.734,0,0,1-.153.015" transform="translate(-106.63 -80.154)"/>
        <path id="Trazado_898640" data-name="Trazado 898640" d="M133.016,74.477a.788.788,0,0,1-.554-.229,1,1,0,0,1-.1-.121.926.926,0,0,1-.072-.134.808.808,0,0,1-.045-.148.719.719,0,0,1-.015-.153.782.782,0,0,1,.231-.555.81.81,0,0,1,1.111,0,.789.789,0,0,1,.229.555.692.692,0,0,1-.016.153.677.677,0,0,1-.045.148.633.633,0,0,1-.072.134.941.941,0,0,1-.1.121.8.8,0,0,1-.557.229" transform="translate(-102.55 -56.55)"/>
        <path id="Trazado_898641" data-name="Trazado 898641" d="M164.554,139.648a.788.788,0,0,1-.554-.229,1,1,0,0,1-.1-.121.949.949,0,0,1-.072-.134,1.058,1.058,0,0,1-.045-.146.9.9,0,0,1-.013-.155.863.863,0,0,1,.013-.153,1.01,1.01,0,0,1,.045-.148.965.965,0,0,1,.072-.135,1.018,1.018,0,0,1,.1-.121.817.817,0,0,1,1.111,0,.8.8,0,0,1,.171.256,1.01,1.01,0,0,1,.045.148.863.863,0,0,1,.013.153.9.9,0,0,1-.013.155,1.057,1.057,0,0,1-.045.146.8.8,0,0,1-.171.256.789.789,0,0,1-.557.229" transform="translate(-127.012 -107.093)"/>
        <path id="Trazado_898642" data-name="Trazado 898642" d="M166.656,112.282a.741.741,0,0,1-.155-.016.673.673,0,0,1-.146-.045.664.664,0,0,1-.137-.072.815.815,0,0,1-.119-.1.793.793,0,0,1-.229-.556.858.858,0,0,1,.013-.153,1.031,1.031,0,0,1,.045-.148.787.787,0,0,1,.074-.135.693.693,0,0,1,.1-.119.843.843,0,0,1,.119-.1.992.992,0,0,1,.137-.072.842.842,0,0,1,.146-.045.779.779,0,0,1,.308,0,.842.842,0,0,1,.146.045.866.866,0,0,1,.137.072.832.832,0,0,1,.218.218.941.941,0,0,1,.072.135.794.794,0,0,1,.045.148.859.859,0,0,1,.016.153.78.78,0,0,1-.35.653.6.6,0,0,1-.137.072.672.672,0,0,1-.146.045.735.735,0,0,1-.153.016" transform="translate(-128.64 -85.861)"/>
        <path id="Trazado_898643" data-name="Trazado 898643" d="M143.526,124.891a.863.863,0,0,1-.153-.014,1.211,1.211,0,0,1-.148-.045.788.788,0,0,1-.135-.074.681.681,0,0,1-.119-.1.83.83,0,0,1-.1-.119.848.848,0,0,1-.072-.137.865.865,0,0,1-.045-.146.737.737,0,0,1-.015-.155.792.792,0,0,1,.231-.555.829.829,0,0,1,.119-.1.943.943,0,0,1,.135-.072,1.21,1.21,0,0,1,.148-.045.788.788,0,0,1,.308,0,1.059,1.059,0,0,1,.146.045.824.824,0,0,1,.134.072.74.74,0,0,1,.121.1.789.789,0,0,1,.229.555.9.9,0,0,1-.014.155.835.835,0,0,1-.047.146.606.606,0,0,1-.072.137.8.8,0,0,1-.1.119.621.621,0,0,1-.121.1.7.7,0,0,1-.134.074,1.06,1.06,0,0,1-.146.045.9.9,0,0,1-.155.014" transform="translate(-110.701 -95.641)"/>
        <path id="Trazado_898644" data-name="Trazado 898644" d="M83.616,156.431a.74.74,0,0,1-.155-.015.845.845,0,0,1-.146-.045.943.943,0,0,1-.135-.072.749.749,0,0,1-.121-.1.817.817,0,0,1-.1-.119.647.647,0,0,1-.072-.134.669.669,0,0,1-.045-.148.693.693,0,0,1-.016-.153.793.793,0,0,1,.229-.556.728.728,0,0,1,.121-.1.6.6,0,0,1,.135-.072.685.685,0,0,1,.146-.045.788.788,0,0,1,.308,0,.667.667,0,0,1,.148.045.648.648,0,0,1,.135.072.814.814,0,0,1,.119.1.8.8,0,0,1,.231.556.707.707,0,0,1-.016.153.657.657,0,0,1-.045.148.938.938,0,0,1-.072.134.831.831,0,0,1-.1.119.842.842,0,0,1-.119.1.943.943,0,0,1-.135.072.811.811,0,0,1-.148.045.706.706,0,0,1-.153.015" transform="translate(-64.238 -120.101)"/>
        <path id="Trazado_898645" data-name="Trazado 898645" d="M66.8,129.135a.792.792,0,0,1-.554-.231.717.717,0,0,1-.1-.119.75.75,0,0,1-.072-.134.669.669,0,0,1-.045-.148.705.705,0,0,1-.016-.153.739.739,0,0,1,.016-.155.686.686,0,0,1,.045-.146.758.758,0,0,1,.072-.134.722.722,0,0,1,.1-.121.812.812,0,0,1,1.109,0,.71.71,0,0,1,.1.121.759.759,0,0,1,.072.134.686.686,0,0,1,.045.146.74.74,0,0,1,.015.155.706.706,0,0,1-.015.153.669.669,0,0,1-.045.148.751.751,0,0,1-.072.134.705.705,0,0,1-.1.119.793.793,0,0,1-.555.231" transform="translate(-51.194 -98.939)"/>
      </g>
    </g>
  </g>
</svg>
