<svg id="Grupo_1107884" data-name="Grupo 1107884" xmlns="http://www.w3.org/2000/svg" xmlns:xlink="http://www.w3.org/1999/xlink" width="56.856" height="49.952" viewBox="0 0 56.856 49.952">
  <defs>
    <clipPath id="clip-path">
      <rect id="Rectángulo_402664" data-name="Rectángulo 402664" width="56.856" height="49.952" transform="translate(0 0)" fill="none"/>
    </clipPath>
  </defs>
  <g id="Grupo_1107883" data-name="Grupo 1107883" transform="translate(0 0)" clip-path="url(#clip-path)">
    <path id="Trazado_898101" data-name="Trazado 898101" d="M1.894,49.949H54.879a1.731,1.731,0,0,0,1.6-.845,1.971,1.971,0,0,0,.169-2.029L30.114,1.011A2.183,2.183,0,0,0,28.681,0,2.4,2.4,0,0,0,26.66,1.011L.21,46.991A2.332,2.332,0,0,0,.294,49.1a2.5,2.5,0,0,0,1.6.845" transform="translate(0 0.003)" fill="#231f20" fill-rule="evenodd"/>
    <path id="Trazado_898102" data-name="Trazado 898102" d="M124.165,113.8l23.521,41.7h-47.46Z" transform="translate(-96 -108.997)" fill="#fd0" fill-rule="evenodd"/>
    <path id="Trazado_898103" data-name="Trazado 898103" d="M575.606,891.031a4.278,4.278,0,0,1,3.007,1.065,3.928,3.928,0,0,1,1.163,3.048,3.036,3.036,0,0,1-1.163,2.387,4.051,4.051,0,0,1-2.712.992,3.844,3.844,0,0,1-2.749-1.212,3.689,3.689,0,0,1-1.236-2.681,3.4,3.4,0,0,1,1.107-2.534,3.61,3.61,0,0,1,2.583-1.065" transform="translate(-547.804 -853.465)" fill="#231f20"/>
    <path id="Trazado_898104" data-name="Trazado 898104" d="M566.974,316.279q0-.748,1.151-1.3a6.655,6.655,0,0,1,2.9-.556,5.3,5.3,0,0,1,2.738.637q1.072.637,1.072,1.385,0,1.86-.794,8.937t-.913,8.482a4.687,4.687,0,0,1-.476,1.971q-.357.566-1.786.566-1.668,0-1.786-1.112Z" transform="translate(-543.07 -301.163)" fill="#231f20"/>
  </g>
</svg>
