<svg xmlns="http://www.w3.org/2000/svg" xmlns:xlink="http://www.w3.org/1999/xlink" width="74" height="74" viewBox="0 0 74 74">
  <defs>
    <clipPath id="clip-path">
      <rect id="Rectángulo_402764" data-name="Rectángulo 402764" width="42.203" height="47.21" fill="#4a6b7a"/>
    </clipPath>
  </defs>
  <g id="Grupo_1108008" data-name="Grupo 1108008" transform="translate(-1289.051 -3506)">
    <circle id="Elipse_14862" data-name="Elipse 14862" cx="37" cy="37" r="37" transform="translate(1289.051 3506)" fill="#fefae9"/>
    <g id="Grupo_1107990" data-name="Grupo 1107990" transform="translate(1305.848 3521.301)">
      <g id="Grupo_1107989" data-name="Grupo 1107989" clip-path="url(#clip-path)">
        <path id="Trazado_898167" data-name="Trazado 898167" d="M30.887,8.695a.691.691,0,1,1,.892,1.057,2.289,2.289,0,0,0-.878,1.222,3.707,3.707,0,0,0,.326,1.721,2.625,2.625,0,0,1,.028,1.442,2.941,2.941,0,0,1-1.128,1.491.692.692,0,1,1-.843-1.1,1.632,1.632,0,0,0,.642-.782,2.086,2.086,0,0,0-.189-1.214,3.693,3.693,0,0,1-.208-1.752,3.5,3.5,0,0,1,1.357-2.086M10.675,9.751a.691.691,0,1,1,.892-1.057,3.489,3.489,0,0,1,1.355,2.086,3.693,3.693,0,0,1-.206,1.752,2.087,2.087,0,0,0-.191,1.214,1.632,1.632,0,0,0,.642.782.691.691,0,0,1-.841,1.1,2.935,2.935,0,0,1-1.13-1.491,2.625,2.625,0,0,1,.028-1.442,3.707,3.707,0,0,0,.326-1.721,2.283,2.283,0,0,0-.876-1.222m28.369,4.056a.692.692,0,0,1-1.226-.642l2.42-4.606-3.852.7A.692.692,0,0,1,35.6,8.37l1.63-5.084L33.087,5a.691.691,0,0,1-.955-.633l-.02-2.373L28.84,4.226a.692.692,0,0,1-.78-1.143L32.4.12a.691.691,0,0,1,1.08.566l.024,2.644,4.577-1.89a.692.692,0,0,1,.923.851l-1.735,5.4,4.115-.752a.692.692,0,0,1,.735,1ZM4.384,13.165a.692.692,0,0,1-1.226.642L.08,7.946a.692.692,0,0,1,.735-1l4.115.752L3.2,2.291a.692.692,0,0,1,.923-.851L8.7,3.33,8.719.686A.691.691,0,0,1,9.8.12l4.343,2.962a.692.692,0,0,1-.78,1.143L10.09,1.994l-.02,2.373A.691.691,0,0,1,9.116,5L4.969,3.287,6.6,8.37a.692.692,0,0,1-.784.892l-3.852-.7ZM20.491,35.842a.75.75,0,0,1,1.469,0l2.363,9.085a1.2,1.2,0,0,0,1.322.89l.32-.043A1.2,1.2,0,0,0,27,44.423L25.563,33.717a.475.475,0,0,1-.008-.092V28.036a.69.69,0,0,1,.206-.491l7.347-7.262a.891.891,0,0,0,.006-1.261l-.047-.049a.893.893,0,0,0-1.263-.008L31.769,19,26.51,23.522a.687.687,0,0,1-.45.169H16.845a.7.7,0,0,1-.43-.149L10.7,19.015a.7.7,0,0,1-.057-.051.893.893,0,0,0-1.263.008l-.047.049a.891.891,0,0,0,.008,1.261l7.345,7.262a.69.69,0,0,1,.206.491v5.589a.706.706,0,0,1-.006.092L15.455,44.423a1.2,1.2,0,0,0,1.031,1.351l.32.043a1.2,1.2,0,0,0,1.322-.89Zm.735,2.672-1.758,6.763a2.585,2.585,0,0,1-2.846,1.909l-.32-.041a2.585,2.585,0,0,1-2.218-2.905l1.43-10.661V28.325l-7.14-7.058a2.275,2.275,0,0,1-.02-3.218L8.4,18a2.275,2.275,0,0,1,3.188-.047l5.5,4.353H25.8l5.046-4.343a2.277,2.277,0,0,1,3.2.037l.047.049a2.275,2.275,0,0,1-.018,3.218l-7.14,7.058v5.255L28.368,44.24a2.585,2.585,0,0,1-2.218,2.905l-.32.041a2.583,2.583,0,0,1-2.844-1.909ZM22.515,3.7,19.6,8.042l2.784,1.049a.69.69,0,0,1,.414.858l-.807,2.512,3.053-3.815L22.5,7.4a.69.69,0,0,1-.381-.711ZM19.947,14.309a3.326,3.326,0,1,0,2.43-.11l-1.652,2.063a.692.692,0,0,1-1.2-.644Zm3.332-1.236a4.709,4.709,0,1,1-2.819-.359l.823-2.56L18.3,9.029A.691.691,0,0,1,17.969,8L23.014.472a.691.691,0,0,1,1.259.475l-.717,5.43,2.876,1.408a.693.693,0,0,1,.236,1.053Z" transform="translate(0 0)" fill="#4a6b7a" fill-rule="evenodd"/>
      </g>
    </g>
  </g>
</svg>
