<svg xmlns="http://www.w3.org/2000/svg" width="120" height="120" viewBox="0 0 120 120">
  <g id="Grupo_1107891" data-name="Grupo 1107891" transform="translate(-635.051 -812)">
    <circle id="Elipse_14836" data-name="Elipse 14836" cx="60" cy="60" r="60" transform="translate(635.051 812)" fill="#d2e1f1"/>
    <g id="cicla" transform="translate(654.051 808.828)">
      <path id="Trazado_898112" data-name="Trazado 898112" d="M22.2,309.692a14.364,14.364,0,1,0,14.364,14.364A14.364,14.364,0,0,0,22.2,309.692Zm0,25.474a11.11,11.11,0,1,1,11.11-11.11A11.11,11.11,0,0,1,22.2,335.166Z" transform="translate(-6.563 -244.521)" fill="#826b6b"/>
      <g id="Grupo_1107886" data-name="Grupo 1107886" transform="translate(12.309 76.205)">
        <circle id="Elipse_14839" data-name="Elipse 14839" cx="3.328" cy="3.328" r="3.328" transform="translate(0 0)" fill="#6dd0e3"/>
        <circle id="Elipse_14840" data-name="Elipse 14840" cx="3.328" cy="3.328" r="3.328" transform="translate(51.939 0)" fill="#6dd0e3"/>
      </g>
      <path id="Trazado_898113" data-name="Trazado 898113" d="M341.773,309.692a14.364,14.364,0,1,0,14.364,14.364A14.364,14.364,0,0,0,341.773,309.692Zm0,25.474a11.11,11.11,0,1,1,11.11-11.11A11.11,11.11,0,0,1,341.773,335.166Z" transform="translate(-274.196 -244.521)" fill="#826b6b"/>
      <path id="Trazado_898114" data-name="Trazado 898114" d="M138.278,162.449a2.548,2.548,0,0,1-.443-5.056l3.105-.552-1.457-15.163a2.548,2.548,0,0,1,.635-1.94l9.648-10.806-9.174-14.284-5.614,7.948a2.548,2.548,0,0,1-.711.678l-12.087,7.708a2.547,2.547,0,0,1-2.739-4.3l11.665-7.439,7.507-10.628a2.547,2.547,0,0,1,4.224.093L155.1,127.807a2.547,2.547,0,0,1-.243,3.073L144.661,142.3l1.575,16.394a2.547,2.547,0,0,1-2.09,2.752l-5.42.964A2.538,2.538,0,0,1,138.278,162.449Z" transform="translate(-99.042 -75.226)" fill="#ffdc7b"/>
      <circle id="Elipse_14841" data-name="Elipse 14841" cx="4.964" cy="4.964" r="4.964" transform="translate(35.458 18.991)" fill="#ffa163"/>
      <path id="Trazado_898115" data-name="Trazado 898115" d="M79.659,138.271a1.274,1.274,0,1,0-1.967,1.618,13.09,13.09,0,1,1-23.142,9.584h.709a12.4,12.4,0,1,0,5.99-11.913l-.424-.57A13.1,13.1,0,0,1,71.771,135.8a1.274,1.274,0,0,0,.816-2.413A15.644,15.644,0,0,0,59.3,134.939l-5.117-6.877,2.584-2.894c.064-.071.123-.145.18-.219h3.173a1.274,1.274,0,0,0,0-2.547H57.724a3.8,3.8,0,0,0-.594-1.843l-4.83-7.521a1.274,1.274,0,0,0-2.143,1.376l4.83,7.521a1.277,1.277,0,0,1-.122,1.536L44.67,134.89a1.273,1.273,0,0,0-.318.97l.773,8.049c0,.007,0,.014,0,.021l.8,8.324a1.281,1.281,0,0,1-1.045,1.376l-5.419.963a1.274,1.274,0,1,1-.447-2.508l3.105-.552a1.273,1.273,0,0,0,1.045-1.376L41.71,135a1.278,1.278,0,0,1,.318-.97l9.647-10.806a1.274,1.274,0,0,0,.122-1.537L42.623,107.4a1.274,1.274,0,0,0-2.112-.047L34.9,115.3a1.266,1.266,0,0,1-.355.339l-12.088,7.708a1.274,1.274,0,0,1-1.37-2.148l11.665-7.439a1.269,1.269,0,0,0,.356-.339l7.507-10.628a1.287,1.287,0,0,1,1.068-.538,1.272,1.272,0,0,1,1.044.585l3.778,5.883a1.274,1.274,0,0,0,2.143-1.376l-3.778-5.883a3.821,3.821,0,0,0-6.336-.14l-7.362,10.423-11.454,7.3a3.819,3.819,0,0,0,2.452,7.02l-2.5,7.018a15.648,15.648,0,1,0,2.4.856l1.361-3.82,16.761,15.666.33,3.441-1.948.346a3.821,3.821,0,1,0,1.338,7.524l5.42-.964a3.842,3.842,0,0,0,3.135-4.127l-.244-2.538h3.773a15.637,15.637,0,1,0,27.667-11.2ZM28.727,148.2a13.093,13.093,0,1,1-9.919-12.7l-.239.67A12.378,12.378,0,0,0,3.253,148.2a1.274,1.274,0,1,0,2.547,0,9.832,9.832,0,0,1,11.909-9.614l-1.789,5.022c-.094-.006-.188-.01-.284-.01a4.609,4.609,0,1,0,2.683.866l1.788-5.021A9.835,9.835,0,1,1,7.972,154.363a1.274,1.274,0,1,0-1.984,1.6A12.383,12.383,0,1,0,20.97,137.025l.238-.668A13.106,13.106,0,0,1,28.727,148.2Zm-11.035,0a2.055,2.055,0,1,1-2.714-1.944l-.54,1.517a1.274,1.274,0,1,0,2.4.855l.54-1.516A2.036,2.036,0,0,1,17.692,148.2Zm7.752-23.738,10.467-6.675a3.8,3.8,0,0,0,1.066-1.017l4.524-6.4,7.629,11.879L45,126.868H24.587Zm.954,4.954H42.729l-2.6,2.914a3.832,3.832,0,0,0-.953,2.91l.646,6.721Zm34.34,11.725,3.18,4.274a4.587,4.587,0,0,0-.761,1.512h-5.33A9.815,9.815,0,0,1,60.737,141.14Zm7.978,7.631a1.274,1.274,0,0,0-.116-1.332l-.961-1.291a2.054,2.054,0,1,1-1.67,3.325h1.609A1.274,1.274,0,0,0,68.715,148.771Zm-1.138-10.408a9.836,9.836,0,1,1-9.751,11.11h5.33a4.6,4.6,0,1,0,2.8-5.582l-3.181-4.274A9.772,9.772,0,0,1,67.577,138.363Zm-8.371.72a12.363,12.363,0,0,0-3.948,7.843H54.55a13.069,13.069,0,0,1,4.232-8.413Zm-10.222-5.2-1.825,4.561-.218-2.273ZM47.69,143.974l5.3-13.246,4.267,5.734a15.613,15.613,0,0,0-5.265,10.463H47.974Z" transform="translate(0 -68.665)"/>
      <path id="Trazado_898116" data-name="Trazado 898116" d="M216.558,30.194a6.238,6.238,0,1,0-6.238-6.238A6.245,6.245,0,0,0,216.558,30.194Zm0-9.93a3.691,3.691,0,1,1-3.691,3.691A3.7,3.7,0,0,1,216.558,20.264Z" transform="translate(-176.137)"/>
    </g>
  </g>
</svg>
