<svg xmlns="http://www.w3.org/2000/svg" xmlns:xlink="http://www.w3.org/1999/xlink" width="74" height="74" viewBox="0 0 74 74">
  <defs>
    <clipPath id="clip-path">
      <rect id="Rectángulo_402765" data-name="Rectángulo 402765" width="54.04" height="45.056" fill="#4a6b7a"/>
    </clipPath>
  </defs>
  <g id="Grupo_1108002" data-name="Grupo 1108002" transform="translate(-446.051 -3678)">
    <circle id="Elipse_14863" data-name="Elipse 14863" cx="37" cy="37" r="37" transform="translate(446.051 3678)" fill="#fefae9"/>
    <g id="Grupo_1107992" data-name="Grupo 1107992" transform="translate(456.051 3692)">
      <g id="Grupo_1107991" data-name="Grupo 1107991" clip-path="url(#clip-path)">
        <path id="Trazado_898168" data-name="Trazado 898168" d="M8.451,19.238a1.341,1.341,0,1,0,1.533,0v1.1a.767.767,0,0,1-1.533,0ZM27.48,6.231h7.658v-4.7H27.48ZM8.451,14.1c-3.891.472-6.92,3.41-6.92,7.009,0,2.914,1.3,5.817,3.349,8.732,3.2,4.545,8.221,9.084,13.312,13.628h0a.213.213,0,0,0,.285,0h0A117.8,117.8,0,0,0,29.67,32.558H22.737a.766.766,0,1,1,0-1.531h8.175q.46-.594.876-1.187c2.051-2.914,3.349-5.817,3.349-8.732,0-3.93-3.612-7.074-8.018-7.074-3.538,0-5.522,1.4-7.32,4.162a1.746,1.746,0,0,1-2.927,0c-1.725-2.651-3.617-4.045-6.887-4.156v3.53a2.872,2.872,0,1,1-1.533,0Zm23.2,18.459C28.433,36.575,24,40.6,19.5,44.61a1.74,1.74,0,0,1-2.327,0C11.989,39.983,6.885,35.35,3.627,30.72,1.374,27.519,0,24.309,0,21.108c0-4.393,3.68-8.057,8.451-8.551V3.882a.766.766,0,0,1,.768-.766h16.73V1.3a1.3,1.3,0,0,1,1.3-1.3h8.127a1.3,1.3,0,0,1,1.3,1.3V6.465a1.3,1.3,0,0,1-1.3,1.3H27.245a1.3,1.3,0,0,1-1.3-1.3V4.647H9.984v7.859c3.884.111,6.135,1.722,8.173,4.854v0a.206.206,0,0,0,.178.1.209.209,0,0,0,.181-.1c2.109-3.247,4.45-4.858,8.6-4.858,5.3,0,9.551,3.88,9.551,8.605,0,3.2-1.377,6.411-3.63,9.612-.072.1-.144.2-.217.307h1.322a.767.767,0,0,1,.7.468l1.292,3.042,2.882-8.888a.766.766,0,0,1,1.488.126L42.2,37.545l1.524-8.036a.766.766,0,0,1,1.466-.135l1.557,4.019,1.044-1.955a.763.763,0,0,1,.674-.407l4.813,0a.766.766,0,0,1,0,1.531l-4.352,0L47.309,35.59a.767.767,0,0,1-1.39-.085l-1.194-3.079-1.883,9.923a.766.766,0,0,1-1.511-.033L39.463,29.261l-2.5,7.7a.766.766,0,0,1-1.433.063l-1.894-4.465Z" transform="translate(0)" fill="#4a6b7a" fill-rule="evenodd"/>
      </g>
    </g>
  </g>
</svg>
