<svg xmlns="http://www.w3.org/2000/svg" width="190" height="129" viewBox="0 0 190 129">
  <g id="Grupo_1108296" data-name="Grupo 1108296" transform="translate(-1230 -816)">
    <rect id="Rectángulo_402663" data-name="Rectángulo 402663" width="190" height="129" rx="8" transform="translate(1230 816)" fill="#f6d530"/>
    <g id="Grupo_1108021" data-name="Grupo 1108021" transform="translate(371.426 -4101.523)">
      <g id="Grupo_1108013" data-name="Grupo 1108013" transform="translate(898.051 4927)">
        <circle id="Elipse_14837" data-name="Elipse 14837" cx="56" cy="56" r="56" transform="translate(-0.477 -0.477)" fill="#fbeeab"/>
      </g>
      <g id="artwork" transform="translate(908.646 4960.088)">
        <g id="_19_exercise-1" data-name="19_exercise-1" transform="translate(0 0)">
          <path id="Trazado_898204" data-name="Trazado 898204" d="M349.611,152.36,342.1,154.1l-14.172.577s-4.4.909-1.878,4.512l5.157,7.346a4.783,4.783,0,0,0,2.3,3.618,4.319,4.319,0,0,0,4.439-.079c1.232-.818,2.132-2.435,1.778-3.678a10.364,10.364,0,0,0-1.9-2.3h0l-6.293-5.382,11.266-1.369a4.468,4.468,0,0,0,5.149-1.672,19.765,19.765,0,0,1,2.357-3.017Z" transform="translate(-273.589 -146.677)" fill="#dcd3d4"/>
          <path id="Trazado_898205" data-name="Trazado 898205" d="M68.138,249.786l-8.314-11.712A6.942,6.942,0,0,0,53,236.9l-12.947,4.048.212.529-10.993,5.011-1.471.28a.889.889,0,0,0,.213,1.762l.873-.048a5.269,5.269,0,0,0,4.85-.679c3.071-1.866,5.011,2.029,8.663-2a64.606,64.606,0,0,0,12.155-1.714s2.2,17.03,9.762,17.226c10.614.273,11.505-3.487,11.505-3.487A12.771,12.771,0,0,1,68.138,249.786Z" transform="translate(-23.599 -217.218)" fill="#dcd3d4"/>
          <path id="Trazado_898206" data-name="Trazado 898206" d="M122,215.245l1.94,4.861s4.316.1,12.556-1.714c0,0,4.007,21.095,11.575,21.095s9.7-7.357,9.7-7.357a12.781,12.781,0,0,1-7.684-8.05l-8.314-11.712a6.936,6.936,0,0,0-6.824-1.172Z" transform="translate(-103.181 -195.668)" fill="#4966a2"/>
          <path id="Trazado_898207" data-name="Trazado 898207" d="M125.47,238.31a24.6,24.6,0,0,0,17.381.96l.27.7s-8.06,3.459-15.82,3.1Z" transform="translate(-106.09 -218.733)" fill="#3d5890"/>
          <path id="Trazado_898208" data-name="Trazado 898208" d="M211.935,253.446s5.352,32.026,19.722,16.263c0,0-11.639,5.272-16.974-18l-2.894.981Z" transform="translate(-178.456 -229.967)" fill="#3d5890"/>
          <path id="Trazado_898209" data-name="Trazado 898209" d="M301.217,275l-4.6,3.33s2.289,7.171,7.544,7.624l4.449-3.644Z" transform="translate(-249.573 -249.492)" fill="#f3b5af"/>
          <path id="Trazado_898210" data-name="Trazado 898210" d="M106.17,239.227l2.562-.917,1.946,5.071h-2.863Z" transform="translate(-89.91 -218.733)" fill="#fff"/>
          <path id="Trazado_898211" data-name="Trazado 898211" d="M432.261,126.091a5.253,5.253,0,0,1,7.354-1.335,6.266,6.266,0,0,1,3,5.947,25.542,25.542,0,0,1-2.656,8.941,23.366,23.366,0,0,0-1.285,3.144c-.847,2.641-3.036,7.7-6.984,5.933,0,0,2.36-1.455,1.89-5.191a8.892,8.892,0,0,1,2.325-6.618s4.074-5.745.128-8.762-3.99-2.043-3.99-2.043" transform="translate(-362.808 -122.73)" fill="#4966a2"/>
          <path id="Trazado_898212" data-name="Trazado 898212" d="M422.448,141.476A8.839,8.839,0,0,0,417.472,138s-4.1,6.1-2.409,9.5a4.113,4.113,0,0,0,.71,1.023l-1.723,2.344,4.429,3.6s.951-3.652,2.124-5.154c.125-.042.2-.071.2-.071S425.075,145.478,422.448,141.476Z" transform="translate(-348.019 -134.639)" fill="#e08476"/>
          <path id="Trazado_898213" data-name="Trazado 898213" d="M27.056,244S13.5,249.873,11.8,250.7c0,0,1.059,2.244,7.436,0a15.57,15.57,0,0,0,5.5.611c2.748-.27,3.607-4.02,3.607-4.02Z" transform="translate(-10.796 -223.503)" fill="#f3b5af"/>
          <path id="Trazado_898214" data-name="Trazado 898214" d="M370.052,150.73l-7.512,1.741-14.171.579s-4.405.907-1.88,4.51l5.149,7.347a4.786,4.786,0,0,0,2.3,3.616,4.319,4.319,0,0,0,4.439-.079c.052-.034.1-.07.152-.105a3.56,3.56,0,0,0,.055-5.609l-.323-.265h0l-6.3-5.386,11.266-1.371a4.468,4.468,0,0,0,5.149-1.672,19.764,19.764,0,0,1,2.357-3.017Z" transform="translate(-290.726 -145.311)" fill="#f3b5af"/>
          <path id="Trazado_898215" data-name="Trazado 898215" d="M333.334,225.978s-5.728.323-8.244,7.365l7.4,7.31s12.679-6.025,11.731-12.019a3.783,3.783,0,0,0-.233-.8,4.583,4.583,0,0,0-2.619-2.528,4.434,4.434,0,0,1-.233,5.092,3.341,3.341,0,0,1-1.812.845,5.437,5.437,0,0,1-3.765-.689,4.675,4.675,0,0,1-1.2-3.128Z" transform="translate(-273.44 -207.835)" fill="#ffeef0"/>
          <path id="Trazado_898216" data-name="Trazado 898216" d="M335.289,247.067,333.98,248.2l-7.37-7.582a11.1,11.1,0,0,1,5.28-6.437,8.392,8.392,0,0,0-1.741,5.105C330.149,242.74,333.259,245,335.289,247.067Z" transform="translate(-274.715 -215.271)" fill="#dcd3d4"/>
          <rect id="Rectángulo_402786" data-name="Rectángulo 402786" width="5.833" height="1.94" transform="translate(73.918 42.93)" fill="#142546"/>
          <rect id="Rectángulo_402787" data-name="Rectángulo 402787" width="5.833" height="1.94" transform="translate(0.107 42.93)" fill="#142546"/>
          <path id="Trazado_898217" data-name="Trazado 898217" d="M85.558,120.553A8,8,0,0,0,79,117.21a5.96,5.96,0,0,0-5.023,2.874l-.044.066v.011h0c-.018.032-.037.063-.052.1l-.162.351c-.011.023-.024.045-.034.068L72.256,123.6l-8.86.359c-.087,0-.175.01-.26.018a3.653,3.653,0,0,0-3.025,2.22,3.823,3.823,0,0,0,.456,3.83l3.285,4.688a10.53,10.53,0,0,0-6.518,5.548l-.879,1.83-3.233,2.546-.045.049a.234.234,0,0,1-.194.073.23.23,0,0,1-.178-.1l-7.247-10.585a6.628,6.628,0,0,0-7.4-2.611l-16.6,5.312c-.268.086-.535.181-.794.285l-1.617.639-10.8,4.95-1.285.241a1.815,1.815,0,0,0,.438,3.6l.619-.034a5.238,5.238,0,0,0,1.694.268,6.823,6.823,0,0,0,3.569-1.072c.826-.5,1.573-.309,2.824.079a5.792,5.792,0,0,0,4.213.128,4.526,4.526,0,0,0,2.562-3.023l1.166.057h.037a56,56,0,0,0,14.027-1.872l2,7.186a41.384,41.384,0,0,0,3.581,9.158,9.053,9.053,0,0,0,2.3,2.777H15.644v1.94H75.882v-1.94H57.156a9.9,9.9,0,0,0,3.354-4.526l.485-1.34c.5-.38,1.778-1.364,3.493-2.654,2.3-1.731,4.7-3.382,7.15-4.906a15.264,15.264,0,0,0,2.941-2.393,4.124,4.124,0,0,0,3.055-.018,5.682,5.682,0,0,0,3.131-3.277l.186-.467,4.311-10.477.01-.023a19.375,19.375,0,0,0,1.266-5.812h0A5.658,5.658,0,0,0,85.558,120.553ZM21.129,142.231a2.606,2.606,0,0,1-1.479,1.841,3.988,3.988,0,0,1-2.874-.2,5.012,5.012,0,0,0-4.407.118,4.12,4.12,0,0,1-3.674.608l-.061-.031.3-.055,10.954-5.019,1.335-.53.873,2.076A1.722,1.722,0,0,0,21.129,142.231Zm57.917-23.081a6.066,6.066,0,0,1,4.91,2.5c.018.027.032.053.05.079l-3.828.944a6.744,6.744,0,0,0-2.307-1.82l-1.455-.7a4.029,4.029,0,0,1,2.63-1ZM75.3,121.767l1.738.837a4.82,4.82,0,0,1,.97.614l-.737.184-2.808.113ZM24.214,140.949h-.053l-1.1-2.617.808-.262,1.153,2.879c-.26,0-.533,0-.805,0Zm34.472,14a7.966,7.966,0,0,1-5.157,4.893c-.1.029-.2.058-.3.084a6.69,6.69,0,0,1-1.545.213h-.272a6.9,6.9,0,0,1-5.915-3.694,39.354,39.354,0,0,1-3.414-8.729l-2-7.21c1.741-.506,2.823-.9,2.949-.951l-.685-1.817a60.25,60.25,0,0,1-15.259,3.133l-1.36-3.395,12.992-4.159a4.688,4.688,0,0,1,5.234,1.849l7.247,10.587a2.249,2.249,0,0,0,.485.506c.485,1.36,2.488,6.1,7.247,8Zm1.306-2.357c-3.451-1.23-5.31-4.365-6.1-6.078a2.181,2.181,0,0,0,.629-.425l2.64-2.077,6.143,6.069c-1.534,1.154-2.721,2.061-3.309,2.512Zm10.621-7.532c-1.94,1.214-3.868,2.507-5.732,3.854l-6.476-6.4.677-1.41a8.587,8.587,0,0,1,5.96-4.688l.521.744a5.567,5.567,0,0,0,1.811,3.468,4.707,4.707,0,0,0,3.084,1.031,7.227,7.227,0,0,0,1-.073l-.268-1.92a3.242,3.242,0,0,1-2.577-.529,3.749,3.749,0,0,1-1.148-2.384l-.015-.276L62.143,128.9l-.026-.036a1.856,1.856,0,0,1-.228-1.893,1.714,1.714,0,0,1,1.434-1.06l.15-.011,14.064-.567,6.933-1.725h.013a.378.378,0,0,1,.01.07.267.267,0,0,1-.029.05c-.217.194-1.366,1.091-2.294,1.815l-.824.647a3.071,3.071,0,0,1-2.5.592l-.724-.145L65.1,128.22l.234,1.925.981-.12,6.951,5.719.1.05a3.547,3.547,0,0,1,1.762,1.94,3.438,3.438,0,0,1,.128.411c.018.3.047.485.052.516h.032a3.569,3.569,0,0,1-.538,2.252l-.029.047a13.3,13.3,0,0,1-4.156,4.1Zm4.625-14.143a3.978,3.978,0,0,1-1.825-1.759l4.636-.563.419.084a4.966,4.966,0,0,0,.782.092l-.485,1a2.475,2.475,0,0,1-1.174,1.166,2.671,2.671,0,0,1-.873.247A2.748,2.748,0,0,1,75.237,130.915Zm1.02,2.213a9.638,9.638,0,0,0-.694,1.849,5.443,5.443,0,0,0-1.24-.878l-1.217-1,.577-.839a6.124,6.124,0,0,0,.711.4A4.732,4.732,0,0,0,76.257,133.128Zm-4.011-2.205-.647.938L68.97,129.7l2.425-.3A5.773,5.773,0,0,0,72.247,130.923Zm6.906,8.9-.2.5-.019.05a3.8,3.8,0,0,1-2.011,2.111,2.234,2.234,0,0,1-.97.162q.236-.323.451-.666l.029-.047a5.524,5.524,0,0,0,.744-4.07,7.756,7.756,0,0,1,2.161-5.765,4.383,4.383,0,0,0,1.178-1.5l.527-1.093a6.456,6.456,0,0,0,.422-1.162,5.068,5.068,0,0,0,1.077-.647l.823-.647.962-.752a18.039,18.039,0,0,1-.865,3.029Z" transform="translate(-5.587 -117.207)" fill="#142546"/>
        </g>
      </g>
    </g>
  </g>
</svg>
