<svg xmlns="http://www.w3.org/2000/svg" xmlns:xlink="http://www.w3.org/1999/xlink" width="74" height="74" viewBox="0 0 74 74">
  <defs>
    <clipPath id="clip-path">
      <rect id="Rectángulo_402763" data-name="Rectángulo 402763" width="55.221" height="51.02" fill="#4a6b7a"/>
    </clipPath>
  </defs>
  <g id="Grupo_1108007" data-name="Grupo 1108007" transform="translate(-1078.051 -3506)">
    <circle id="Elipse_14861" data-name="Elipse 14861" cx="37" cy="37" r="37" transform="translate(1078.051 3506)" fill="#fefae9"/>
    <g id="Grupo_1107988" data-name="Grupo 1107988" transform="translate(1087.44 3517.49)">
      <g id="Grupo_1107987" data-name="Grupo 1107987" clip-path="url(#clip-path)">
        <path id="Trazado_898166" data-name="Trazado 898166" d="M39.065,13.535a.783.783,0,1,1,.807-1.341L44.8,15.159A.783.783,0,0,1,44,16.5ZM19.569,16.5a.783.783,0,0,1-.807-1.341l4.658-2.8a.783.783,0,0,1,.807,1.341ZM10.476,30.248a.783.783,0,0,1,1.567,0v5.51a.783.783,0,0,1-1.567,0Zm21.178-8.927a1.758,1.758,0,1,0,1.758,1.758,1.759,1.759,0,0,0-1.758-1.758m3.171,2.751,4.918,2.956,7.3-4.392V13.8l-7.3-4.392L32.436,13.8v6.052a3.326,3.326,0,0,1,2.389,4.223M16.26,19.849a3.325,3.325,0,0,1,2.54,3.23,3.264,3.264,0,0,1-.151.993l4.918,2.956,4.916-2.956a3.326,3.326,0,0,1,2.389-4.223V13.8l-7.3-4.392L16.26,13.8Zm-.782,1.472a1.758,1.758,0,1,0,1.758,1.758,1.759,1.759,0,0,0-1.758-1.758m-2.362,4.091L8.174,28.383v8.839l7.3,4.392,7.307-4.392V28.383l-4.942-2.971a3.319,3.319,0,0,1-4.727,0M6.609,28.383.38,24.639A.783.783,0,1,1,1.187,23.3l6.2,3.73,4.916-2.956A3.326,3.326,0,0,1,14.7,19.849V13.355a.783.783,0,0,1,.38-.671L22.785,8.05V.782a.782.782,0,1,1,1.564,0V8.05l7.3,4.392L38.961,8.05V.782a.782.782,0,1,1,1.564,0V8.05l7.709,4.634a.786.786,0,0,1,.378.671v9.281l6.229,3.744a.783.783,0,1,1-.807,1.341l-6.2-3.73-7.684,4.62a.783.783,0,0,1-.807,0l-5.32-3.2a3.319,3.319,0,0,1-4.727,0l-4.942,2.971v9.281a.783.783,0,0,1-.38.671L16.26,42.969v7.268a.782.782,0,1,1-1.564,0V42.969L6.987,38.335a.781.781,0,0,1-.378-.671Z" transform="translate(0)" fill="#4a6b7a" fill-rule="evenodd"/>
      </g>
    </g>
  </g>
</svg>
