<svg xmlns="http://www.w3.org/2000/svg" xmlns:xlink="http://www.w3.org/1999/xlink" width="74" height="74" viewBox="0 0 74 74">
  <defs>
    <clipPath id="clip-path">
      <rect id="Rectángulo_402899" data-name="Rectángulo 402899" width="60" height="60" transform="translate(0 -0.023)" fill="#4a6b7a"/>
    </clipPath>
  </defs>
  <g id="Grupo_1108180" data-name="Grupo 1108180" transform="translate(-448.051 -7953)">
    <circle id="Elipse_14857" data-name="Elipse 14857" cx="37" cy="37" r="37" transform="translate(448.051 7953)" fill="#fefae9"/>
    <g id="Grupo_1108170" data-name="Grupo 1108170" transform="translate(455.051 7960.125)">
      <g id="Grupo_1108169" data-name="Grupo 1108169" transform="translate(0 -0.102)" clip-path="url(#clip-path)">
        <path id="Trazado_898422" data-name="Trazado 898422" d="M116.421,23.227a.936.936,0,0,1-.936-.936V16.678a2.807,2.807,0,0,0-5.614,0v5.614a.936.936,0,1,1-1.871,0V16.678a4.678,4.678,0,1,1,9.356,0v5.614a.936.936,0,0,1-.936.936" transform="translate(-82.738 -9.096)" fill="#4a6b7a"/>
        <path id="Trazado_898423" data-name="Trazado 898423" d="M112.678,207.227A4.683,4.683,0,0,1,108,202.549v-5.614a.936.936,0,1,1,1.871,0v5.614a2.807,2.807,0,0,0,5.614,0v-5.614a.936.936,0,1,1,1.871,0v5.614a4.683,4.683,0,0,1-4.678,4.678" transform="translate(-82.738 -150.058)" fill="#4a6b7a"/>
        <path id="Trazado_898424" data-name="Trazado 898424" d="M22.292,117.356H16.678a4.678,4.678,0,1,1,0-9.356h5.614a.936.936,0,1,1,0,1.871H16.678a2.807,2.807,0,0,0,0,5.614h5.614a.936.936,0,1,1,0,1.871" transform="translate(-9.193 -82.641)" fill="#4a6b7a"/>
        <path id="Trazado_898425" data-name="Trazado 898425" d="M202.549,117.356h-5.614a.936.936,0,1,1,0-1.871h5.614a2.807,2.807,0,0,0,0-5.614h-5.614a.936.936,0,1,1,0-1.871h5.614a4.678,4.678,0,1,1,0,9.356" transform="translate(-150.155 -82.641)" fill="#4a6b7a"/>
        <path id="Trazado_898426" data-name="Trazado 898426" d="M38.416,55.847a.951.951,0,0,1-.169-.015.936.936,0,0,1-.752-1.089A21.548,21.548,0,0,1,54.742,37.5a.936.936,0,0,1,.336,1.841A19.666,19.666,0,0,0,39.336,55.079a.936.936,0,0,1-.919.768" transform="translate(-28.713 -28.617)" fill="#4a6b7a"/>
        <path id="Trazado_898427" data-name="Trazado 898427" d="M54.912,158.366a.952.952,0,0,1-.169-.015A21.548,21.548,0,0,1,37.5,141.1a.936.936,0,1,1,1.841-.335A19.666,19.666,0,0,0,55.078,156.51a.936.936,0,0,1-.167,1.857" transform="translate(-28.713 -107.156)" fill="#4a6b7a"/>
        <path id="Trazado_898428" data-name="Trazado 898428" d="M157.429,55.847a.936.936,0,0,1-.919-.768,19.666,19.666,0,0,0-15.742-15.742A.936.936,0,0,1,141.1,37.5a21.548,21.548,0,0,1,17.247,17.247.936.936,0,0,1-.752,1.089.951.951,0,0,1-.169.015" transform="translate(-107.253 -28.617)" fill="#4a6b7a"/>
        <path id="Trazado_898429" data-name="Trazado 898429" d="M140.934,158.366a.936.936,0,0,1-.167-1.857,19.666,19.666,0,0,0,15.742-15.742.936.936,0,1,1,1.841.335A21.548,21.548,0,0,1,141.1,158.351a.952.952,0,0,1-.169.015" transform="translate(-107.252 -107.156)" fill="#4a6b7a"/>
        <path id="Trazado_898430" data-name="Trazado 898430" d="M88.274,104.947a3.574,3.574,0,0,1-2.533-6.107l13.1-13.1a3.582,3.582,0,0,1,5.065,5.066l-13.1,13.1a3.553,3.553,0,0,1-2.533,1.042m13.1-18.383a1.706,1.706,0,0,0-1.21.5l-13.1,13.1a1.713,1.713,0,0,0,0,2.42,1.73,1.73,0,0,0,2.42,0l13.1-13.1a1.71,1.71,0,0,0-1.21-2.92" transform="translate(-64.883 -64.786)" fill="#4a6b7a"/>
        <path id="Trazado_898431" data-name="Trazado 898431" d="M158.339,111.274a.933.933,0,0,1-.661-.274l-1.4-1.4a.935.935,0,0,1,1.323-1.323l1.4,1.4a.936.936,0,0,1-.661,1.6" transform="translate(-119.511 -82.641)" fill="#4a6b7a"/>
        <path id="Trazado_898432" data-name="Trazado 898432" d="M136.339,89.274a.933.933,0,0,1-.661-.274l-1.4-1.4a.935.935,0,0,1,1.323-1.323l1.4,1.4a.936.936,0,0,1-.661,1.6" transform="translate(-102.657 -65.787)" fill="#4a6b7a"/>
        <path id="Trazado_898433" data-name="Trazado 898433" d="M142.339,127.274a.933.933,0,0,1-.661-.274l-1.4-1.4a.935.935,0,0,1,1.323-1.323l1.4,1.4a.936.936,0,0,1-.661,1.6" transform="translate(-107.253 -94.899)" fill="#4a6b7a"/>
        <path id="Trazado_898434" data-name="Trazado 898434" d="M120.339,105.274a.933.933,0,0,1-.661-.274l-1.4-1.4a.935.935,0,1,1,1.323-1.323l1.4,1.4a.936.936,0,0,1-.661,1.6" transform="translate(-90.399 -78.045)" fill="#4a6b7a"/>
        <path id="Trazado_898435" data-name="Trazado 898435" d="M126.339,143.275a.932.932,0,0,1-.661-.274l-1.4-1.4a.935.935,0,0,1,1.323-1.323l1.4,1.4a.936.936,0,0,1-.661,1.6" transform="translate(-94.996 -107.156)" fill="#4a6b7a"/>
        <path id="Trazado_898436" data-name="Trazado 898436" d="M104.339,121.274a.933.933,0,0,1-.661-.274l-1.4-1.4a.935.935,0,1,1,1.323-1.323l1.4,1.4a.936.936,0,0,1-.661,1.6" transform="translate(-78.141 -90.302)" fill="#4a6b7a"/>
        <path id="Trazado_898437" data-name="Trazado 898437" d="M110.339,159.274a.933.933,0,0,1-.661-.274l-1.4-1.4a.935.935,0,0,1,1.323-1.323l1.4,1.4a.936.936,0,0,1-.661,1.6" transform="translate(-82.738 -119.414)" fill="#4a6b7a"/>
        <path id="Trazado_898438" data-name="Trazado 898438" d="M88.339,137.274a.932.932,0,0,1-.661-.274l-1.4-1.4a.935.935,0,0,1,1.323-1.323l1.4,1.4a.936.936,0,0,1-.661,1.6" transform="translate(-65.884 -102.56)" fill="#4a6b7a"/>
        <path id="Trazado_898439" data-name="Trazado 898439" d="M82.44,88.165a2.919,2.919,0,0,1-2.065-4.984l2.807-2.807a2.92,2.92,0,0,1,4.13,4.13L84.5,87.311a2.91,2.91,0,0,1-2.065.854m2.807-6.775a1.044,1.044,0,0,0-.742.307L81.7,84.5a1.049,1.049,0,1,0,1.484,1.484l2.807-2.807a1.049,1.049,0,0,0-.742-1.791" transform="translate(-60.921 -60.823)" fill="#4a6b7a"/>
        <path id="Trazado_898440" data-name="Trazado 898440" d="M142.925,148.65a2.919,2.919,0,0,1-2.065-4.984l2.807-2.807a2.92,2.92,0,0,1,4.13,4.13L144.99,147.8a2.91,2.91,0,0,1-2.065.854m2.807-6.775a1.044,1.044,0,0,0-.742.307l-2.807,2.807a1.049,1.049,0,1,0,1.484,1.484l2.807-2.807a1.049,1.049,0,0,0-.742-1.791" transform="translate(-107.258 -107.16)" fill="#4a6b7a"/>
        <path id="Trazado_898441" data-name="Trazado 898441" d="M121.871,181.871h-.936a.936.936,0,0,1,0-1.871h.936a.936.936,0,0,1,0,1.871" transform="translate(-91.931 -137.8)" fill="#4a6b7a"/>
        <path id="Trazado_898442" data-name="Trazado 898442" d="M180.936,122.807a.936.936,0,0,1-.936-.936v-.936a.936.936,0,1,1,1.871,0v.936a.936.936,0,0,1-.936.936" transform="translate(-137.897 -91.835)" fill="#4a6b7a"/>
        <path id="Trazado_898443" data-name="Trazado 898443" d="M68.936,126.807a.936.936,0,0,1-.936-.936v-.936a.936.936,0,1,1,1.871,0v.936a.936.936,0,0,1-.936.936" transform="translate(-52.094 -94.899)" fill="#4a6b7a"/>
        <path id="Trazado_898444" data-name="Trazado 898444" d="M125.871,69.871h-.936a.936.936,0,1,1,0-1.871h.936a.936.936,0,0,1,0,1.871" transform="translate(-94.996 -51.998)" fill="#4a6b7a"/>
        <path id="Trazado_898445" data-name="Trazado 898445" d="M181.014,47.862a.936.936,0,0,1-.661-1.6l2.479-2.479a2.372,2.372,0,1,0-3.355-3.355L177,42.91a.935.935,0,0,1-1.323-1.323l2.479-2.479a4.244,4.244,0,1,1,6,6l-2.479,2.479a.932.932,0,0,1-.661.274" transform="translate(-134.373 -28.913)" fill="#4a6b7a"/>
        <path id="Trazado_898446" data-name="Trazado 898446" d="M42.088,185.4a4.23,4.23,0,0,1-3-1.241,4.233,4.233,0,0,1,0-6l2.479-2.479A.936.936,0,1,1,42.89,177l-2.479,2.479a2.372,2.372,0,0,0,3.355,3.355l2.479-2.479a.936.936,0,1,1,1.323,1.323l-2.479,2.479a4.23,4.23,0,0,1-3,1.241" transform="translate(-28.989 -134.277)" fill="#4a6b7a"/>
        <path id="Trazado_898447" data-name="Trazado 898447" d="M42.228,47.862a.932.932,0,0,1-.661-.274l-2.479-2.479a4.244,4.244,0,0,1,6-6l2.479,2.479a.935.935,0,0,1-1.323,1.323l-2.479-2.479a2.372,2.372,0,1,0-3.355,3.355l2.479,2.479a.936.936,0,0,1-.661,1.6" transform="translate(-28.989 -28.913)" fill="#4a6b7a"/>
        <path id="Trazado_898448" data-name="Trazado 898448" d="M181.154,185.4a4.23,4.23,0,0,1-3-1.241l-2.479-2.479A.936.936,0,1,1,177,180.353l2.479,2.479a2.372,2.372,0,1,0,3.355-3.355L180.353,177a.936.936,0,1,1,1.323-1.323l2.479,2.479a4.233,4.233,0,0,1,0,6,4.23,4.23,0,0,1-3,1.241" transform="translate(-134.373 -134.277)" fill="#4a6b7a"/>
      </g>
    </g>
  </g>
</svg>
