<svg xmlns="http://www.w3.org/2000/svg" xmlns:xlink="http://www.w3.org/1999/xlink" width="103" height="104" viewBox="0 0 103 104">
  <defs>
    <clipPath id="clip-path">
      <rect id="Rectángulo_402685" data-name="Rectángulo 402685" width="65.034" height="69.257" fill="#4a6b7a" stroke="#4a6b7a" stroke-width="1"/>
    </clipPath>
  </defs>
  <g id="Grupo_1108271" data-name="Grupo 1108271" transform="translate(-0.418 -0.015)">
    <ellipse id="Elipse_14836" data-name="Elipse 14836" cx="51.5" cy="52" rx="51.5" ry="52" transform="translate(0.418 0.015)" fill="#fbeeab"/>
    <g id="Grupo_1107903" data-name="Grupo 1107903" transform="translate(19.259 16.284)">
      <g id="Grupo_1107902" data-name="Grupo 1107902" clip-path="url(#clip-path)">
        <path id="Trazado_898134" data-name="Trazado 898134" d="M28.293,69.257a28.293,28.293,0,1,1,8.118-55.4l1.53.46.092-1.6A13.5,13.5,0,1,1,54.525,26.686l-1.56.355.709,1.434a27.949,27.949,0,0,1,2.913,12.488A28.325,28.325,0,0,1,28.293,69.257m0-54.9a26.629,26.629,0,1,0,23,13.236l-.329-.563-.649-.058A13.537,13.537,0,0,1,38.447,16.922l-.165-.631-.61-.231a26.436,26.436,0,0,0-9.379-1.707M51.522,1.682A11.829,11.829,0,1,0,63.351,13.511,11.842,11.842,0,0,0,51.522,1.682" fill="#4a6b7a" stroke="#4a6b7a" stroke-width="1"/>
        <path id="Trazado_898135" data-name="Trazado 898135" d="M254.311,48.679l1.917-1.8-2.04-1.918a4.77,4.77,0,1,1,6.535,0l-2.039,1.917,1.917,1.8L259.449,49.9l-1.993-1.874L255.463,49.9ZM257.456,38.4a3.088,3.088,0,0,0-2.115,5.337l2.115,1.989,2.115-1.989a3.088,3.088,0,0,0-2.115-5.337" transform="translate(-205.934 -29.921)" fill="#4a6b7a" stroke="#4a6b7a" stroke-width="1"/>
        <path id="Trazado_898136" data-name="Trazado 898136" d="M70.238,179.521c-7.858-5.076-18.407-12-18.787-21.507a11.071,11.071,0,0,1,17.986-8.626l.788.63.788-.63A11.071,11.071,0,0,1,89,158.028c-.146,8.625-9.956,15.981-18.762,21.493m-7.725-30.876a9.4,9.4,0,0,0-9.379,9.392c0,2.9,1.443,6.014,4.289,9.252a58.26,58.26,0,0,0,12.12,9.816l.682.439.682-.439a58.249,58.249,0,0,0,12.12-9.816c2.846-3.237,4.289-6.35,4.289-9.252a9.4,9.4,0,0,0-9.373-9.392c-.078,0-.155,0-.232,0-2.675,0-5.192,1.305-7.5,3.884-1.823-2.039-4.119-3.881-7.6-3.881Z" transform="translate(-41.932 -119.774)" fill="#4a6b7a" stroke="#4a6b7a" stroke-width="1"/>
      </g>
    </g>
  </g>
</svg>
