<svg xmlns="http://www.w3.org/2000/svg" xmlns:xlink="http://www.w3.org/1999/xlink" width="120" height="120" viewBox="0 0 120 120">
  <defs>
    <clipPath id="clip-path">
      <rect id="Rectángulo_402894" data-name="Rectángulo 402894" width="87.268" height="93.944" fill="none"/>
    </clipPath>
  </defs>
  <g id="Grupo_1108168" data-name="Grupo 1108168" transform="translate(-898.051 -7512)">
    <g id="Grupo_1108153" data-name="Grupo 1108153" transform="translate(263 6700)">
      <circle id="Elipse_14836" data-name="Elipse 14836" cx="60" cy="60" r="60" transform="translate(635.051 812)" fill="#d2e1f1"/>
    </g>
    <g id="Grupo_1108166" data-name="Grupo 1108166" transform="translate(915 7525.028)">
      <g id="Grupo_1108165" data-name="Grupo 1108165" clip-path="url(#clip-path)">
        <path id="Trazado_898400" data-name="Trazado 898400" d="M86.1,69.984A1.562,1.562,0,0,0,84.194,71.1l-.325,1.246a6.841,6.841,0,0,1-4.556,4.907A6.169,6.169,0,0,1,72.7,74.993l-.612-.787a13.9,13.9,0,0,0,2.068-.34,10,10,0,0,0,7.485-6.824,1.562,1.562,0,1,0-2.968-.977c-1.6,4.849-6.439,5.161-8.392,5.081a23.369,23.369,0,0,0-3.555-5.46,30.525,30.525,0,0,1,4.745-9.512c2.525.375,6.235,1.322,7.562,2.7A1.562,1.562,0,1,0,81.288,56.7c-1.656-1.718-4.791-2.7-7.183-3.221a12.1,12.1,0,0,1,1.76-1.174,11.175,11.175,0,0,1,9.328-.458A1.562,1.562,0,1,0,86.217,48.9a14.751,14.751,0,0,0-9.365-.385c.437-2.83.844-7.053-.01-9.816a1.562,1.562,0,0,0-2.985.922c.839,2.715.042,8.033-.467,10.53-5.133,3.338-7.931,9.6-9.152,13.083a24.054,24.054,0,0,0-4.426-2.964A24.922,24.922,0,0,0,54.2,58.15V9.207C54.2,4.131,49.46,0,43.634,0S33.069,4.131,33.069,9.207V28.126a24.922,24.922,0,0,0-5.614,2.12,24.048,24.048,0,0,0-4.426,2.962c-1.222-3.484-4.019-9.744-9.152-13.082-.509-2.5-1.306-7.815-.467-10.53a1.562,1.562,0,1,0-2.985-.922c-.853,2.763-.447,6.986-.01,9.816a14.741,14.741,0,0,0-9.365.385,1.562,1.562,0,1,0,1.023,2.951,11.175,11.175,0,0,1,9.328.457,12.219,12.219,0,0,1,1.76,1.175c-2.391.524-5.527,1.5-7.183,3.221a1.562,1.562,0,0,0,2.249,2.168c1.323-1.374,5.036-2.321,7.564-2.7a30.531,30.531,0,0,1,4.743,9.512,23.331,23.331,0,0,0-3.555,5.459c-1.953.082-6.795-.231-8.392-5.079a1.562,1.562,0,0,0-2.968.977,10,10,0,0,0,7.485,6.824,13.9,13.9,0,0,0,2.068.34l-.612.787a6.171,6.171,0,0,1-6.608,2.259A6.843,6.843,0,0,1,3.4,42.32l-.325-1.244a1.562,1.562,0,1,0-3.023.789L.376,43.11a9.978,9.978,0,0,0,6.7,7.115,9.022,9.022,0,0,0,2.546.367,9.4,9.4,0,0,0,7.41-3.709l1.119-1.441a10.072,10.072,0,0,0,1.32-2.24,20.251,20.251,0,0,1,3.842-5.976,1.549,1.549,0,0,0,.149-.155,20.553,20.553,0,0,1,5.333-4,22.208,22.208,0,0,1,4.274-1.714V84.736c0,5.078,4.739,9.209,10.565,9.209S54.2,89.814,54.2,84.736V61.381A22.227,22.227,0,0,1,58.473,63.1a20.565,20.565,0,0,1,5.335,4,1.617,1.617,0,0,0,.143.15A20.218,20.218,0,0,1,67.8,73.229a10.032,10.032,0,0,0,1.32,2.238l1.119,1.442a9.4,9.4,0,0,0,7.41,3.709,9.073,9.073,0,0,0,2.546-.367,9.98,9.98,0,0,0,6.7-7.117l.325-1.246a1.562,1.562,0,0,0-1.116-1.9M51.075,84.736c0,3.354-3.339,6.085-7.441,6.085s-7.441-2.73-7.441-6.085v-69a11.677,11.677,0,0,0,14.883,0ZM43.634,15.292c-4.1,0-7.441-2.73-7.441-6.085s3.339-6.083,7.441-6.083,7.441,2.729,7.441,6.083-3.339,6.085-7.441,6.085" transform="translate(0)" fill="#414042"/>
        <path id="Trazado_898401" data-name="Trazado 898401" d="M272.319,28.3c0,3.354-3.339,6.085-7.441,6.085s-7.441-2.73-7.441-6.085,3.339-6.083,7.441-6.083,7.441,2.729,7.441,6.083" transform="translate(-221.243 -19.096)" fill="#d1565f"/>
        <path id="Trazado_898402" data-name="Trazado 898402" d="M272.319,111.94v69c0,3.354-3.339,6.085-7.441,6.085s-7.441-2.73-7.441-6.085v-69a11.677,11.677,0,0,0,14.883,0" transform="translate(-221.243 -96.202)" fill="#d1565f"/>
      </g>
    </g>
  </g>
</svg>
