<svg xmlns="http://www.w3.org/2000/svg" width="120" height="120" viewBox="0 0 120 120">
  <g id="Grupo_1108021" data-name="Grupo 1108021" transform="translate(-898.051 -4927)">
    <g id="Grupo_1108013" data-name="Grupo 1108013" transform="translate(53 4115)">
      <circle id="Elipse_14837" data-name="Elipse 14837" cx="60" cy="60" r="60" transform="translate(845.051 812)" fill="#d2e1f1"/>
    </g>
    <g id="artwork" transform="translate(903.913 4845.549)">
      <g id="_19_exercise-1" data-name="19_exercise-1" transform="translate(5.587 117.207)">
        <path id="Trazado_898204" data-name="Trazado 898204" d="M351.574,152.36l-8.118,1.883-15.315.624s-4.759.982-2.03,4.876l5.573,7.938a5.169,5.169,0,0,0,2.481,3.91,4.667,4.667,0,0,0,4.8-.086c1.331-.884,2.3-2.631,1.922-3.974a11.2,11.2,0,0,0-2.051-2.488h0l-6.8-5.815,12.174-1.48a4.828,4.828,0,0,0,5.564-1.806,21.358,21.358,0,0,1,2.547-3.26Z" transform="translate(-269.422 -146.219)" fill="#dcd3d4"/>
        <path id="Trazado_898205" data-name="Trazado 898205" d="M71.45,250.857,62.465,238.2a7.5,7.5,0,0,0-7.375-1.268L41.1,241.306l.229.571-11.879,5.415-1.59.3a.961.961,0,0,0,.231,1.9l.943-.052s2.229,1.092,5.241-.734c3.319-2.016,5.415,2.192,9.362-2.157A69.817,69.817,0,0,0,56.77,244.7s2.376,18.4,10.55,18.615c11.47.3,12.433-3.768,12.433-3.768A13.8,13.8,0,0,1,71.45,250.857Z" transform="translate(-23.319 -215.663)" fill="#dcd3d4"/>
        <path id="Trazado_898206" data-name="Trazado 898206" d="M122,215.6l2.1,5.253s4.664.108,13.568-1.852c0,0,4.331,22.8,12.508,22.8s10.481-7.95,10.481-7.95a13.811,13.811,0,0,1-8.3-8.7l-8.984-12.656a7.5,7.5,0,0,0-7.374-1.266Z" transform="translate(-101.664 -194.449)" fill="#4966a2"/>
        <path id="Trazado_898207" data-name="Trazado 898207" d="M125.47,238.31a26.588,26.588,0,0,0,18.783,1.038l.292.76s-8.71,3.738-17.1,3.354Z" transform="translate(-104.528 -217.155)" fill="#3d5890"/>
        <path id="Trazado_898208" data-name="Trazado 898208" d="M211.947,253.586s5.784,34.608,21.312,17.574c0,0-12.578,5.7-18.342-19.45l-3.127,1.06Z" transform="translate(-175.769 -228.214)" fill="#3d5890"/>
        <path id="Trazado_898209" data-name="Trazado 898209" d="M301.588,275l-4.968,3.6s2.474,7.749,8.153,8.238l4.807-3.937Z" transform="translate(-245.78 -247.435)" fill="#f3b5af"/>
        <path id="Trazado_898210" data-name="Trazado 898210" d="M106.17,239.3l2.769-.99,2.1,5.48h-3.094Z" transform="translate(-88.599 -217.155)" fill="#fff"/>
        <path id="Trazado_898211" data-name="Trazado 898211" d="M432.307,126.277a5.677,5.677,0,0,1,7.947-1.443,6.771,6.771,0,0,1,3.242,6.427,27.6,27.6,0,0,1-2.87,9.662,25.251,25.251,0,0,0-1.389,3.4c-.915,2.854-3.281,8.32-7.547,6.411,0,0,2.55-1.572,2.042-5.609s2.512-7.152,2.512-7.152,4.4-6.208.138-9.468-4.311-2.208-4.311-2.208" transform="translate(-357.254 -122.644)" fill="#4966a2"/>
        <path id="Trazado_898212" data-name="Trazado 898212" d="M423.125,141.756A9.552,9.552,0,0,0,417.748,138s-4.434,6.593-2.6,10.261a4.444,4.444,0,0,0,.767,1.106L414.05,151.9l4.786,3.9s1.027-3.946,2.3-5.569c.135-.045.211-.077.211-.077S425.964,146.081,423.125,141.756Z" transform="translate(-342.696 -134.368)" fill="#e08476"/>
        <path id="Trazado_898213" data-name="Trazado 898213" d="M28.285,244s-14.653,6.346-16.485,7.241c0,0,1.144,2.425,8.036,0a16.826,16.826,0,0,0,5.939.66c2.97-.292,3.9-4.345,3.9-4.345Z" transform="translate(-10.715 -221.851)" fill="#f3b5af"/>
        <path id="Trazado_898214" data-name="Trazado 898214" d="M372.015,150.73l-8.118,1.881-15.313.625s-4.76.98-2.032,4.874l5.564,7.94a5.172,5.172,0,0,0,2.481,3.908,4.667,4.667,0,0,0,4.8-.086c.056-.037.11-.075.164-.114a3.847,3.847,0,0,0,.059-6.062l-.349-.286h0l-6.8-5.821,12.174-1.481A4.829,4.829,0,0,0,370.2,154.3a21.356,21.356,0,0,1,2.547-3.26Z" transform="translate(-286.293 -144.874)" fill="#f3b5af"/>
        <path id="Trazado_898215" data-name="Trazado 898215" d="M334,226.031s-6.189.349-8.909,7.959l7.992,7.9s13.7-6.511,12.677-12.988a4.089,4.089,0,0,0-.252-.859,4.952,4.952,0,0,0-2.83-2.732c1.148,2.142.847,4.367-.252,5.5a3.611,3.611,0,0,1-1.958.914,5.876,5.876,0,0,1-4.069-.744,5.051,5.051,0,0,1-1.294-3.38Z" transform="translate(-269.276 -206.426)" fill="#ffeef0"/>
        <path id="Trazado_898216" data-name="Trazado 898216" d="M335.989,248.106l-1.415,1.223-7.964-8.193a11.991,11.991,0,0,1,5.705-6.956,9.068,9.068,0,0,0-1.881,5.517C330.434,243.43,333.795,245.875,335.989,248.106Z" transform="translate(-270.531 -213.746)" fill="#dcd3d4"/>
        <rect id="Rect치ngulo_402786" data-name="Rect치ngulo 402786" width="6.303" height="2.096" transform="translate(79.877 46.391)" fill="#142546"/>
        <rect id="Rect치ngulo_402787" data-name="Rect치ngulo 402787" width="6.303" height="2.096" transform="translate(0.116 46.391)" fill="#142546"/>
        <path id="Trazado_898217" data-name="Trazado 898217" d="M92.005,120.822a8.641,8.641,0,0,0-7.087-3.613,6.441,6.441,0,0,0-5.428,3.106l-.047.072v.012h0c-.019.035-.04.068-.056.1l-.175.379c-.012.024-.026.049-.037.073l-1.544,3.165-9.575.388c-.094,0-.189.01-.281.019a3.948,3.948,0,0,0-3.268,2.4A4.131,4.131,0,0,0,65,131.064l3.55,5.066a11.379,11.379,0,0,0-7.043,6l-.95,1.977-3.494,2.751-.049.052a.253.253,0,0,1-.21.079.248.248,0,0,1-.192-.112L48.78,135.435a7.162,7.162,0,0,0-8-2.821l-17.941,5.74c-.29.093-.578.2-.858.307l-1.747.69L8.565,144.7l-1.389.26a1.962,1.962,0,0,0,.473,3.885l.669-.037a5.66,5.66,0,0,0,1.831.29,7.373,7.373,0,0,0,3.857-1.158c.893-.543,1.7-.334,3.052.086a6.26,6.26,0,0,0,4.552.138,4.891,4.891,0,0,0,2.769-3.267l1.26.061h.04a60.512,60.512,0,0,0,15.158-2.023L43,150.7a44.72,44.72,0,0,0,3.869,9.9,9.783,9.783,0,0,0,2.481,3h-32.9v2.1H81.55v-2.1H61.314a10.693,10.693,0,0,0,3.625-4.891l.524-1.448c.536-.411,1.922-1.474,3.775-2.868,2.484-1.871,5.083-3.655,7.727-5.3a16.5,16.5,0,0,0,3.178-2.585,4.456,4.456,0,0,0,3.3-.019,6.14,6.14,0,0,0,3.384-3.541l.2-.5,4.659-11.322.01-.024a20.937,20.937,0,0,0,1.368-6.28h0A6.114,6.114,0,0,0,92.005,120.822ZM22.383,144.248a2.816,2.816,0,0,1-1.6,1.99,4.309,4.309,0,0,1-3.106-.215c-1.345-.416-3.017-.933-4.762.128a4.452,4.452,0,0,1-3.971.657l-.066-.033.325-.059,11.837-5.424,1.443-.573.943,2.243A1.86,1.86,0,0,0,22.383,144.248Zm62.586-24.942a6.555,6.555,0,0,1,5.305,2.7c.019.03.035.058.054.086l-4.137,1.02a7.288,7.288,0,0,0-2.493-1.967l-1.572-.758a4.353,4.353,0,0,1,2.842-1.08Zm-4.051,2.828,1.878.9a5.209,5.209,0,0,1,1.048.664l-.8.2-3.034.122Zm-55.2,20.729h-.058l-1.19-2.828.873-.283,1.246,3.111c-.281,0-.576,0-.87,0Zm37.251,15.126a8.609,8.609,0,0,1-5.573,5.288c-.107.031-.213.063-.321.091a7.229,7.229,0,0,1-1.67.231h-.293a7.456,7.456,0,0,1-6.392-3.992,42.527,42.527,0,0,1-3.689-9.433l-2.159-7.791c1.881-.547,3.05-.977,3.186-1.027l-.741-1.964a65.107,65.107,0,0,1-16.489,3.385l-1.469-3.668,14.04-4.495a5.066,5.066,0,0,1,5.656,2l7.831,11.44a2.43,2.43,0,0,0,.524.547c.524,1.469,2.688,6.588,7.831,8.649Zm1.411-2.547c-3.73-1.329-5.739-4.717-6.593-6.568a2.357,2.357,0,0,0,.68-.459l2.853-2.245,6.638,6.558c-1.658,1.247-2.94,2.227-3.576,2.715ZM75.855,147.3c-2.1,1.312-4.18,2.709-6.195,4.165l-7-6.916.732-1.523a9.28,9.28,0,0,1,6.441-5.066l.562.8a6.015,6.015,0,0,0,1.957,3.747,5.086,5.086,0,0,0,3.333,1.115,7.81,7.81,0,0,0,1.083-.079l-.29-2.075A3.5,3.5,0,0,1,73.7,140.9a4.052,4.052,0,0,1-1.24-2.577l-.016-.3L66.7,129.843l-.028-.038a2.005,2.005,0,0,1-.246-2.046,1.852,1.852,0,0,1,1.549-1.146l.162-.012,15.2-.613,7.492-1.864h.014a.408.408,0,0,1,.01.075.289.289,0,0,1-.031.054c-.234.21-1.476,1.179-2.479,1.962l-.891.7a3.319,3.319,0,0,1-2.7.639l-.783-.157-14.077,1.712.253,2.081,1.06-.129,7.512,6.181.11.054a3.833,3.833,0,0,1,1.9,2.1,3.717,3.717,0,0,1,.138.444c.019.321.051.524.056.557h.035a3.857,3.857,0,0,1-.582,2.433l-.031.051a14.375,14.375,0,0,1-4.491,4.428Zm5-15.284a4.3,4.3,0,0,1-1.972-1.9l5.01-.608.452.091a5.364,5.364,0,0,0,.845.1l-.524,1.076a2.674,2.674,0,0,1-1.268,1.26,2.886,2.886,0,0,1-.943.267A2.97,2.97,0,0,1,80.853,132.02Zm1.1,2.392a10.415,10.415,0,0,0-.749,2,5.881,5.881,0,0,0-1.34-.949l-1.315-1.083.624-.907a6.617,6.617,0,0,0,.769.437A5.113,5.113,0,0,0,81.955,134.411Zm-4.334-2.383-.7,1.013L74.08,130.7l2.62-.32A6.238,6.238,0,0,0,77.621,132.029Zm7.463,9.62-.215.543-.021.054a4.107,4.107,0,0,1-2.173,2.281,2.414,2.414,0,0,1-1.048.175q.255-.349.487-.72l.031-.051a5.969,5.969,0,0,0,.8-4.4,8.382,8.382,0,0,1,2.336-6.229,4.736,4.736,0,0,0,1.273-1.618l.569-1.181a6.976,6.976,0,0,0,.456-1.256,5.476,5.476,0,0,0,1.163-.7l.889-.7,1.039-.812a19.494,19.494,0,0,1-.935,3.274Z" transform="translate(-5.587 -117.207)" fill="#142546"/>
      </g>
    </g>
  </g>
</svg>
