<svg xmlns="http://www.w3.org/2000/svg" xmlns:xlink="http://www.w3.org/1999/xlink" width="120" height="120" viewBox="0 0 120 120">
  <defs>
    <clipPath id="clip-path">
      <rect id="Rectángulo_402785" data-name="Rectángulo 402785" width="73.828" height="68.728" fill="none"/>
    </clipPath>
  </defs>
  <g id="Grupo_1108020" data-name="Grupo 1108020" transform="translate(-268.051 -4927)">
    <g id="Grupo_1108011" data-name="Grupo 1108011" transform="translate(-165 4115)">
      <circle id="Elipse_14835" data-name="Elipse 14835" cx="60" cy="60" r="60" transform="translate(433.051 812)" fill="#d2e1f1"/>
    </g>
    <g id="Grupo_1108019" data-name="Grupo 1108019" transform="translate(291.051 4953)">
      <g id="Grupo_1108018" data-name="Grupo 1108018" transform="translate(-3)" clip-path="url(#clip-path)">
        <path id="Trazado_898190" data-name="Trazado 898190" d="M209.026,6v4.267L201.872,22V69.63a3.247,3.247,0,0,0,3.079,3.2h31.681a2.788,2.788,0,0,0,2.755-2.38,9.614,9.614,0,0,0,.1-1.352V21.752l-7.419-11.485V6Z" transform="translate(-166.699 -4.955)" fill="#ffeef0"/>
        <path id="Trazado_898191" data-name="Trazado 898191" d="M289.338,47.753a3.443,3.443,0,1,1-3.443-3.443,3.443,3.443,0,0,1,3.443,3.443" transform="translate(-233.24 -36.59)" fill="#f3b5af"/>
        <path id="Trazado_898192" data-name="Trazado 898192" d="M278.256,50.932a2.772,2.772,0,1,1-2.772-2.772,2.772,2.772,0,0,1,2.772,2.772" transform="translate(-225.197 -39.769)" fill="#3d5890"/>
        <path id="Trazado_898193" data-name="Trazado 898193" d="M228.186,96.41l-23.44,25.628-.054,10.055,23.494-25.023Z" transform="translate(-169.028 -79.612)" fill="#fff"/>
        <rect id="Rectángulo_402779" data-name="Rectángulo 402779" width="23.987" height="16.993" transform="translate(35.171 30.233)" fill="#e08476"/>
        <path id="Trazado_898194" data-name="Trazado 898194" d="M210.157,171.59l-8.3,8.832v4l12.085-12.834Z" transform="translate(-166.691 -141.693)" fill="#f3b5af"/>
        <path id="Trazado_898195" data-name="Trazado 898195" d="M289.648,200.87l-10.525,11.207V213.1h10.525Z" transform="translate(-230.49 -165.872)" fill="#f3b5af"/>
        <path id="Trazado_898196" data-name="Trazado 898196" d="M226.46,271.05l-18.141,16.132-5.717.03.364-16.162Z" transform="translate(-167.302 -223.824)" fill="#fff"/>
        <rect id="Rectángulo_402780" data-name="Rectángulo 402780" width="23.037" height="4.267" transform="translate(42.327 1.045)" fill="#f3b5af"/>
        <rect id="Rectángulo_402781" data-name="Rectángulo 402781" width="13.625" height="46.59" transform="translate(59.158 16.798)" fill="#f3b5af"/>
        <path id="Trazado_898197" data-name="Trazado 898197" d="M345.738,39.24,339.532,49.2h13.625Z" transform="translate(-280.374 -32.403)" fill="#e08476"/>
        <path id="Trazado_898198" data-name="Trazado 898198" d="M70.319,247.419c-1.483,0-2.847-.979-4.124-1.946a1.681,1.681,0,0,0-2.021-.024c-1.347.974-2.861,1.971-4.356,1.971-2.7,0-5.077-2.539-7.072-7.544a39.141,39.141,0,0,1-2.556-10.3,11.87,11.87,0,0,1,2.744-8.565,9.208,9.208,0,0,1,7-3.35c.221,0,.444.009.664.026a8.84,8.84,0,0,1,3.819,1.2,1.5,1.5,0,0,0,1.53,0,8.84,8.84,0,0,1,3.819-1.2c.22-.017.443-.026.664-.026a9.2,9.2,0,0,1,7,3.35,11.85,11.85,0,0,1,2.744,8.565,38.041,38.041,0,0,1-2.68,10.329c-2.079,4.987-4.492,7.515-7.173,7.515" transform="translate(-41.419 -179.736)" fill="#f2463e"/>
        <path id="Trazado_898199" data-name="Trazado 898199" d="M158.444,229.574a38.036,38.036,0,0,1-2.68,10.33c-2.068,4.987-4.481,7.515-7.171,7.515a5.874,5.874,0,0,1-3.251-1.305,17.135,17.135,0,0,0,8.391-15.014,17.421,17.421,0,0,0-6.046-13.381c.117-.014.233-.026.348-.035.22-.016.443-.024.662-.024a9.2,9.2,0,0,1,7,3.35,11.836,11.836,0,0,1,2.746,8.564" transform="translate(-120.019 -179.736)" fill="#dc4038"/>
        <rect id="Rectángulo_402782" data-name="Rectángulo 402782" width="2.091" height="6.034" transform="translate(3.758 31.864) rotate(-45)" fill="#142546"/>
        <rect id="Rectángulo_402783" data-name="Rectángulo 402783" width="6.788" height="2.091" transform="matrix(0.106, -0.994, 0.994, 0.106, 12.519, 33.159)" fill="#142546"/>
        <rect id="Rectángulo_402784" data-name="Rectángulo 402784" width="6.788" height="2.091" transform="matrix(0.994, -0.106, 0.106, 0.994, 0, 39.786)" fill="#142546"/>
        <path id="Trazado_898200" data-name="Trazado 898200" d="M270.529,49.795a3.817,3.817,0,1,1,3.817-3.817,3.817,3.817,0,0,1-3.817,3.817m0-5.544a1.727,1.727,0,1,0,1.727,1.727,1.727,1.727,0,0,0-1.727-1.727" transform="translate(-220.242 -34.814)" fill="#142546"/>
        <path id="Trazado_898201" data-name="Trazado 898201" d="M109.567,15.721l-6.75-9.931V1.7a1.7,1.7,0,0,0-1.7-1.7H79.39a1.7,1.7,0,0,0-1.7,1.7v3.31L71.183,15.381a3.868,3.868,0,0,0-.592,2.061v5.115h2.091V17.843H94.524V28.851H72.682v-3.1H70.591v12.6a9.848,9.848,0,0,0-5.18-1.476c-.247,0-.5.01-.744.028a9.859,9.859,0,0,0-3.769,1.07,18.952,18.952,0,0,1,2.312-9.281L61.4,27.649a20.834,20.834,0,0,0-2.6,10.036,9.833,9.833,0,0,0-3.136-.775c-.246-.017-.5-.028-.744-.028a10.22,10.22,0,0,0-7.79,3.713,12.9,12.9,0,0,0-3,9.32,40.493,40.493,0,0,0,2.629,10.611c2.167,5.443,4.879,8.2,8.043,8.2,1.824,0,3.521-1.12,4.971-2.171a.636.636,0,0,1,.777.014c1.2.909,2.85,2.157,4.755,2.157s3.7-1.026,5.3-3.06a3.11,3.11,0,0,0,3.058,2.962h33.515a3.12,3.12,0,0,0,3.066-3.164V17.9a3.856,3.856,0,0,0-.673-2.18m-12.046.031,4.333-7.666,5.208,7.666Zm-2.4,0h-21.7l5.9-9.395h21.117ZM79.785,2.091H100.73V4.267H79.784Zm22.155,15.752V50.407h2.091V17.843h4.117v44.5H104.03V54.153h-2.091v8.189H96.615v-44.5ZM72.682,62.253q.387-.795.758-1.685A39.247,39.247,0,0,0,76.2,49.914a13.256,13.256,0,0,0,.012-1.643H94.524V62.342H72.682Zm0-31.311H94.524V46.18H75.94A12.567,12.567,0,0,0,73.2,40.591c-.174-.2-.348-.38-.523-.561Zm-7.37,35.7c-1.112,0-2.241-.786-3.485-1.734a2.727,2.727,0,0,0-3.267-.038c-1.181.857-2.544,1.772-3.743,1.772-2.776,0-4.849-3.744-6.1-6.886a38.038,38.038,0,0,1-2.486-9.989,10.8,10.8,0,0,1,2.493-7.806,8.17,8.17,0,0,1,6.208-2.988,5.059,5.059,0,0,1,.585.023,7.826,7.826,0,0,1,3.345,1.061c.049.641.115,1.162.174,1.53a6.447,6.447,0,0,1-1.772-.6l-.962,1.857a8.406,8.406,0,0,0,7.715,0l-.96-1.857a6.323,6.323,0,0,1-1.9.624c-.038-.225-.11-.7-.174-1.342a2.459,2.459,0,0,0,.463-.211,7.85,7.85,0,0,1,3.373-1.061c.193-.016.389-.023.584-.023a8.17,8.17,0,0,1,6.208,2.988,10.812,10.812,0,0,1,2.493,7.806,36.888,36.888,0,0,1-2.6,10c-1.3,3.133-3.427,6.868-6.192,6.868m8.346-.1a1.028,1.028,0,0,1-.976-1.073V64.426H94.524v2.11Zm33.515,0H96.615v-2.1h11.534V65.47a1.028,1.028,0,0,1-.976,1.066" transform="translate(-36.411)" fill="#142546"/>
        <path id="Trazado_898202" data-name="Trazado 898202" d="M190.55,298.485l-2.028-.509c.145-.575.267-1.129.362-1.647l2.056.383c-.1.559-.235,1.155-.39,1.772" transform="translate(-155.675 -244.7)" fill="#142546"/>
        <path id="Trazado_898203" data-name="Trazado 898203" d="M183.228,251.75l-2.091-.162a7.385,7.385,0,0,0-2.265-5.987l1.434-1.521a9.478,9.478,0,0,1,2.922,7.67" transform="translate(-147.707 -201.553)" fill="#142546"/>
      </g>
    </g>
  </g>
</svg>
