<svg xmlns="http://www.w3.org/2000/svg" xmlns:xlink="http://www.w3.org/1999/xlink" width="74" height="74" viewBox="0 0 74 74">
  <defs>
    <clipPath id="clip-path">
      <rect id="Rectángulo_402900" data-name="Rectángulo 402900" width="55" height="55" transform="translate(0 -0.419)" fill="#4a6b7a"/>
    </clipPath>
  </defs>
  <g id="Grupo_1108179" data-name="Grupo 1108179" transform="translate(-656.051 -7953)">
    <circle id="Elipse_14858" data-name="Elipse 14858" cx="37" cy="37" r="37" transform="translate(656.051 7953)" fill="#fefae9"/>
    <g id="Grupo_1108172" data-name="Grupo 1108172" transform="translate(666.051 7962.948)">
      <g id="Grupo_1108171" data-name="Grupo 1108171" transform="translate(0 0.471)" clip-path="url(#clip-path)">
        <path id="Trazado_898449" data-name="Trazado 898449" d="M22.872,33.181A6.88,6.88,0,0,1,16,26.309c0-4.637,6.055-9.88,6.313-10.1a.86.86,0,0,1,1.118,0c.258.221,6.313,5.464,6.313,10.1a6.88,6.88,0,0,1-6.872,6.872m0-15.159a27.948,27.948,0,0,0-2.36,2.518c-1.828,2.224-2.794,4.219-2.794,5.769a5.154,5.154,0,1,0,10.308,0c0-1.55-.966-3.545-2.794-5.769a27.948,27.948,0,0,0-2.36-2.518" transform="translate(-12.564 -12.96)" fill="#4a6b7a"/>
        <path id="Trazado_898450" data-name="Trazado 898450" d="M44.859,64.3a.859.859,0,1,1,0-1.718,1.72,1.72,0,0,0,1.718-1.718.859.859,0,0,1,1.718,0A3.44,3.44,0,0,1,44.859,64.3" transform="translate(-34.551 -47.511)" fill="#4a6b7a"/>
        <path id="Trazado_898451" data-name="Trazado 898451" d="M57.6,79.575a1.706,1.706,0,0,1-1.215-.5L54.16,76.851a1.718,1.718,0,0,1,0-2.429L55.8,72.785l-1.616-7.271a.858.858,0,0,1,.231-.794L72.88,46.252A.859.859,0,1,1,74.1,47.467L55.96,65.6l1.616,7.271a.858.858,0,0,1-.231.794l-1.97,1.97L57.6,77.857l1.97-1.97a.858.858,0,0,1,.794-.231l7.271,1.616L85.765,59.137a.859.859,0,0,1,1.215,1.215L68.512,78.82a.857.857,0,0,1-.794.231l-7.271-1.616-1.636,1.636a1.706,1.706,0,0,1-1.215.5" transform="translate(-42.134 -36.518)" fill="#4a6b7a"/>
        <path id="Trazado_898452" data-name="Trazado 898452" d="M16.859,199.167a.859.859,0,0,1-.607-1.466l9.449-9.449a.859.859,0,1,1,1.215,1.215l-9.449,9.449a.856.856,0,0,1-.607.252" transform="translate(-12.564 -148.022)" fill="#4a6b7a"/>
        <path id="Trazado_898453" data-name="Trazado 898453" d="M152.321,44.616a.856.856,0,0,1-.607-.252L141.406,34.056a.859.859,0,0,1,1.215-1.215l9.7,9.7,2.221-2.221L140.295,26.074l-2.221,2.221,1.969,1.97a.859.859,0,1,1-1.215,1.215L136.251,28.9a.858.858,0,0,1,0-1.215l3.436-3.436a.858.858,0,0,1,1.215,0l15.462,15.462a.858.858,0,0,1,0,1.215l-3.436,3.436a.856.856,0,0,1-.607.252" transform="translate(-106.794 -19.241)" fill="#4a6b7a"/>
        <path id="Trazado_898454" data-name="Trazado 898454" d="M127.744,88.6a.856.856,0,0,1-.607-.252L114.251,75.466a.859.859,0,0,1,1.215-1.215l12.885,12.885a.859.859,0,0,1-.607,1.466" transform="translate(-89.518 -58.504)" fill="#4a6b7a"/>
        <path id="Trazado_898455" data-name="Trazado 898455" d="M144.859,52.321a.859.859,0,0,1-.607-1.466l14.6-14.6a.859.859,0,0,1,1.215,1.215l-14.6,14.6a.856.856,0,0,1-.607.252" transform="translate(-113.076 -28.664)" fill="#4a6b7a"/>
        <path id="Trazado_898456" data-name="Trazado 898456" d="M201.449,26.308a.856.856,0,0,1-.607-.252l-8.59-8.59a.859.859,0,0,1,1.215-1.215l8.59,8.59a.859.859,0,0,1-.607,1.466" transform="translate(-150.768 -12.959)" fill="#4a6b7a"/>
        <path id="Trazado_898457" data-name="Trazado 898457" d="M147.436,144.295a.856.856,0,0,1-.607-.252l-2.577-2.577a.859.859,0,1,1,1.215-1.215l2.577,2.577a.859.859,0,0,1-.607,1.466" transform="translate(-113.076 -110.33)" fill="#4a6b7a"/>
        <path id="Trazado_898458" data-name="Trazado 898458" d="M127.436,164.295a.856.856,0,0,1-.607-.252l-2.577-2.577a.859.859,0,1,1,1.215-1.215l2.577,2.577a.859.859,0,0,1-.607,1.466" transform="translate(-97.371 -126.035)" fill="#4a6b7a"/>
        <path id="Trazado_898459" data-name="Trazado 898459" d="M154.308,164.616A10.32,10.32,0,0,1,144,154.308c0-.115,0-.233.012-.372a.859.859,0,1,1,1.712.143c-.006.079-.006.151-.006.229a8.59,8.59,0,1,0,8.59-8.59c-.079,0-.151,0-.229.006a.859.859,0,1,1-.143-1.712c.139-.012.257-.012.372-.012a10.308,10.308,0,0,1,0,20.616" transform="translate(-113.076 -113.472)" fill="#4a6b7a"/>
        <path id="Trazado_898460" data-name="Trazado 898460" d="M173.154,188.013a.856.856,0,0,1-.607-.252l-4.3-4.3a.859.859,0,1,1,1.215-1.215l3.688,3.688,3.688-3.687a.859.859,0,0,1,1.215,1.215l-4.3,4.3a.856.856,0,0,1-.607.252" transform="translate(-131.922 -143.311)" fill="#4a6b7a"/>
      </g>
    </g>
  </g>
</svg>
