<svg xmlns="http://www.w3.org/2000/svg" xmlns:xlink="http://www.w3.org/1999/xlink" width="74" height="74" viewBox="0 0 74 74">
  <defs>
    <clipPath id="clip-path">
      <rect id="Rectángulo_402901" data-name="Rectángulo 402901" width="50" height="50" transform="translate(-0.078 -0.078)" fill="#4a6b7a"/>
    </clipPath>
  </defs>
  <g id="Grupo_1108178" data-name="Grupo 1108178" transform="translate(-872.051 -7953)">
    <circle id="Elipse_14859" data-name="Elipse 14859" cx="37" cy="37" r="37" transform="translate(872.051 7953)" fill="#fefae9"/>
    <g id="Grupo_1108174" data-name="Grupo 1108174" transform="translate(883.934 7965.883)">
      <g id="Grupo_1108173" data-name="Grupo 1108173" transform="translate(0.195 0.195)" clip-path="url(#clip-path)">
        <path id="Trazado_898461" data-name="Trazado 898461" d="M48.7,25.4a4.7,4.7,0,1,1,4.7-4.7,4.708,4.708,0,0,1-4.7,4.7m0-7.837A3.135,3.135,0,1,0,51.837,20.7,3.139,3.139,0,0,0,48.7,17.567" transform="translate(-35.536 -13.022)" fill="#4a6b7a"/>
        <path id="Trazado_898462" data-name="Trazado 898462" d="M59.919,149.567H56.784a.784.784,0,1,1,0-1.567h3.135a.784.784,0,1,1,0,1.567" transform="translate(-45.185 -119.16)" fill="#4a6b7a"/>
        <path id="Trazado_898463" data-name="Trazado 898463" d="M67.919,172.458A3.923,3.923,0,0,1,64,168.539V156.784a.784.784,0,1,1,1.567,0v11.756a2.351,2.351,0,0,0,4.7,0v-4.7a.784.784,0,1,1,1.567,0v4.7a3.923,3.923,0,0,1-3.919,3.919" transform="translate(-51.618 -125.592)" fill="#4a6b7a"/>
        <path id="Trazado_898464" data-name="Trazado 898464" d="M35.919,117.781A3.923,3.923,0,0,1,32,113.863V88.784a.784.784,0,1,1,1.567,0v25.079a2.351,2.351,0,1,0,4.7,0V100.539a.784.784,0,0,1,1.567,0v13.323a3.923,3.923,0,0,1-3.919,3.919" transform="translate(-25.887 -70.915)" fill="#4a6b7a"/>
        <path id="Trazado_898465" data-name="Trazado 898465" d="M11.135,76.377A3.139,3.139,0,0,1,8,73.242V63.053A7.061,7.061,0,0,1,15.053,56h4.7a.784.784,0,0,1,0,1.567h-4.7a5.492,5.492,0,0,0-5.486,5.486V73.242a1.567,1.567,0,1,0,3.135,0V63.053a.784.784,0,0,1,1.567,0V73.242a3.139,3.139,0,0,1-3.135,3.135" transform="translate(-6.59 -45.185)" fill="#4a6b7a"/>
        <path id="Trazado_898466" data-name="Trazado 898466" d="M168.7,25.4a4.7,4.7,0,1,1,4.7-4.7,4.708,4.708,0,0,1-4.7,4.7m0-7.837a3.135,3.135,0,1,0,3.135,3.135,3.139,3.139,0,0,0-3.135-3.135" transform="translate(-132.025 -13.022)" fill="#4a6b7a"/>
        <path id="Trazado_898467" data-name="Trazado 898467" d="M179.919,149.567h-3.135a.784.784,0,1,1,0-1.567h3.135a.784.784,0,1,1,0,1.567" transform="translate(-141.674 -119.16)" fill="#4a6b7a"/>
        <path id="Trazado_898468" data-name="Trazado 898468" d="M155.919,172.458A3.923,3.923,0,0,1,152,168.539v-4.7a.784.784,0,1,1,1.567,0v4.7a2.351,2.351,0,0,0,4.7,0V156.784a.784.784,0,0,1,1.567,0v11.756a3.923,3.923,0,0,1-3.919,3.919" transform="translate(-122.376 -125.592)" fill="#4a6b7a"/>
        <path id="Trazado_898469" data-name="Trazado 898469" d="M187.919,117.781A3.923,3.923,0,0,1,184,113.863V100.539a.784.784,0,0,1,1.567,0v13.323a2.351,2.351,0,1,0,4.7,0V88.784a.784.784,0,1,1,1.567,0v25.079a3.923,3.923,0,0,1-3.919,3.919" transform="translate(-148.106 -70.915)" fill="#4a6b7a"/>
        <path id="Trazado_898470" data-name="Trazado 898470" d="M193.4,76.377a3.139,3.139,0,0,1-3.135-3.135V63.053a.784.784,0,1,1,1.567,0V73.242a1.567,1.567,0,1,0,3.135,0V63.053a5.492,5.492,0,0,0-5.486-5.486h-4.7a.784.784,0,1,1,0-1.567h4.7a7.061,7.061,0,0,1,7.053,7.053V73.242a3.139,3.139,0,0,1-3.135,3.135" transform="translate(-148.106 -45.185)" fill="#4a6b7a"/>
        <path id="Trazado_898471" data-name="Trazado 898471" d="M102.891,70.27H95.837a.784.784,0,1,1,0-1.567h6.27V65.567H89.567V68.7H92.7a.784.784,0,0,1,0,1.567H88.784A.784.784,0,0,1,88,69.486v-4.7A.784.784,0,0,1,88.784,64h14.107a.784.784,0,0,1,.784.784v4.7a.784.784,0,0,1-.784.784" transform="translate(-70.915 -51.618)" fill="#4a6b7a"/>
        <path id="Trazado_898472" data-name="Trazado 898472" d="M104.621,109.944h-4.7a.784.784,0,0,1-.784-.784V106.51l-2.7-1.351a.784.784,0,0,1-.433-.7V88.784a.784.784,0,1,1,1.567,0v15.19l2.7,1.351a.784.784,0,0,1,.433.7v2.351h3.135v-2.2a.784.784,0,0,1,.406-.687l2.729-1.5V88.784a.784.784,0,1,1,1.567,0v15.674a.784.784,0,0,1-.406.687l-2.729,1.5v2.517a.784.784,0,0,1-.784.784" transform="translate(-77.348 -70.915)" fill="#4a6b7a"/>
        <path id="Trazado_898473" data-name="Trazado 898473" d="M124.784,201.4a.784.784,0,0,1-.784-.784v-7.837a.784.784,0,1,1,1.567,0v7.837a.784.784,0,0,1-.784.784" transform="translate(-99.862 -154.539)" fill="#4a6b7a"/>
        <path id="Trazado_898474" data-name="Trazado 898474" d="M107.756,113.567H96.784a.784.784,0,0,1,0-1.567h10.972a.784.784,0,0,1,0,1.567" transform="translate(-77.348 -90.213)" fill="#4a6b7a"/>
        <path id="Trazado_898475" data-name="Trazado 898475" d="M143.135,133.567h-2.351a.784.784,0,1,1,0-1.567h2.351a.784.784,0,1,1,0,1.567" transform="translate(-112.727 -106.294)" fill="#4a6b7a"/>
        <path id="Trazado_898476" data-name="Trazado 898476" d="M143.135,153.567h-2.351a.784.784,0,1,1,0-1.567h2.351a.784.784,0,1,1,0,1.567" transform="translate(-112.727 -122.376)" fill="#4a6b7a"/>
        <path id="Trazado_898477" data-name="Trazado 898477" d="M124.784,52.458a.784.784,0,0,1-.784-.784V36.784a.784.784,0,0,1,1.567,0V51.674a.784.784,0,0,1-.784.784" transform="translate(-99.862 -29.104)" fill="#4a6b7a"/>
        <path id="Trazado_898478" data-name="Trazado 898478" d="M112.621,37.567h-7.837a.784.784,0,0,1,0-1.567h7.837a.784.784,0,0,1,0,1.567" transform="translate(-83.78 -29.104)" fill="#4a6b7a"/>
      </g>
    </g>
  </g>
</svg>
