<svg xmlns="http://www.w3.org/2000/svg" xmlns:xlink="http://www.w3.org/1999/xlink" width="90" height="90" viewBox="0 0 90 90">
  <defs>
    <clipPath id="clip-path">
      <rect id="Rectángulo_403010" data-name="Rectángulo 403010" width="58.483" height="60.056" fill="#12263f"/>
    </clipPath>
  </defs>
  <g id="Grupo_1108290" data-name="Grupo 1108290" transform="translate(-1228.051 -14379)">
    <g id="Grupo_1108287" data-name="Grupo 1108287" transform="translate(316 12723)">
      <g id="Grupo_1107896" data-name="Grupo 1107896" transform="translate(577.27 -2177)">
        <g id="Grupo_1098742" data-name="Grupo 1098742" transform="translate(-868.539 3444.258)">
          <g id="Rectángulo_400898" data-name="Rectángulo 400898" transform="translate(1203.32 388.742)" fill="#fdbabb" stroke="#fff" stroke-width="3" opacity="0.859">
            <rect width="90" height="90" rx="45" stroke="none"/>
            <rect x="1.5" y="1.5" width="87" height="87" rx="43.5" fill="none"/>
          </g>
          <g id="Rectángulo_400907" data-name="Rectángulo 400907" transform="translate(1203.32 388.742)" fill="none" stroke="#fff" stroke-width="3">
            <rect width="90" height="90" rx="45" stroke="none"/>
            <rect x="1.5" y="1.5" width="87" height="87" rx="43.5" fill="none"/>
          </g>
        </g>
      </g>
    </g>
    <g id="Grupo_1108289" data-name="Grupo 1108289" transform="translate(1244.061 14391.517)">
      <g id="Grupo_1108288" data-name="Grupo 1108288" clip-path="url(#clip-path)">
        <path id="Trazado_898681" data-name="Trazado 898681" d="M6.074,56.243a.852.852,0,0,1-.61-.256A26.412,26.412,0,0,1,.19,48.255a2.173,2.173,0,0,1,1.281-2.945L6.235,43.68a2.187,2.187,0,0,1,2.565.938l.038.063c.189.314.414.688.665,1.1a28.484,28.484,0,0,0,6.746,7.62.854.854,0,0,1-.506,1.542.864.864,0,0,1-.531-.183A30.2,30.2,0,0,1,8.042,46.67c-.253-.415-.479-.792-.669-1.107L7.335,45.5a.461.461,0,0,0-.548-.2l-4.763,1.63a.462.462,0,0,0-.277.256.456.456,0,0,0,0,.372,24.714,24.714,0,0,0,4.934,7.234.855.855,0,0,1-.61,1.454" transform="translate(0 -32.927)" fill="#12263f"/>
        <path id="Trazado_898682" data-name="Trazado 898682" d="M63.662,197.867a22.339,22.339,0,0,1-6.812-1.329c-7.9-2.539-13.366-8.386-16.562-12.845a.855.855,0,1,1,1.389-1c3.046,4.249,8.241,9.818,15.7,12.214,2.636.847,7.047,2.265,10.737.142a7.315,7.315,0,0,0,1.307-.973.855.855,0,1,1,1.157,1.258,8.991,8.991,0,0,1-1.611,1.2,10.469,10.469,0,0,1-5.3,1.333" transform="translate(-30.329 -137.811)" fill="#12263f"/>
        <path id="Trazado_898683" data-name="Trazado 898683" d="M133.976,78.365a.855.855,0,0,1-.726-.4,13.856,13.856,0,0,0-3.467-3.792,14.714,14.714,0,0,0-5.4-2.49.855.855,0,0,1,.4-1.662A16.413,16.413,0,0,1,130.8,72.8a15.564,15.564,0,0,1,3.9,4.257.855.855,0,0,1-.724,1.307" transform="translate(-93.513 -52.901)" fill="#12263f"/>
        <path id="Trazado_898684" data-name="Trazado 898684" d="M40.982,48.968a.855.855,0,0,1-.672-1.383l3.79-4.822a.854.854,0,0,1,.912-.292l7.129,2.084a.855.855,0,1,1-.48,1.641l-6.574-1.922-3.433,4.368a.853.853,0,0,1-.673.327" transform="translate(-30.329 -32.074)" fill="#12263f"/>
        <path id="Trazado_898685" data-name="Trazado 898685" d="M82.335,53.8a.869.869,0,0,1-.191-.021.855.855,0,0,1-.643-1.023L82.38,48.9c.485-2.119.786-4.265,1.017-6.084a13.874,13.874,0,0,1,4.772-8.825,14.041,14.041,0,0,1,2.312-1.6l3.18-1.753-2.58-6.5A28.224,28.224,0,0,0,78.563,38.116l-.636,1.546a.855.855,0,1,1-1.581-.65l.636-1.547A29.933,29.933,0,0,1,91.139,22.179a.855.855,0,0,1,1.18.447l3.209,8.083a.855.855,0,0,1-.382,1.064l-3.839,2.116a12.339,12.339,0,0,0-2.029,1.4,12.169,12.169,0,0,0-4.184,7.74c-.236,1.86-.546,4.058-1.047,6.249l-.879,3.856a.855.855,0,0,1-.833.665" transform="translate(-57.653 -16.693)" fill="#12263f"/>
        <path id="Trazado_898686" data-name="Trazado 898686" d="M58.3,9.883a.855.855,0,0,1-.85-.777A7.562,7.562,0,0,0,55.7,4.914a.855.855,0,0,1,.413-1.37l6.554-1.927a.854.854,0,0,1,1.053.552l.914,2.768L67.074.446A.854.854,0,0,1,67.825,0H73.56a.855.855,0,0,1,.678,1.375L73.12,2.832a6.819,6.819,0,0,0-1.268,2.8A.855.855,0,0,1,70.175,5.3a8.538,8.538,0,0,1,1.588-3.507l.064-.084H68.333l-3.14,5.782a.855.855,0,0,1-1.563-.14l-1.274-3.86-4.6,1.352A9.257,9.257,0,0,1,59.151,8.95a.854.854,0,0,1-.773.929c-.027,0-.053,0-.079,0" transform="translate(-41.947 0.001)" fill="#12263f"/>
        <path id="Trazado_898687" data-name="Trazado 898687" d="M25.934,106.486a3.535,3.535,0,0,1-.655-.062,3.38,3.38,0,0,1-2.741-2.834l-.99-6.4a14.225,14.225,0,0,1,3.765-11.948,7.727,7.727,0,0,1,9.078-1.572l1.644.822a5.839,5.839,0,0,1,2.71,7.675,17.889,17.889,0,0,1-5.068,6.5,16.035,16.035,0,0,0-3.845,4.458l-.965,1.655a3.374,3.374,0,0,1-2.932,1.7m-1.707-3.158a1.707,1.707,0,0,0,3.162.6l.965-1.655a17.733,17.733,0,0,1,4.253-4.931,16.175,16.175,0,0,0,4.582-5.88,4.136,4.136,0,0,0-1.92-5.436L33.625,85.2a6.027,6.027,0,0,0-7.079,1.226,12.505,12.505,0,0,0-3.31,10.5Z" transform="translate(-16.161 -62.615)" fill="#12263f"/>
        <path id="Trazado_898688" data-name="Trazado 898688" d="M140.948,136.994H117.155a3.457,3.457,0,0,1-2.994-5.186l11.9-20.606a3.422,3.422,0,0,1,2.994-1.729h0a3.422,3.422,0,0,1,2.994,1.729l11.9,20.606a3.457,3.457,0,0,1-2.994,5.186m-11.9-25.811a1.73,1.73,0,0,0-1.514.874l-11.9,20.606a1.748,1.748,0,0,0,1.514,2.622h23.793a1.747,1.747,0,0,0,1.514-2.622l-11.9-20.606a1.73,1.73,0,0,0-1.514-.874m-2.254.447h0Z" transform="translate(-85.927 -82.74)" fill="#12263f"/>
        <path id="Trazado_898689" data-name="Trazado 898689" d="M173.942,148.208a.855.855,0,0,1-.855-.855v-9.575a.855.855,0,0,1,1.709,0v9.575a.855.855,0,0,1-.855.855" transform="translate(-130.818 -103.486)" fill="#12263f"/>
        <path id="Trazado_898690" data-name="Trazado 898690" d="M173.942,194.751a.855.855,0,0,1-.855-.855v-.277a.855.855,0,0,1,1.709,0v.277a.855.855,0,0,1-.855.855" transform="translate(-130.818 -145.69)" fill="#12263f"/>
      </g>
    </g>
  </g>
</svg>
