<svg xmlns="http://www.w3.org/2000/svg" width="120" height="120" viewBox="0 0 120 120">
  <g id="Grupo_1107892" data-name="Grupo 1107892" transform="translate(-433.051 -812)">
    <circle id="Elipse_14835" data-name="Elipse 14835" cx="60" cy="60" r="60" transform="translate(433.051 812)" fill="#d2e1f1"/>
    <g id="cigarro" transform="translate(454.051 782.667)">
      <rect id="Rectángulo_402672" data-name="Rectángulo 402672" width="65.251" height="11.419" transform="translate(1.223 98.673)" fill="#ededed"/>
      <rect id="Rectángulo_402673" data-name="Rectángulo 402673" width="8.156" height="11.419" transform="translate(58.318 98.673)" fill="#d8d8da"/>
      <rect id="Rectángulo_402674" data-name="Rectángulo 402674" width="22.838" height="11.419" transform="translate(1.223 98.673)" fill="#efc27b"/>
      <path id="Trazado_898105" data-name="Trazado 898105" d="M408.757,77.8c-4.894-4.894-6.525-11.419-6.525-21.207-8.156,8.156-8.156,17.944,0,26.1s0,16.313,0,16.313C413.65,94.115,413.65,82.7,408.757,77.8Z" transform="translate(-336.165 -6.862)" fill="#ededed"/>
      <path id="Trazado_898106" data-name="Trazado 898106" d="M425.309,77.8c-4.894-4.894-6.525-11.419-6.525-21.207a24.713,24.713,0,0,0-3.165,3.84c.412,7.7,2.2,13.143,6.428,17.367,3.832,3.832,4.663,11.666-.641,17.234a14.393,14.393,0,0,1-2.622,3.972C430.2,94.115,430.2,82.7,425.309,77.8Z" transform="translate(-352.717 -6.862)" fill="#d8d8da"/>
      <g id="Grupo_1107885" data-name="Grupo 1107885" transform="translate(0 48.51)">
        <path id="Trazado_898107" data-name="Trazado 898107" d="M66.475,371.87H1.223A1.224,1.224,0,0,0,0,373.093v11.419a1.223,1.223,0,0,0,1.223,1.223H24.061a1.223,1.223,0,0,0,1.223-1.223v-10.2H65.251v8.972H30.587a1.223,1.223,0,1,0,0,2.447H66.475a1.223,1.223,0,0,0,1.223-1.223V373.093A1.223,1.223,0,0,0,66.475,371.87ZM22.838,383.289H2.447v-8.972H22.838Z" transform="translate(0 -322.931)" fill="#2e2d31"/>
        <path id="Trazado_898108" data-name="Trazado 898108" d="M497.039,371.87a1.223,1.223,0,0,0-1.223,1.223v11.419a1.223,1.223,0,1,0,2.447,0V373.093A1.224,1.224,0,0,0,497.039,371.87Z" transform="translate(-420.777 -322.931)" fill="#2e2d31"/>
        <path id="Trazado_898109" data-name="Trazado 898109" d="M475.482,371.87a1.223,1.223,0,0,0-1.223,1.223v11.419a1.223,1.223,0,1,0,2.447,0V373.093A1.224,1.224,0,0,0,475.482,371.87Z" transform="translate(-402.483 -322.931)" fill="#2e2d31"/>
        <path id="Trazado_898110" data-name="Trazado 898110" d="M453.924,371.87a1.223,1.223,0,0,0-1.223,1.223v11.419a1.223,1.223,0,1,0,2.447,0V373.093A1.224,1.224,0,0,0,453.924,371.87Z" transform="translate(-384.187 -322.931)" fill="#2e2d31"/>
        <path id="Trazado_898111" data-name="Trazado 898111" d="M398.234,91.282a1.223,1.223,0,0,0,1.347,1.99c5.543-2.375,9.136-6.491,10.117-11.588a13.036,13.036,0,0,0-3.209-11.609c-3.4-3.4-5.206-7.7-5.867-13.945a1.223,1.223,0,1,0-2.433.258c.725,6.844,2.751,11.6,6.57,15.418a10.713,10.713,0,0,1,2.536,9.416,12.363,12.363,0,0,1-4.338,7.174c.129-.308.25-.628.361-.96,1.039-3.118,1.3-7.812-3.354-12.467-3.768-3.768-5.759-7.981-5.759-12.185s1.992-8.418,5.759-12.185a1.223,1.223,0,0,0-1.73-1.73c-4.236,4.236-6.476,9.048-6.476,13.915S394,72.463,398.235,76.7C405.41,83.875,398.529,90.985,398.234,91.282Z" transform="translate(-332.469 -48.51)" fill="#2e2d31"/>
      </g>
    </g>
  </g>
</svg>
