<svg xmlns="http://www.w3.org/2000/svg" xmlns:xlink="http://www.w3.org/1999/xlink" width="90" height="90" viewBox="0 0 90 90">
  <defs>
    <clipPath id="clip-path">
      <rect id="Rectángulo_403008" data-name="Rectángulo 403008" width="58.26" height="43.719" fill="#12263f"/>
    </clipPath>
  </defs>
  <g id="Grupo_1108297" data-name="Grupo 1108297" transform="translate(-913.051 -14379)">
    <g id="Grupo_1108277" data-name="Grupo 1108277" transform="translate(1 12723)">
      <g id="Grupo_1107896" data-name="Grupo 1107896" transform="translate(577.27 -2177)">
        <g id="Grupo_1098742" data-name="Grupo 1098742" transform="translate(-868.539 3444.258)">
          <g id="Rectángulo_400898" data-name="Rectángulo 400898" transform="translate(1203.32 388.742)" fill="#fdbabb" stroke="#fff" stroke-width="3" opacity="0.859">
            <rect width="90" height="90" rx="45" stroke="none"/>
            <rect x="1.5" y="1.5" width="87" height="87" rx="43.5" fill="none"/>
          </g>
          <g id="Rectángulo_400907" data-name="Rectángulo 400907" transform="translate(1203.32 388.742)" fill="none" stroke="#fff" stroke-width="3">
            <rect width="90" height="90" rx="45" stroke="none"/>
            <rect x="1.5" y="1.5" width="87" height="87" rx="43.5" fill="none"/>
          </g>
        </g>
      </g>
    </g>
    <g id="Grupo_1108283" data-name="Grupo 1108283" transform="translate(929.051 14402)">
      <g id="Grupo_1108282" data-name="Grupo 1108282" clip-path="url(#clip-path)">
        <path id="Trazado_898659" data-name="Trazado 898659" d="M.818,126.585A.818.818,0,0,1,0,125.766v-5.835a7.25,7.25,0,0,1,7.242-7.242,2.434,2.434,0,0,0,2.328-1.7l.524-1.651a.819.819,0,1,1,1.56.495l-.524,1.651a4.065,4.065,0,0,1-3.889,2.847,5.612,5.612,0,0,0-5.605,5.605v5.835a.818.818,0,0,1-.818.818" transform="translate(0 -83.328)" fill="#12263f"/>
        <path id="Trazado_898660" data-name="Trazado 898660" d="M78.458,126.585a.818.818,0,0,1-.818-.818v-5.835a5.612,5.612,0,0,0-5.605-5.605,4.065,4.065,0,0,1-3.889-2.847l-.524-1.651a.819.819,0,1,1,1.56-.495l.524,1.651a2.434,2.434,0,0,0,2.328,1.7,7.25,7.25,0,0,1,7.242,7.242v5.835a.818.818,0,0,1-.818.818" transform="translate(-51.779 -83.328)" fill="#12263f"/>
        <path id="Trazado_898661" data-name="Trazado 898661" d="M25.767,48.606c-5.552,0-10.069-4.89-10.069-10.9v-1.5a.818.818,0,0,1,.667-.8,2.282,2.282,0,0,0,1.766-1.585l.742-2.45a.818.818,0,0,1,.783-.581h0a.819.819,0,0,1,.782.586l.739,2.49a6.941,6.941,0,0,0,2.6-3.942l.4-1.662a.818.818,0,0,1,1.523-.186l.386.746A12.827,12.827,0,0,0,35.161,35.5a.818.818,0,0,1,.675.806V37.7c0,6.011-4.517,10.9-10.069,10.9M17.335,36.824v.88c0,5.108,3.783,9.264,8.432,9.264S34.2,42.813,34.2,37.7v-.727a14.5,14.5,0,0,1-8.93-6.3,8.58,8.58,0,0,1-4.179,5.176.819.819,0,0,1-1.172-.488l-.272-.917a3.911,3.911,0,0,1-2.311,2.376" transform="translate(-12.027 -21.17)" fill="#12263f"/>
        <path id="Trazado_898662" data-name="Trazado 898662" d="M30.972,16.109a.819.819,0,0,1-.762-1.118l.566-1.44a6.992,6.992,0,0,0-1.564-7.5.818.818,0,0,1,.145-1.272,4.519,4.519,0,0,0,1.5-1.543,4.49,4.49,0,0,0,.493-1.229l-.456.154a16.052,16.052,0,0,1-8.139.56l-1.406-.268a5.748,5.748,0,0,0-6.523,3.724.819.819,0,0,1-.566.516l-.365.094a5.494,5.494,0,0,0-3.471,7.964.819.819,0,0,1-1.436.786A7.131,7.131,0,0,1,13.443,5.211,7.375,7.375,0,0,1,21.653.843l1.406.268a14.414,14.414,0,0,0,7.308-.5L32.04.044a.818.818,0,0,1,1.079.816l-.019.392a6.146,6.146,0,0,1-.833,2.809A6.156,6.156,0,0,1,31,5.592a8.629,8.629,0,0,1,1.3,8.558l-.566,1.44a.819.819,0,0,1-.762.519" transform="translate(-6.209 -0.001)" fill="#12263f"/>
        <path id="Trazado_898663" data-name="Trazado 898663" d="M143.337,21.639a.819.819,0,0,1-.777-.562,11.167,11.167,0,0,1,1.769-10.347,10.879,10.879,0,0,1,9.319-4.222l.025,0a6.164,6.164,0,0,1,4.5,2.581c5.948,2.146,5.087,8.336,4.621,11.685a.818.818,0,0,1-1.621-.226c.589-4.235.783-8.495-3.779-10a.818.818,0,0,1-.431-.333,4.548,4.548,0,0,0-3.437-2.08,9.13,9.13,0,0,0-7.906,3.592,9.531,9.531,0,0,0-1.509,8.832.819.819,0,0,1-.778,1.075" transform="translate(-108.789 -4.968)" fill="#12263f"/>
        <path id="Trazado_898664" data-name="Trazado 898664" d="M161.4,54.181a8.3,8.3,0,0,1-8.068-8.5V41.753a.819.819,0,0,1,.65-.8l.327-.069a15.817,15.817,0,0,0,9.192-5.731.819.819,0,0,1,1.437.3l.316,1.228A6.475,6.475,0,0,0,168.967,41a.818.818,0,0,1,.5.753v3.926a8.3,8.3,0,0,1-8.068,8.5m-6.431-11.767v3.265a6.445,6.445,0,1,0,12.863,0V42.274a8.133,8.133,0,0,1-4.083-4.9,17.462,17.462,0,0,1-8.78,5.039" transform="translate(-117.473 -26.692)" fill="#12263f"/>
        <path id="Trazado_898665" data-name="Trazado 898665" d="M215.57,83.367a.86.86,0,0,1-.109-.007l-1.76-.238a6.986,6.986,0,0,1-4.5-2.531.818.818,0,1,1,1.272-1.03,5.353,5.353,0,0,0,3.445,1.939l.83.112v-.948a5.389,5.389,0,0,0-2.142-4.289l-1.638-1.23a.819.819,0,0,1,.983-1.309l1.638,1.23a7.035,7.035,0,0,1,2.8,5.6v1.885a.819.819,0,0,1-.818.818" transform="translate(-160.143 -56.444)" fill="#12263f"/>
        <path id="Trazado_898666" data-name="Trazado 898666" d="M136.481,83.367a.819.819,0,0,1-.818-.818V80.664a7.03,7.03,0,0,1,2.8-5.6l1.634-1.229a.818.818,0,0,1,.984,1.308l-1.635,1.23a5.385,5.385,0,0,0-2.146,4.29v.948l.832-.112a5.344,5.344,0,0,0,3.384-1.869.819.819,0,0,1,1.256,1.05,6.981,6.981,0,0,1-4.42,2.441l-1.761.238a.863.863,0,0,1-.109.007" transform="translate(-103.938 -56.443)" fill="#12263f"/>
        <path id="Trazado_898667" data-name="Trazado 898667" d="M127.347,125.96a.818.818,0,0,1-.818-.818v-7.16a7.381,7.381,0,0,1,7.372-7.372,2.5,2.5,0,0,0,2.412-1.846l.221-.816a.818.818,0,1,1,1.58.427l-.221.816a4.144,4.144,0,0,1-3.992,3.055,5.742,5.742,0,0,0-5.735,5.735v7.16a.818.818,0,0,1-.818.818" transform="translate(-96.94 -82.241)" fill="#12263f"/>
        <path id="Trazado_898668" data-name="Trazado 898668" d="M210.265,125.959a.818.818,0,0,1-.818-.818v-7.16a5.742,5.742,0,0,0-5.735-5.735,4.144,4.144,0,0,1-3.992-3.055l-.221-.816a.818.818,0,1,1,1.58-.427l.221.816a2.5,2.5,0,0,0,2.412,1.846,7.381,7.381,0,0,1,7.372,7.372v7.16a.818.818,0,0,1-.818.818" transform="translate(-152.824 -82.24)" fill="#12263f"/>
      </g>
    </g>
  </g>
</svg>
