<svg xmlns="http://www.w3.org/2000/svg" xmlns:xlink="http://www.w3.org/1999/xlink" width="90" height="90" viewBox="0 0 90 90">
  <defs>
    <clipPath id="clip-path">
      <rect id="Rectángulo_403003" data-name="Rectángulo 403003" width="46.008" height="61.862" fill="#12263f"/>
    </clipPath>
  </defs>
  <g id="Grupo_1108275" data-name="Grupo 1108275" transform="translate(-281.757 -1656.337)">
    <g id="Grupo_1107788" data-name="Grupo 1107788" transform="translate(-53.024 -2176.663)">
      <g id="Grupo_1098742" data-name="Grupo 1098742" transform="translate(-868.539 3444.258)">
        <g id="Rectángulo_400898" data-name="Rectángulo 400898" transform="translate(1203.32 388.742)" fill="#fdbabb" stroke="#fff" stroke-width="3" opacity="0.859">
          <rect width="90" height="90" rx="45" stroke="none"/>
          <rect x="1.5" y="1.5" width="87" height="87" rx="43.5" fill="none"/>
        </g>
        <g id="Rectángulo_400907" data-name="Rectángulo 400907" transform="translate(1203.32 388.742)" fill="none" stroke="#fff" stroke-width="3">
          <rect width="90" height="90" rx="45" stroke="none"/>
          <rect x="1.5" y="1.5" width="87" height="87" rx="43.5" fill="none"/>
        </g>
      </g>
    </g>
    <g id="Grupo_1108260" data-name="Grupo 1108260" transform="translate(300.746 1669.405)">
      <g id="Grupo_1108259" data-name="Grupo 1108259" clip-path="url(#clip-path)">
        <path id="Trazado_898593" data-name="Trazado 898593" d="M106.683,7H99.49a1.468,1.468,0,0,1-1.065-.468,1.91,1.91,0,0,1-.5-1.406l.154-3.433A1.672,1.672,0,0,1,99.644,0h6.885A1.671,1.671,0,0,1,108.1,1.69l.154,3.433a1.91,1.91,0,0,1-.5,1.406A1.469,1.469,0,0,1,106.683,7m-7-1.758h6.812a.305.305,0,0,0,0-.037l-.154-3.433v-.01h-6.5v.011L99.68,5.2a.3.3,0,0,0,0,.037" transform="translate(-73.324)" fill="#12263f"/>
        <path id="Trazado_898594" data-name="Trazado 898594" d="M92.207,185.508H77.265a3.855,3.855,0,0,1-3.851-3.851V166a.879.879,0,0,1,1.758,0v15.654a2.1,2.1,0,0,0,2.093,2.093H92.207a2.092,2.092,0,0,0,2.09-2.09v-3.783a.879.879,0,1,1,1.758,0v3.783a3.853,3.853,0,0,1-3.848,3.848" transform="translate(-54.973 -123.646)" fill="#12263f"/>
        <path id="Trazado_898595" data-name="Trazado 898595" d="M135.088,52.155a.879.879,0,0,1-.879-.879V46.935a2.914,2.914,0,0,0-.872-2.073l-2.325-2.275a14.194,14.194,0,0,1-4.3-9.827.879.879,0,1,1,1.758-.047,12.448,12.448,0,0,0,3.766,8.616l2.326,2.275a4.681,4.681,0,0,1,1.4,3.33v4.341a.879.879,0,0,1-.879.879" transform="translate(-94.885 -23.855)" fill="#12263f"/>
        <path id="Trazado_898596" data-name="Trazado 898596" d="M74.871,46.778a.88.88,0,0,1-.846-1.121,4.659,4.659,0,0,1,1.223-2.051l2.328-2.274a12.471,12.471,0,0,0,3.767-8.617.879.879,0,0,1,1.758.049,14.221,14.221,0,0,1-4.3,9.826l-2.328,2.274a2.9,2.9,0,0,0-.762,1.277.879.879,0,0,1-.845.638" transform="translate(-55.405 -23.856)" fill="#12263f"/>
        <path id="Trazado_898597" data-name="Trazado 898597" d="M140.227,120.3a.88.88,0,0,1-.861-1.064,2.19,2.19,0,0,0-2.139-2.648h-4.681a2.19,2.19,0,0,0-2.143,2.629.879.879,0,0,1-1.723.354,3.95,3.95,0,0,1,3.866-4.741h4.681a3.948,3.948,0,0,1,3.858,4.775.88.88,0,0,1-.859.695" transform="translate(-96.297 -85.983)" fill="#12263f"/>
        <path id="Trazado_898598" data-name="Trazado 898598" d="M132.731,133.7a3.958,3.958,0,0,1-3.866-3.152.879.879,0,0,1,1.723-.352,2.194,2.194,0,0,0,2.143,1.746.879.879,0,1,1,0,1.758" transform="translate(-96.482 -96.967)" fill="#12263f"/>
        <path id="Trazado_898599" data-name="Trazado 898599" d="M137.05,147.137a3.946,3.946,0,1,1,0-7.892h4.681a3.951,3.951,0,0,1,3.946,3.946,4.066,4.066,0,0,1-.021.41.879.879,0,1,1-1.749-.179c.008-.076.012-.152.012-.23A2.19,2.19,0,0,0,141.731,141H137.05a2.188,2.188,0,1,0,0,4.376.879.879,0,0,1,0,1.758" transform="translate(-99.669 -104.268)" fill="#12263f"/>
        <path id="Trazado_898600" data-name="Trazado 898600" d="M137.226,171.557h-4.681a3.946,3.946,0,1,1,0-7.892h4.681a3.95,3.95,0,0,1,3.946,3.946c0,.1,0,.2-.011.3h0a3.96,3.96,0,0,1-3.935,3.65m-4.681-6.134a2.188,2.188,0,0,0,0,4.375h4.681a2.195,2.195,0,0,0,2.182-2.022c0-.055.006-.11.006-.166a2.19,2.19,0,0,0-2.188-2.188Zm7.74,2.418h0Z" transform="translate(-96.296 -122.553)" fill="#12263f"/>
        <path id="Trazado_898601" data-name="Trazado 898601" d="M140.958,195.975H139.04a3.946,3.946,0,0,1,0-7.892.879.879,0,1,1,0,1.758,2.188,2.188,0,0,0,0,4.375h1.918a2.19,2.19,0,0,0,2.188-2.188,2.247,2.247,0,0,0-.032-.375.879.879,0,1,1,1.733-.3,3.95,3.95,0,0,1-3.889,4.618" transform="translate(-101.159 -140.838)" fill="#12263f"/>
        <path id="Trazado_898602" data-name="Trazado 898602" d="M22.9,113.108a4.477,4.477,0,0,1-4.382-3.619l-.864-4.431a.879.879,0,0,1,1.726-.336l.864,4.431a2.715,2.715,0,1,0,5.33-1.039L23.992,100a3.482,3.482,0,0,0-6.437-1.069l-1.229,2.138q-.087.152-.183.3a5.6,5.6,0,0,1-4.664,2.458L.89,103.92a.879.879,0,1,1-.015-1.758l10.589-.091a3.847,3.847,0,0,0,3.212-1.668c.043-.066.086-.135.127-.205l1.229-2.138a5.241,5.241,0,0,1,9.688,1.609l1.581,8.109a4.474,4.474,0,0,1-3.536,5.247,4.538,4.538,0,0,1-.865.084" transform="translate(-0.002 -71.458)" fill="#12263f"/>
        <path id="Trazado_898603" data-name="Trazado 898603" d="M19.32,207.906H18.245a5.6,5.6,0,0,1-3.985-1.652,3.876,3.876,0,0,0-2.742-1.134H.879a.879.879,0,1,1,0-1.758H11.518a5.635,5.635,0,0,1,3.987,1.651,3.853,3.853,0,0,0,2.74,1.135H19.32a.879.879,0,1,1,0,1.758" transform="translate(0 -152.278)" fill="#12263f"/>
      </g>
    </g>
  </g>
</svg>
