<svg xmlns="http://www.w3.org/2000/svg" width="120" height="120" viewBox="0 0 120 120">
  <g id="Grupo_1108242" data-name="Grupo 1108242" transform="translate(-1160.051 -13943)">
    <g id="Grupo_1108238" data-name="Grupo 1108238" transform="translate(525 13131)">
      <circle id="Elipse_14836" data-name="Elipse 14836" cx="60" cy="60" r="60" transform="translate(635.051 812)" fill="#d2e1f1"/>
    </g>
    <g id="pesas2" transform="translate(1185.051 13907.379)">
      <rect id="Rectángulo_402966" data-name="Rectángulo 402966" width="6.441" height="9.662" transform="translate(62.402 91.153)" fill="#d8d8da"/>
      <rect id="Rectángulo_402967" data-name="Rectángulo 402967" width="45.09" height="9.662" transform="translate(1.208 91.153)" fill="#ededed"/>
      <rect id="Rectángulo_402968" data-name="Rectángulo 402968" width="8.052" height="9.662" transform="translate(23.753 91.153)" fill="#d8d8da"/>
      <g id="Grupo_1108240" data-name="Grupo 1108240" transform="translate(6.039 71.829)">
        <path id="Trazado_898508" data-name="Trazado 898508" d="M58.632,79.448A4.831,4.831,0,0,0,53.8,84.279V87.5a4.831,4.831,0,0,0-9.662,0v32.207a4.831,4.831,0,1,0,9.662,0v3.221a4.831,4.831,0,1,0,9.662,0V84.279A4.831,4.831,0,0,0,58.632,79.448Z" transform="translate(-44.139 -79.448)" fill="#88888f"/>
        <path id="Trazado_898509" data-name="Trazado 898509" d="M341.115,82.67a4.831,4.831,0,0,0-4.831,4.831V84.28a4.831,4.831,0,1,0-9.662,0v38.649a4.831,4.831,0,1,0,9.662,0v-3.221a4.831,4.831,0,1,0,9.662,0V87.5A4.831,4.831,0,0,0,341.115,82.67Z" transform="translate(-287.973 -79.449)" fill="#88888f"/>
      </g>
      <g id="Grupo_1108241" data-name="Grupo 1108241" transform="translate(8.454 71.829)">
        <path id="Trazado_898510" data-name="Trazado 898510" d="M64.209,102.989a4.807,4.807,0,0,0-2.416.648,4.828,4.828,0,0,1,2.416,4.183v32.207a4.828,4.828,0,0,1-2.416,4.183,4.83,4.83,0,0,0,7.247-4.183V107.82A4.831,4.831,0,0,0,64.209,102.989Z" transform="translate(-61.793 -99.768)" fill="#797781"/>
        <path id="Trazado_898511" data-name="Trazado 898511" d="M134.83,79.448a4.807,4.807,0,0,0-2.416.648,4.828,4.828,0,0,1,2.416,4.183v38.649a4.828,4.828,0,0,1-2.416,4.183,4.83,4.83,0,0,0,7.247-4.183V84.279A4.831,4.831,0,0,0,134.83,79.448Z" transform="translate(-122.752 -79.448)" fill="#797781"/>
        <path id="Trazado_898512" data-name="Trazado 898512" d="M346.691,79.448a4.807,4.807,0,0,0-2.415.648,4.828,4.828,0,0,1,2.415,4.183v38.649a4.828,4.828,0,0,1-2.415,4.183,4.83,4.83,0,0,0,7.247-4.183V84.279A4.831,4.831,0,0,0,346.691,79.448Z" transform="translate(-305.627 -79.448)" fill="#797781"/>
        <path id="Trazado_898513" data-name="Trazado 898513" d="M417.313,102.989a4.807,4.807,0,0,0-2.416.648,4.828,4.828,0,0,1,2.416,4.183v32.207a4.828,4.828,0,0,1-2.416,4.183,4.83,4.83,0,0,0,7.247-4.183V107.82A4.831,4.831,0,0,0,417.313,102.989Z" transform="translate(-366.586 -99.768)" fill="#797781"/>
      </g>
      <path id="Trazado_898514" data-name="Trazado 898514" d="M68.843,89.945H65.22V86.322a1.208,1.208,0,0,0-2.416,0v25.766a3.623,3.623,0,0,1-7.247,0V79.881a3.623,3.623,0,0,1,7.247,0,1.208,1.208,0,1,0,2.416,0,6.035,6.035,0,0,0-9.843-4.686,6.039,6.039,0,0,0-11.9,1.465V89.945H26.571V76.66a6.039,6.039,0,0,0-11.9-1.465,6.035,6.035,0,0,0-9.843,4.686V89.945H1.208A1.208,1.208,0,0,0,0,91.153v9.662a1.208,1.208,0,0,0,1.208,1.208H4.831v10.065a6.035,6.035,0,0,0,9.843,4.686,6.039,6.039,0,0,0,11.9-1.465v-8.052a1.208,1.208,0,1,0-2.416,0v8.052a3.623,3.623,0,1,1-7.247,0V76.66a3.623,3.623,0,0,1,7.247,0v24.155a1.208,1.208,0,0,0,1.208,1.208H43.48v13.285a6.039,6.039,0,0,0,11.9,1.465,6.035,6.035,0,0,0,9.843-4.686V102.023h3.623a1.208,1.208,0,0,0,1.208-1.208V91.153A1.207,1.207,0,0,0,68.843,89.945ZM2.416,99.608V92.361H4.831v7.247Zm8.454,16.1a3.628,3.628,0,0,1-3.623-3.623V79.881a3.623,3.623,0,0,1,7.247,0v32.207A3.628,3.628,0,0,1,10.87,115.711Zm15.7-16.1V92.361H43.48v7.247Zm26.571,15.7a3.623,3.623,0,1,1-7.247,0V76.66a3.623,3.623,0,0,1,7.247,0Zm14.493-15.7H65.22V92.361h2.416Z" fill="#2e2d31"/>
    </g>
  </g>
</svg>
