<svg xmlns="http://www.w3.org/2000/svg" xmlns:xlink="http://www.w3.org/1999/xlink" width="74" height="74" viewBox="0 0 74 74">
  <defs>
    <clipPath id="clip-path">
      <rect id="Rectángulo_402902" data-name="Rectángulo 402902" width="56.391" height="31.797" fill="#4a6b7a"/>
    </clipPath>
  </defs>
  <g id="Grupo_1108177" data-name="Grupo 1108177" transform="translate(-1076.051 -7953)">
    <circle id="Elipse_14860" data-name="Elipse 14860" cx="37" cy="37" r="37" transform="translate(1076.051 7953)" fill="#fefae9"/>
    <g id="Grupo_1108176" data-name="Grupo 1108176" transform="translate(1085.051 7973.028)">
      <g id="Grupo_1108175" data-name="Grupo 1108175" clip-path="url(#clip-path)">
        <path id="Trazado_898479" data-name="Trazado 898479" d="M30.425,50.568h0c-10.059,0-19.594-4.566-27.576-13.2a.666.666,0,0,1,0-.9C10.718,27.967,20.561,23.29,30.562,23.29h.008c10.065,0,19.6,4.556,27.576,13.17a.666.666,0,0,1,0,.9c-7.87,8.514-17.716,13.2-27.721,13.2M4.248,36.913c7.635,8.063,16.674,12.322,26.174,12.323h0c9.453,0,18.777-4.371,26.32-12.323-7.629-8.041-16.668-12.288-26.175-12.29h-.007c-9.448,0-18.771,4.36-26.314,12.291" transform="translate(-2.151 -18.771)" fill="#4a6b7a"/>
        <path id="Trazado_898480" data-name="Trazado 898480" d="M99.574,58.2a11.2,11.2,0,1,1,11.2-11.2,11.211,11.211,0,0,1-11.2,11.2m0-21.065A9.866,9.866,0,1,0,109.441,47a9.878,9.878,0,0,0-9.867-9.866" transform="translate(-71.229 -28.854)" fill="#4a6b7a"/>
        <path id="Trazado_898481" data-name="Trazado 898481" d="M124.09,76.809a5.3,5.3,0,1,1,5.3-5.3,5.3,5.3,0,0,1-5.3,5.3m0-9.262a3.965,3.965,0,1,0,3.965,3.965,3.969,3.969,0,0,0-3.965-3.965" transform="translate(-95.744 -53.367)" fill="#4a6b7a"/>
        <path id="Trazado_898482" data-name="Trazado 898482" d="M4.282,57.891a.664.664,0,0,1-.508-.235L.158,53.389a.666.666,0,1,1,1.016-.861L4.79,56.794a.666.666,0,0,1-.508,1.1" transform="translate(0 -42.147)" fill="#4a6b7a"/>
        <path id="Trazado_898483" data-name="Trazado 898483" d="M34.791,36.011a.666.666,0,0,1-.576-.33l-2.686-4.6a.666.666,0,1,1,1.15-.672l2.686,4.6a.666.666,0,0,1-.575,1" transform="translate(-25.338 -24.243)" fill="#4a6b7a"/>
        <path id="Trazado_898484" data-name="Trazado 898484" d="M68.611,19.662a.667.667,0,0,1-.625-.436l-1.72-4.669a.666.666,0,1,1,1.25-.461l1.72,4.669a.666.666,0,0,1-.625.9" transform="translate(-53.375 -11.009)" fill="#4a6b7a"/>
        <path id="Trazado_898485" data-name="Trazado 898485" d="M104.863,9.45a.667.667,0,0,1-.655-.547l-.834-4.59a.666.666,0,0,1,1.311-.238l.834,4.59a.667.667,0,0,1-.656.785" transform="translate(-83.309 -2.843)" fill="#4a6b7a"/>
        <path id="Trazado_898486" data-name="Trazado 898486" d="M142.363,5.861A.666.666,0,0,1,141.7,5.2L141.68.669A.666.666,0,0,1,142.343,0h0a.666.666,0,0,1,.666.663l.017,4.529a.666.666,0,0,1-.663.669Z" transform="translate(-114.19)" fill="#4a6b7a"/>
        <path id="Trazado_898487" data-name="Trazado 898487" d="M176.635,9.044a.667.667,0,0,1-.657-.779l.781-4.547a.666.666,0,0,1,1.313.225L177.29,8.49a.666.666,0,0,1-.656.553" transform="translate(-141.825 -2.551)" fill="#4a6b7a"/>
        <path id="Trazado_898488" data-name="Trazado 898488" d="M209.385,18.912a.667.667,0,0,1-.627-.891l1.65-4.6a.666.666,0,1,1,1.254.45l-1.65,4.6a.666.666,0,0,1-.627.441" transform="translate(-168.221 -10.462)" fill="#4a6b7a"/>
        <path id="Trazado_898489" data-name="Trazado 898489" d="M239.377,34.991a.666.666,0,0,1-.578-1l2.607-4.573a.666.666,0,1,1,1.157.66l-2.607,4.573a.666.666,0,0,1-.579.336" transform="translate(-192.395 -23.442)" fill="#4a6b7a"/>
        <path id="Trazado_898490" data-name="Trazado 898490" d="M266.021,56.6a.666.666,0,0,1-.511-1.092l3.572-4.292a.666.666,0,1,1,1.024.852l-3.572,4.292a.664.664,0,0,1-.512.24" transform="translate(-213.869 -41.088)" fill="#4a6b7a"/>
      </g>
    </g>
  </g>
</svg>
