<svg xmlns="http://www.w3.org/2000/svg" xmlns:xlink="http://www.w3.org/1999/xlink" width="103" height="104" viewBox="0 0 103 104">
  <defs>
    <clipPath id="clip-path">
      <rect id="Rectángulo_402686" data-name="Rectángulo 402686" width="61.365" height="69.257" fill="#4a6b7a" stroke="#4a6b7a" stroke-width="1"/>
    </clipPath>
  </defs>
  <g id="Grupo_1108274" data-name="Grupo 1108274" transform="translate(-0.418 0.449)">
    <ellipse id="Elipse_14838" data-name="Elipse 14838" cx="51.5" cy="52" rx="51.5" ry="52" transform="translate(0.418 -0.449)" fill="#fbeeab"/>
    <g id="Grupo_1107905" data-name="Grupo 1107905" transform="translate(16.254 13.264)">
      <g id="Grupo_1107904" data-name="Grupo 1107904" clip-path="url(#clip-path)">
        <path id="Trazado_898137" data-name="Trazado 898137" d="M236.127,48.031,234.134,49.9l-1.152-1.226,1.917-1.8-2.04-1.918a4.77,4.77,0,1,1,6.535,0l-2.04,1.918,1.917,1.8L238.12,49.9Zm0-9.635a3.088,3.088,0,0,0-2.115,5.337l2.115,1.989,2.115-1.989a3.088,3.088,0,0,0-2.115-5.337" transform="translate(-188.551 -29.921)" fill="#4a6b7a" stroke="#4a6b7a" stroke-width="1"/>
        <path id="Trazado_898138" data-name="Trazado 898138" d="M0,69.257l2.628-9.091a9.3,9.3,0,0,1,6.646-6.416L14.235,52.5l-2.113-1.588a7.864,7.864,0,0,1-3.277-6.286,10.645,10.645,0,0,0,4.076-8.268V26.37A17.777,17.777,0,0,1,33.864,8.731l.971.175.4-.9A13.511,13.511,0,1,1,49.524,26.882l-1.081.157v9.334a10.673,10.673,0,0,0,4.085,8.267A7.915,7.915,0,0,1,49.268,50.9l-2.219,1.586,5.041,1.266a9.3,9.3,0,0,1,6.646,6.416l2.628,9.091Zm48.417-1.682h10.71l-2.007-6.942a7.613,7.613,0,0,0-5.44-5.252L37.966,51.936l-.489.767a8.085,8.085,0,0,1-13.59,0l-.489-.767L9.684,55.381a7.612,7.612,0,0,0-5.44,5.252L2.237,67.575h10.71V63.668H14.63v3.907h32.1V63.668h1.682ZM24.812,50.913l.235.446a6.4,6.4,0,0,0,11.272,0l.235-.446-1.371-4.836-1.256.423a10.151,10.151,0,0,1-6.488,0l-1.256-.424Zm5.862-40.783A16.18,16.18,0,0,0,14.6,26.37v10a11.9,11.9,0,0,1-3.572,8.544l-.539.531.214.725c.945,3.2,4.429,5.091,7.382,5.3l.2.014,4.965-1.247,1.447-5.1-.63-.525a11.556,11.556,0,0,1-4.108-8.932V25.341H20.8a6.03,6.03,0,0,0,5.887-4.758h1.948a6.03,6.03,0,0,0,5.887,4.758h5.838l-2.218-2.165a13.405,13.405,0,0,1-4.081-9.664,13.619,13.619,0,0,1,.118-1.785l.163-1.228-1.224-.186a16.308,16.308,0,0,0-2.439-.184ZM41.4,35.676a11.557,11.557,0,0,1-4.109,8.932l-.63.525,1.447,5.1,4.965,1.247.2-.014c2.953-.207,6.437-2.094,7.382-5.3l.214-.725-.539-.531a11.9,11.9,0,0,1-3.572-8.544v-9.33l-1.085-.153a13.428,13.428,0,0,1-2.592-.634L41.4,25.659Zm-14.7-11.4a7.766,7.766,0,0,1-4.088,2.538l-.966.233v8.634c0,5.334,4.054,9.674,9.037,9.674s9.038-4.34,9.038-9.674V27.023H34.526a7.691,7.691,0,0,1-5.9-2.752l-.966-1.148ZM47.576,1.682A11.829,11.829,0,1,0,59.405,13.511,11.842,11.842,0,0,0,47.576,1.682" fill="#4a6b7a" stroke="#4a6b7a" stroke-width="1"/>
      </g>
    </g>
  </g>
</svg>
