<svg xmlns="http://www.w3.org/2000/svg" xmlns:xlink="http://www.w3.org/1999/xlink" width="90" height="90" viewBox="0 0 90 90">
  <defs>
    <clipPath id="clip-path">
      <rect id="Rectángulo_403011" data-name="Rectángulo 403011" width="55.219" height="55.22" fill="#12263f"/>
    </clipPath>
  </defs>
  <g id="Grupo_1108294" data-name="Grupo 1108294" transform="translate(-1228.051 -14692)">
    <g id="Grupo_1108291" data-name="Grupo 1108291" transform="translate(631.294 13035.663)">
      <g id="Grupo_1107895" data-name="Grupo 1107895" transform="translate(261.976 -2176.663)">
        <g id="Grupo_1098742" data-name="Grupo 1098742" transform="translate(-868.539 3444.258)">
          <g id="Rectángulo_400898" data-name="Rectángulo 400898" transform="translate(1203.32 388.742)" fill="#fdbabb" stroke="#fff" stroke-width="3" opacity="0.859">
            <rect width="90" height="90" rx="45" stroke="none"/>
            <rect x="1.5" y="1.5" width="87" height="87" rx="43.5" fill="none"/>
          </g>
          <g id="Rectángulo_400907" data-name="Rectángulo 400907" transform="translate(1203.32 388.742)" fill="none" stroke="#fff" stroke-width="3">
            <rect width="90" height="90" rx="45" stroke="none"/>
            <rect x="1.5" y="1.5" width="87" height="87" rx="43.5" fill="none"/>
          </g>
        </g>
      </g>
    </g>
    <g id="Grupo_1108293" data-name="Grupo 1108293" transform="translate(1244.941 14709.391)">
      <g id="Grupo_1108292" data-name="Grupo 1108292" clip-path="url(#clip-path)">
        <path id="Trazado_898691" data-name="Trazado 898691" d="M223.422,20.163a.863.863,0,0,1-.264-1.684l10.32-3.322a6.881,6.881,0,1,0-4.21-13.1L218.95,5.375a.863.863,0,0,1-.529-1.643L228.741.411a8.627,8.627,0,0,1,10.827,5.561A8.609,8.609,0,0,1,234.007,16.8l-10.32,3.322a.864.864,0,0,1-.265.042" transform="translate(-190.974 0)" fill="#12263f"/>
        <path id="Trazado_898692" data-name="Trazado 898692" d="M313.161,38.093a.861.861,0,0,1-.689-.343,2.6,2.6,0,0,0-2.06-1.025,2.564,2.564,0,0,0-.782.123l-.52.167a.863.863,0,1,1-.529-1.643l.521-.168a4.285,4.285,0,0,1,1.31-.205,4.33,4.33,0,0,1,3.436,1.709.863.863,0,0,1-.688,1.383" transform="translate(-270.021 -30.686)" fill="#12263f"/>
        <path id="Trazado_898693" data-name="Trazado 898693" d="M56.783,56.543a.863.863,0,0,1-.263-1.685l4.13-1.324-4.209-13.1L43.648,44.543A6.866,6.866,0,0,0,38.88,51.09a6.943,6.943,0,0,0,.33,2.111l.01.035a.664.664,0,0,0,.043.117.863.863,0,0,1-1.544.772,2.359,2.359,0,0,1-.159-.416A8.609,8.609,0,0,1,43.118,42.9l13.617-4.375a.863.863,0,0,1,1.085.558l4.737,14.746A.863.863,0,0,1,62,54.914L57.047,56.5a.861.861,0,0,1-.264.041" transform="translate(-32.574 -33.74)" fill="#12263f"/>
        <path id="Trazado_898694" data-name="Trazado 898694" d="M63.31,199.243c-4.286,0-9.882-1.867-15.37-5.433-9.332-6.063-14.306-14.407-11.324-19s12.627-3.436,21.959,2.626,14.306,14.407,11.324,19c-1.228,1.89-3.587,2.807-6.589,2.807M43.13,173.729c-2.359,0-4.177.654-5.067,2.025-2.373,3.652,2.581,11.258,10.817,16.609s17.2,6.785,19.572,3.133-2.581-11.258-10.817-16.609c-5.146-3.343-10.576-5.158-14.5-5.158m26.045,22.237h0Z" transform="translate(-31.346 -150.805)" fill="#12263f"/>
        <path id="Trazado_898695" data-name="Trazado 898695" d="M27.6,223.193a17.385,17.385,0,0,1-2.383-.174,33.35,33.35,0,0,1-13.027-5.258c-9.332-6.062-14.306-14.407-11.324-19l4.407-6.783a.863.863,0,1,1,1.447.94L2.31,199.705c-2.373,3.652,2.581,11.258,10.817,16.609a31.613,31.613,0,0,0,12.324,5c3.52.488,6.162-.191,7.248-1.863l4.407-6.783a.863.863,0,1,1,1.447.94l-4.407,6.783c-1.2,1.84-3.48,2.805-6.549,2.805" transform="translate(0 -167.974)" fill="#12263f"/>
        <path id="Trazado_898696" data-name="Trazado 898696" d="M147.575,249.29a.863.863,0,0,1-.723-1.333l5.932-9.131a.863.863,0,0,1,1.447.94L148.3,248.9a.862.862,0,0,1-.724.393" transform="translate(-128.629 -209.043)" fill="#12263f"/>
        <path id="Trazado_898697" data-name="Trazado 898697" d="M316.612,185.24a8.628,8.628,0,1,1,8.628-8.628,8.638,8.638,0,0,1-8.628,8.628m0-15.531a6.9,6.9,0,1,0,6.9,6.9,6.91,6.91,0,0,0-6.9-6.9" transform="translate(-270.022 -147.278)" fill="#12263f"/>
      </g>
    </g>
  </g>
</svg>
