<svg xmlns="http://www.w3.org/2000/svg" width="120" height="120" viewBox="0 0 120 120">
  <g id="Grupo_1107893" data-name="Grupo 1107893" transform="translate(-1055.051 -812)">
    <circle id="Elipse_14838" data-name="Elipse 14838" cx="60" cy="60" r="60" transform="translate(1055.051 812)" fill="#d2e1f1"/>
    <g id="reshot-icon-beer-bottle-F29ZLBQ8UM" transform="translate(1055.554 821.988)">
      <path id="Trazado_898124" data-name="Trazado 898124" d="M55.2,13.35l-.842,22.006-6.185,7.865a9.024,9.024,0,0,0-1.93,5.578V91.813a3.008,3.008,0,0,0,3.008,3.008H69.939a3.008,3.008,0,0,0,3.008-3.008V48.8a9.024,9.024,0,0,0-1.931-5.579l-6.185-7.865L63.989,13.35Z" transform="translate(-0.434 -2.181)" fill="#97da7b"/>
      <path id="Trazado_898125" data-name="Trazado 898125" d="M46.247,75.568H51.18a8.417,8.417,0,1,1,16.834,0h4.933V87.082H68.014a8.417,8.417,0,1,1-16.834,0H46.247Z" transform="translate(-0.434 -15.524)" fill="#f07281"/>
      <path id="Trazado_898126" data-name="Trazado 898126" d="M58.355,6.307h7.557a1.88,1.88,0,0,1,1.88,1.88V11.6H56.475V8.187A1.88,1.88,0,0,1,58.355,6.307Z" transform="translate(-2.971 -0.434)" fill="#f07281"/>
      <g id="Grupo_1107887" data-name="Grupo 1107887" transform="translate(44.497 4.557)">
        <path id="Trazado_898127" data-name="Trazado 898127" d="M70.3,36.369a1.314,1.314,0,0,0-1.264,1.365l.129,3.384a1.315,1.315,0,0,0,1.314,1.266h.051A1.315,1.315,0,0,0,71.8,41.018l-.129-3.384A1.321,1.321,0,0,0,70.3,36.369Z" transform="translate(-50.584 -12.446)"/>
        <path id="Trazado_898128" data-name="Trazado 898128" d="M71.617,40.228l-1.87-2.379a1.316,1.316,0,1,0-2.069,1.627l1.87,2.379a7.741,7.741,0,0,1,1.647,4.765V58.726H68.808a9.735,9.735,0,0,0-19.29,0H47.131V46.619a7.741,7.741,0,0,1,1.649-4.765l6.182-7.862a1.31,1.31,0,0,0,.28-.763l.794-20.744h6.252l.387,10.1a1.317,1.317,0,0,0,1.314,1.266h.051a1.315,1.315,0,0,0,1.264-1.366l-.384-10.012a1.312,1.312,0,0,0,1.216-1.305V7.753a3.2,3.2,0,0,0-3.2-3.2H55.384a3.2,3.2,0,0,0-3.2,3.2v3.416A1.312,1.312,0,0,0,53.4,12.475L52.629,32.7l-5.92,7.53A10.383,10.383,0,0,0,44.5,46.62V77.006a1.316,1.316,0,0,0,2.632,0V72.874h2.389a9.735,9.735,0,0,0,19.29,0h2.387v16.76A1.693,1.693,0,0,1,69.5,91.326H48.821a1.693,1.693,0,0,1-1.692-1.692V84.047a1.316,1.316,0,1,0-2.632,0v5.587a4.329,4.329,0,0,0,4.324,4.324H69.505a4.329,4.329,0,0,0,4.324-4.324V46.62a10.383,10.383,0,0,0-2.212-6.393ZM54.82,7.753a.565.565,0,0,1,.564-.564h7.557a.565.565,0,0,1,.564.564v2.1H54.82Zm12.76,62.49a1.317,1.317,0,0,0-1.316,1.316,7.1,7.1,0,0,1-14.2,0,1.317,1.317,0,0,0-1.316-1.316H47.131V61.36h3.617a1.317,1.317,0,0,0,1.316-1.316,7.1,7.1,0,1,1,14.2,0,1.317,1.317,0,0,0,1.316,1.316h3.613v8.882Z" transform="translate(-44.497 -4.557)"/>
      </g>
    </g>
  </g>
</svg>
