<svg xmlns="http://www.w3.org/2000/svg" xmlns:xlink="http://www.w3.org/1999/xlink" width="74" height="74" viewBox="0 0 74 74">
  <defs>
    <clipPath id="clip-path">
      <rect id="Rectángulo_402769" data-name="Rectángulo 402769" width="38.329" height="45.634" fill="#4a6b7a"/>
    </clipPath>
  </defs>
  <g id="Grupo_1108006" data-name="Grupo 1108006" transform="translate(-446.051 -3506)">
    <circle id="Elipse_14858" data-name="Elipse 14858" cx="37" cy="37" r="37" transform="translate(446.051 3506)" fill="#fefae9"/>
    <g id="Grupo_1108005" data-name="Grupo 1108005" transform="translate(464.051 3520)">
      <g id="Grupo_1108004" data-name="Grupo 1108004" clip-path="url(#clip-path)">
        <path id="Trazado_898172" data-name="Trazado 898172" d="M21.061,351.47H6.4a.755.755,0,0,1-.749-.853l.439-3.382a.755.755,0,0,1,.749-.658H20.621a.755.755,0,0,1,.749.658l.439,3.382a.755.755,0,0,1-.749.853m-13.8-1.511H20.2l-.243-1.871H7.507Z" transform="translate(-4.992 -306.306)" fill="#4a6b7a"/>
        <path id="Trazado_898173" data-name="Trazado 898173" d="M15.629,83.371H1.851a.755.755,0,0,1-.754-.717L0,61.2a.762.762,0,0,1,.015-.195A7.952,7.952,0,0,1,1.035,56.83,7.1,7.1,0,0,1,3.2,54.723c.2-.143.385-.277.568-.418,1-.771,1.443-1.833,1.511-3.664l-.008-2.828a.755.755,0,0,1,.755-.757h5.428a.755.755,0,0,1,.755.753l.008,2.83c.068,1.832.506,2.895,1.512,3.666.183.141.37.276.569.419a7.1,7.1,0,0,1,2.164,2.106,8.027,8.027,0,0,1,1.016,4.355c0,.005,0,.011,0,.016l-1.1,21.453a.755.755,0,0,1-.754.717M2.569,81.86H14.911L15.97,61.133a6.541,6.541,0,0,0-.81-3.54,5.872,5.872,0,0,0-1.744-1.644c-.2-.143-.4-.291-.6-.445a5.837,5.837,0,0,1-2.1-4.822c0-.008,0-.017,0-.025l-.006-2.09H6.785l.006,2.086c0,.01,0,.02,0,.029a5.838,5.838,0,0,1-2.1,4.823c-.2.154-.405.3-.6.444a5.874,5.874,0,0,0-1.746,1.645,6.545,6.545,0,0,0-.809,3.547.751.751,0,0,1-.012.156Z" transform="translate(0 -41.588)" fill="#4a6b7a"/>
        <path id="Trazado_898174" data-name="Trazado 898174" d="M51.558,6.978H46.13a.755.755,0,0,1-.755-.755V.755A.755.755,0,0,1,46.13,0h5.428a.755.755,0,0,1,.755.755V6.223a.755.755,0,0,1-.755.755M46.886,5.468H50.8V1.511H46.886Z" transform="translate(-40.102)" fill="#4a6b7a"/>
        <path id="Trazado_898175" data-name="Trazado 898175" d="M44.431,180.083H33.585a.755.755,0,0,1-.755-.731l-.539-16.612a.755.755,0,0,1,.755-.78H45.263a.755.755,0,0,1,.754.793l-.832,16.612a.755.755,0,0,1-.754.718m-10.116-1.511h9.4l.756-15.1H33.826Z" transform="translate(-28.538 -143.14)" fill="#4a6b7a"/>
        <path id="Trazado_898176" data-name="Trazado 898176" d="M187.61,247.31H187.6a10.465,10.465,0,0,1-6.1-1.591,6.464,6.464,0,0,1-2.67-5.632,10.087,10.087,0,0,1,.082-1.282c0-.012,0-.024.005-.035l.015-.085c.548-3.092.567-3.185,2.034-9.9a.755.755,0,0,1,.738-.594h11.8a.755.755,0,0,1,.738.594c1.467,6.713,1.486,6.806,2.034,9.9l.015.085c0,.012,0,.024.005.035a10.093,10.093,0,0,1,.082,1.282,6.464,6.464,0,0,1-2.67,5.632,10.465,10.465,0,0,1-6.1,1.591Zm-7.2-8.3a8.566,8.566,0,0,0-.067,1.072c0,2.606,1.261,5.711,7.264,5.713,3.315,0,7.264-.993,7.264-5.713a8.579,8.579,0,0,0-.067-1.072l-.012-.067c-.522-2.942-.547-3.085-1.893-9.245H182.312c-1.346,6.16-1.371,6.3-1.893,9.245Z" transform="translate(-158.05 -201.676)" fill="#4a6b7a"/>
        <path id="Trazado_898177" data-name="Trazado 898177" d="M200.018,287.886H185.309a.755.755,0,0,1,0-1.511h14.709a.755.755,0,1,1,0,1.511" transform="translate(-163.109 -253.099)" fill="#4a6b7a"/>
        <path id="Trazado_898178" data-name="Trazado 898178" d="M270.353,323.09a.755.755,0,0,1-.277-1.458,3.255,3.255,0,0,0,2.075-3.548.755.755,0,0,1,1.491-.241,4.754,4.754,0,0,1-3.013,5.194.752.752,0,0,1-.276.053" transform="translate(-238.271 -280.349)" fill="#4a6b7a"/>
      </g>
    </g>
  </g>
</svg>
