<svg xmlns="http://www.w3.org/2000/svg" xmlns:xlink="http://www.w3.org/1999/xlink" width="74" height="74" viewBox="0 0 74 74">
  <defs>
    <clipPath id="clip-path">
      <rect id="Rectángulo_402761" data-name="Rectángulo 402761" width="49" height="42.525" fill="#4a6b7a"/>
    </clipPath>
  </defs>
  <g id="Grupo_1108010" data-name="Grupo 1108010" transform="translate(-662.051 -3506)">
    <circle id="Elipse_14859" data-name="Elipse 14859" cx="37" cy="37" r="37" transform="translate(662.051 3506)" fill="#fefae9"/>
    <g id="Grupo_1107984" data-name="Grupo 1107984" transform="translate(674.551 3523.475)">
      <g id="Grupo_1107983" data-name="Grupo 1107983" clip-path="url(#clip-path)">
        <path id="Trazado_898164" data-name="Trazado 898164" d="M47.612,28.058v-1.3c-.063.041-.13.082-.2.122a11.452,11.452,0,0,1-5.547,1.236,11.455,11.455,0,0,1-5.549-1.236q-.1-.06-.2-.122v1.3c0,.411.377.736.9,1.044a10.039,10.039,0,0,0,4.843,1.043A10.044,10.044,0,0,0,46.711,29.1c.523-.308.9-.633.9-1.044m-5.336-5.5c-.134,0-.272-.006-.408-.006a10.041,10.041,0,0,0-4.843,1.043c-.525.308-.9.633-.9,1.045,0,.393.345.707.832,1Zm2.924.419q-.3-.084-.615-.152l-6.016,3.489c.288.08.594.15.913.209Zm2.412,1.664c0-.394-.347-.709-.838-1.006l-4.989,3.094h.083a10.046,10.046,0,0,0,4.843-1.043c.523-.308.9-.633.9-1.045m-12.879,0A2.744,2.744,0,0,1,36.319,22.4a11.455,11.455,0,0,1,5.549-1.236A11.452,11.452,0,0,1,47.415,22.4,2.744,2.744,0,0,1,49,24.639v3.419A2.744,2.744,0,0,1,47.415,30.3a11.452,11.452,0,0,1-5.547,1.236A11.455,11.455,0,0,1,36.319,30.3a2.744,2.744,0,0,1-1.585-2.241Zm-1.792-.227V23.379l-.065.04a10.344,10.344,0,0,1-5.007,1.117,10.333,10.333,0,0,1-5.007-1.117l-.067-.04v1.033c0,.347.329.613.771.873a8.927,8.927,0,0,0,4.3.924,8.924,8.924,0,0,0,4.3-.924c.442-.26.771-.526.771-.873m-4.967-4.86h-.1a8.927,8.927,0,0,0-4.3.924c-.442.26-.771.526-.771.873,0,.321.282.572.674.815Zm2.7.333c-.118-.031-.237-.059-.359-.086L25.1,22.823c.2.051.4.1.617.135Zm2.266,1.464c0-.322-.282-.574-.676-.816L28.05,23.146a8.76,8.76,0,0,0,4.119-.923c.442-.26.771-.526.771-.873m-11.534,0a2.525,2.525,0,0,1,1.455-2.07,10.333,10.333,0,0,1,5.007-1.117,10.344,10.344,0,0,1,5.007,1.117,2.529,2.529,0,0,1,1.455,2.07v3.062a2.529,2.529,0,0,1-1.455,2.07A10.344,10.344,0,0,1,27.869,27.6a10.333,10.333,0,0,1-5.007-1.117,2.525,2.525,0,0,1-1.455-2.07ZM38.093,38.224V36.142a6.064,6.064,0,0,1-.564.377,14.65,14.65,0,0,1-7.091,1.574,14.647,14.647,0,0,1-7.089-1.574,5.813,5.813,0,0,1-.564-.377v2.081c0,.593.515,1.087,1.27,1.532a13.227,13.227,0,0,0,6.383,1.381,13.235,13.235,0,0,0,6.385-1.381c.755-.445,1.27-.939,1.27-1.532m-6.415-7.306q-.606-.04-1.24-.041a13.224,13.224,0,0,0-6.383,1.382c-.755.445-1.27.938-1.27,1.532s.515,1.087,1.27,1.532l.014.008Zm3.575.652a12.41,12.41,0,0,0-1.325-.351l-8.28,4.8a12.973,12.973,0,0,0,1.741.427Zm2.84,2.221c0-.593-.515-1.087-1.27-1.532l-.024-.014-7.162,4.442c.262.011.53.017.8.017a13.235,13.235,0,0,0,6.385-1.381c.755-.445,1.27-.939,1.27-1.532m-16.7,0a3.363,3.363,0,0,1,1.954-2.728,14.644,14.644,0,0,1,7.089-1.574,14.647,14.647,0,0,1,7.091,1.574,3.36,3.36,0,0,1,1.952,2.728v4.433a3.361,3.361,0,0,1-1.952,2.728,14.65,14.65,0,0,1-7.091,1.574,14.647,14.647,0,0,1-7.089-1.574A3.363,3.363,0,0,1,21.4,38.224ZM10.124,21.036v1.31a.693.693,0,0,1-.694.694H8.122v1.14H9.43a.693.693,0,0,1,.694.694v1.31h1.144v-1.31a.693.693,0,0,1,.694-.694h1.307V23.04H11.962a.693.693,0,0,1-.694-.694v-1.31ZM9.43,19.648h2.532a.7.7,0,0,1,.694.694v1.31h1.307a.7.7,0,0,1,.694.694v2.529a.7.7,0,0,1-.694.694H12.656v1.31a.7.7,0,0,1-.694.694H9.43a.7.7,0,0,1-.694-.694v-1.31H7.428a.7.7,0,0,1-.694-.694V22.346a.7.7,0,0,1,.694-.694H8.736v-1.31a.7.7,0,0,1,.694-.694M1.388,30.93v2.061a1.461,1.461,0,0,0,1.459,1.457h15.7A1.461,1.461,0,0,0,20,32.991V30.93ZM20,17.679H1.388V29.541H20ZM4.334,5.015H17.057a.023.023,0,0,0,.024-.023V1.411a.023.023,0,0,0-.024-.023H4.334a.023.023,0,0,0-.024.023V4.992a.023.023,0,0,0,.024.023M6.014,6.4v2.45a2.758,2.758,0,0,1-.834,2.013L1.816,14.232a1.412,1.412,0,0,0-.428,1.031v1.027H20V15.264a1.412,1.412,0,0,0-.428-1.031l-3.364-3.366a2.751,2.751,0,0,1-.834-2.013V6.4ZM0,32.991V15.264a2.747,2.747,0,0,1,.834-2.013L4.2,9.885a1.409,1.409,0,0,0,.428-1.031V6.4H4.334A1.412,1.412,0,0,1,2.922,4.992V1.411A1.412,1.412,0,0,1,4.334,0H17.057a1.412,1.412,0,0,1,1.412,1.411V4.992A1.412,1.412,0,0,1,17.057,6.4h-.292v2.45a1.409,1.409,0,0,0,.428,1.031l3.364,3.366a2.747,2.747,0,0,1,.834,2.013V32.991a2.852,2.852,0,0,1-2.847,2.845H2.847A2.852,2.852,0,0,1,0,32.991" fill="#4a6b7a" fill-rule="evenodd"/>
      </g>
    </g>
  </g>
</svg>
