<svg xmlns="http://www.w3.org/2000/svg" xmlns:xlink="http://www.w3.org/1999/xlink" width="74" height="74" viewBox="0 0 74 74">
  <defs>
    <clipPath id="clip-path">
      <rect id="Rectángulo_402762" data-name="Rectángulo 402762" width="44.177" height="45" fill="#4a6b7a"/>
    </clipPath>
  </defs>
  <g id="Grupo_1108009" data-name="Grupo 1108009" transform="translate(-866.051 -3506)">
    <circle id="Elipse_14860" data-name="Elipse 14860" cx="37" cy="37" r="37" transform="translate(866.051 3506)" fill="#fefae9"/>
    <g id="Grupo_1107986" data-name="Grupo 1107986" transform="translate(881.874 3520)">
      <g id="Grupo_1107985" data-name="Grupo 1107985" clip-path="url(#clip-path)">
        <path id="Trazado_898165" data-name="Trazado 898165" d="M33.9,36.161a.579.579,0,0,0,0,.817l6.581,6.579v0a.579.579,0,0,0,.817,0l1.432-1.431a.582.582,0,0,0,0-.819l-6.579-6.579a.582.582,0,0,0-.819,0ZM19.286,28.053a6.307,6.307,0,1,0,8.155-7.871,7.517,7.517,0,0,1-8.155,7.871m6.849-8.193a6.253,6.253,0,0,0-.849-.058A6.319,6.319,0,0,0,18.98,26.11a6.01,6.01,0,0,0,.031.628,6.243,6.243,0,0,0,7.124-6.878m-.849,13.832a7.583,7.583,0,1,1,7.583-7.583,7.6,7.6,0,0,1-7.583,7.583m0-16.427a8.844,8.844,0,1,0,8.845,8.845,8.844,8.844,0,0,0-8.845-8.845m7.626,15.5a10.25,10.25,0,0,1-.972.971l1.293,1.295.972-.972Zm-1.994,1.755a10.118,10.118,0,1,1,2.776-2.776l1.6,1.6a1.859,1.859,0,0,1,1.764.485l6.579,6.579a1.86,1.86,0,0,1,0,2.622L42.2,44.459a1.859,1.859,0,0,1-2.622,0L33,37.88a1.856,1.856,0,0,1-.485-1.762Zm-8.4-25.292q-.147.511-.268,1.058c-.011.063-.022.127-.033.188,3.589-.594,6.165-2.164,7.655-4.98a.587.587,0,0,0-1.036-.551c-1.257,2.372-3.392,3.705-6.319,4.285M12.326,18.163c-.089.384-.161.782-.223,1.193a.091.091,0,0,1,0,.022,10.181,10.181,0,0,0,4.935-1.9q.114-.084.223-.174a10.8,10.8,0,0,0,3.526-6.221q.117-.5.21-1.034c0-.011,0-.02.005-.029q.179-.81.409-1.543c.949-3.028,2.584-5.1,5.214-6.067a.587.587,0,0,0-.406-1.1c-3.231,1.19-5.188,3.825-6.2,7.78-.06.23-.116.467-.168.706l-.005.027a17.1,17.1,0,0,1-.413,1.82,9.16,9.16,0,0,1-2.912,4.75c-.11.091-.225.177-.339.261a8.9,8.9,0,0,1-3.852,1.507M17.864,12.3A7.3,7.3,0,0,0,14.5,14.018a7.064,7.064,0,0,0-1.766,2.769,7.267,7.267,0,0,0,2.7-1.164c.094-.069.188-.141.281-.216A7.318,7.318,0,0,0,17.864,12.3m.71-2.628a10.346,10.346,0,0,0-5.752,2.559,10.506,10.506,0,0,0-2.939,5.647q-.117.543-.2,1.114a.027.027,0,0,1,0,.013q-.122.744-.3,1.411c-.822,3.137-2.477,4.964-4.868,5.694a.586.586,0,0,0,.342,1.121c2.925-.893,4.975-3.171,5.835-7.262.054-.255.1-.516.149-.786v-.011a16.045,16.045,0,0,1,.353-1.744,8.932,8.932,0,0,1,2.43-4.341A8.941,8.941,0,0,1,18.31,10.9q.149-.584.264-1.231m-10.1,8.791c-3.676.465-5.956,2.142-7.146,4.73a.587.587,0,1,0,1.067.489c.994-2.166,2.889-3.535,5.855-4,.063-.283.121-.576.172-.88.016-.114.034-.226.053-.339m-.621,2.59a5.686,5.686,0,0,0-4.3,3.162A1.862,1.862,0,1,1,.169,22.662C1.575,19.6,4.277,17.6,8.741,17.151A11.516,11.516,0,0,1,11.95,11.3a11.8,11.8,0,0,1,6.945-2.957C20.061,4.163,22.28,1.4,25.775.115a1.862,1.862,0,0,1,1.288,3.493A6.956,6.956,0,0,0,23,7.806a6.955,6.955,0,0,0,4.7-3.461A1.862,1.862,0,1,1,31,6.088c-1.744,3.292-4.774,5.121-9.077,5.719A11.8,11.8,0,0,1,18.062,18.3q-.125.1-.255.2a11.647,11.647,0,0,1-5.969,2.2C10.8,25.06,8.449,27.468,5.231,28.452a1.862,1.862,0,1,1-1.087-3.562,5.683,5.683,0,0,0,3.709-3.836" transform="translate(0 0)" fill="#4a6b7a" fill-rule="evenodd"/>
      </g>
    </g>
  </g>
</svg>
